M48
; DRILL file {KiCad 9.0.4} date 2025-09-17T11:38:09+0100
; FORMAT={-:-/ absolute / metric / decimal}
; #@! TF.CreationDate,2025-09-17T11:38:09+01:00
; #@! TF.GenerationSoftware,Kicad,Pcbnew,9.0.4
; #@! TF.FileFunction,Plated,1,4,PTH
FMAT,2
METRIC
; #@! TA.AperFunction,Plated,PTH,ViaDrill
T1C0.300
; #@! TA.AperFunction,Plated,PTH,ComponentDrill
T2C0.800
; #@! TA.AperFunction,Plated,PTH,ComponentDrill
T3C1.000
; #@! TA.AperFunction,Plated,PTH,ComponentDrill
T4C1.067
; #@! TA.AperFunction,Plated,PTH,ComponentDrill
T5C1.500
; #@! TA.AperFunction,Plated,PTH,ComponentDrill
T6C3.200
%
G90
G05
T1
X132.78Y-109.252
X132.78Y-111.72
X132.78Y-114.188
X132.78Y-115.36
X132.78Y-118.17
X132.78Y-119.159
X132.78Y-122.39
X132.78Y-125.56
X132.78Y-128.72
X133.19Y-96.15
X133.19Y-103.575
X133.19Y-104.695
X133.99Y-96.15
X133.99Y-103.575
X133.99Y-104.695
X135.59Y-120.84
X136.67Y-117.62
X136.77Y-130.76
X137.57Y-130.76
X137.7Y-115.29
X137.845Y-118.106
X138.07Y-106.92
X138.07Y-110.74
X138.07Y-111.96
X139.34Y-90.81
X139.34Y-97.42
X139.41Y-99.78
X139.41Y-124.469
X139.66Y-105.9
X140.072Y-128.36
X142.48Y-87.15
X142.48Y-94.33
X142.53Y-118.44
X143.1Y-110.759
X143.38Y-107.75
X143.42Y-99.93
X144.49Y-107.7
X145.17Y-91.68
X145.93Y-107.74
X146.71Y-103.575
X146.71Y-104.695
X146.71Y-120.34
X146.71Y-121.46
X146.71Y-89.01
X146.71Y-90.13
X146.753Y-129.187
X146.84Y-109.469
X146.9Y-126.21
X147.51Y-103.575
X147.51Y-104.695
X147.51Y-120.34
X147.51Y-121.46
X147.51Y-89.01
X147.51Y-90.13
X147.89Y-92.57
X148.06Y-126.21
X148.5Y-106.93
X148.61Y-127.54
X149.318Y-87.238
X150.25Y-115.29
X151.94Y-112.04
X152.16Y-96.48
X152.21Y-123.04
X152.61Y-87.12
X153.07Y-94.51
X153.18Y-98.82
X153.33Y-126.195
X153.34Y-105.67
X153.41Y-87.12
X153.847Y-89.158
X154.461Y-89.67
X155.816Y-89.666
X156.89Y-114.48
X157.09Y-94.33
X157.33Y-97.23
X157.54Y-130.018
X157.78Y-115.25
X157.92Y-126.226
X158.16Y-89.67
X158.96Y-113.485
X159.43Y-95.95
X159.59Y-98.3
X159.72Y-103.575
X159.72Y-104.695
X159.72Y-121.46
X159.865Y-124.951
X159.98Y-110.095
X160.23Y-127.5
X160.5Y-90.95
X160.52Y-103.575
X160.52Y-104.695
X160.52Y-121.46
X161.0Y-115.45
X161.144Y-93.66
X161.25Y-89.7
X161.63Y-106.89
X161.94Y-91.03
X162.14Y-98.24
X162.42Y-114.824
X164.045Y-115.449
X164.86Y-110.38
X164.91Y-123.688
X164.99Y-122.38
X165.14Y-117.742
X165.14Y-118.542
X165.3Y-108.21
X165.46Y-115.48
X165.62Y-126.226
X165.62Y-127.49
X165.62Y-128.75
X165.9Y-112.14
X166.28Y-108.929
X166.48Y-113.75
X166.73Y-124.957
X166.76Y-106.9
X167.19Y-94.99
X167.19Y-95.79
X167.515Y-114.08
X168.2Y-100.96
X169.14Y-117.34
X169.545Y-114.08
X169.74Y-108.17
X169.87Y-128.51
T2
X168.77Y-91.39
X168.77Y-93.39
X168.77Y-95.39
T3
X141.775Y-84.74
X143.16Y-81.9
X144.545Y-84.74
X145.93Y-81.9
X147.315Y-84.74
X148.7Y-81.9
X150.085Y-84.74
X151.47Y-81.9
X152.855Y-84.74
X154.24Y-81.9
X155.625Y-84.74
X157.01Y-81.9
X158.395Y-84.74
X159.78Y-81.9
X161.165Y-84.74
T4
X147.7Y-118.12
X150.24Y-118.12
X152.78Y-118.12
X155.32Y-118.12
T5
X168.77Y-89.29
X168.77Y-97.49
T6
X134.82Y-83.32
X168.12Y-83.32
M30
