%TF.GenerationSoftware,KiCad,Pcbnew,9.0.4*%
%TF.CreationDate,2025-09-17T12:51:36+01:00*%
%TF.ProjectId,PinCheck-4,50696e43-6865-4636-9b2d-342e6b696361,rev?*%
%TF.SameCoordinates,Original*%
%TF.FileFunction,Paste,Top*%
%TF.FilePolarity,Positive*%
%FSLAX46Y46*%
G04 Gerber Fmt 4.6, Leading zero omitted, Abs format (unit mm)*
G04 Created by KiCad (PCBNEW 9.0.4) date 2025-09-17 12:51:36*
%MOMM*%
%LPD*%
G01*
G04 APERTURE LIST*
G04 Aperture macros list*
%AMRoundRect*
0 Rectangle with rounded corners*
0 $1 Rounding radius*
0 $2 $3 $4 $5 $6 $7 $8 $9 X,Y pos of 4 corners*
0 Add a 4 corners polygon primitive as box body*
4,1,4,$2,$3,$4,$5,$6,$7,$8,$9,$2,$3,0*
0 Add four circle primitives for the rounded corners*
1,1,$1+$1,$2,$3*
1,1,$1+$1,$4,$5*
1,1,$1+$1,$6,$7*
1,1,$1+$1,$8,$9*
0 Add four rect primitives between the rounded corners*
20,1,$1+$1,$2,$3,$4,$5,0*
20,1,$1+$1,$4,$5,$6,$7,0*
20,1,$1+$1,$6,$7,$8,$9,0*
20,1,$1+$1,$8,$9,$2,$3,0*%
G04 Aperture macros list end*
%ADD10RoundRect,0.250000X-0.250000X-0.475000X0.250000X-0.475000X0.250000X0.475000X-0.250000X0.475000X0*%
%ADD11RoundRect,0.162500X-0.837500X-0.162500X0.837500X-0.162500X0.837500X0.162500X-0.837500X0.162500X0*%
%ADD12RoundRect,0.250000X-0.475000X0.250000X-0.475000X-0.250000X0.475000X-0.250000X0.475000X0.250000X0*%
%ADD13RoundRect,0.112500X-0.112500X-0.237500X0.112500X-0.237500X0.112500X0.237500X-0.112500X0.237500X0*%
%ADD14RoundRect,0.243750X-0.243750X-0.456250X0.243750X-0.456250X0.243750X0.456250X-0.243750X0.456250X0*%
%ADD15RoundRect,0.087500X-0.650000X-0.087500X0.650000X-0.087500X0.650000X0.087500X-0.650000X0.087500X0*%
%ADD16R,0.900000X1.200000*%
%ADD17RoundRect,0.250000X-0.262500X-0.450000X0.262500X-0.450000X0.262500X0.450000X-0.262500X0.450000X0*%
%ADD18RoundRect,0.250000X0.450000X-0.262500X0.450000X0.262500X-0.450000X0.262500X-0.450000X-0.262500X0*%
%ADD19R,3.650000X3.510000*%
%ADD20RoundRect,0.250000X0.475000X-0.250000X0.475000X0.250000X-0.475000X0.250000X-0.475000X-0.250000X0*%
%ADD21RoundRect,0.243750X0.456250X-0.243750X0.456250X0.243750X-0.456250X0.243750X-0.456250X-0.243750X0*%
%ADD22RoundRect,0.100000X0.350000X0.100000X-0.350000X0.100000X-0.350000X-0.100000X0.350000X-0.100000X0*%
%ADD23RoundRect,0.250000X-0.400000X0.525000X-0.400000X-0.525000X0.400000X-0.525000X0.400000X0.525000X0*%
%ADD24RoundRect,0.250000X0.550000X-1.250000X0.550000X1.250000X-0.550000X1.250000X-0.550000X-1.250000X0*%
%ADD25RoundRect,0.250000X0.400000X0.400000X-0.400000X0.400000X-0.400000X-0.400000X0.400000X-0.400000X0*%
%ADD26RoundRect,0.250000X0.750000X0.400000X-0.750000X0.400000X-0.750000X-0.400000X0.750000X-0.400000X0*%
%ADD27R,1.000000X2.900000*%
G04 APERTURE END LIST*
D10*
%TO.C,C3*%
X133790000Y-114188125D03*
X135690000Y-114188125D03*
%TD*%
%TO.C,C1*%
X133790000Y-109251875D03*
X135690000Y-109251875D03*
%TD*%
D11*
%TO.C,U1*%
X158740000Y-118150000D03*
X158740000Y-119100000D03*
X158740000Y-120050000D03*
X162160000Y-120050000D03*
X162160000Y-119100000D03*
X162160000Y-118150000D03*
%TD*%
D12*
%TO.C,C4*%
X159010000Y-112585000D03*
X159010000Y-114485000D03*
%TD*%
D13*
%TO.C,Q1*%
X168310000Y-110230000D03*
X169610000Y-110230000D03*
X168960000Y-108230000D03*
%TD*%
D10*
%TO.C,C2*%
X133790000Y-111720000D03*
X135690000Y-111720000D03*
%TD*%
D14*
%TO.C,D5*%
X134579415Y-125535834D03*
X136454415Y-125535834D03*
%TD*%
D15*
%TO.C,U5*%
X150051310Y-88270000D03*
X150051310Y-88770000D03*
X150051310Y-89270000D03*
X150051310Y-89770000D03*
X150051310Y-90270000D03*
X150051310Y-90770000D03*
X150051310Y-91270000D03*
X150051310Y-91770000D03*
X152676310Y-91770000D03*
X152676310Y-91270000D03*
X152676310Y-90770000D03*
X152676310Y-90270000D03*
X152676310Y-89770000D03*
X152676310Y-89270000D03*
X152676310Y-88770000D03*
X152676310Y-88270000D03*
%TD*%
D16*
%TO.C,D7*%
X141341915Y-124900000D03*
X141341915Y-122100000D03*
X142791915Y-122100000D03*
X142791915Y-124900000D03*
%TD*%
D17*
%TO.C,R15*%
X154831310Y-91420000D03*
X156656310Y-91420000D03*
%TD*%
D14*
%TO.C,D6*%
X134579415Y-128731667D03*
X136454415Y-128731667D03*
%TD*%
D18*
%TO.C,R1*%
X169120000Y-120032500D03*
X169120000Y-118207500D03*
%TD*%
D19*
%TO.C,BT1*%
X143756750Y-103780000D03*
X164506750Y-103780000D03*
%TD*%
D20*
%TO.C,C5*%
X161000000Y-114485000D03*
X161000000Y-112585000D03*
%TD*%
D14*
%TO.C,D4*%
X134579415Y-122340000D03*
X136454415Y-122340000D03*
%TD*%
D21*
%TO.C,D1*%
X166920000Y-120017500D03*
X166920000Y-118142500D03*
%TD*%
D14*
%TO.C,D3*%
X134579415Y-119144167D03*
X136454415Y-119144167D03*
%TD*%
D22*
%TO.C,U2*%
X165500000Y-114410000D03*
X165500000Y-113760000D03*
X165500000Y-113110000D03*
X163300000Y-113110000D03*
X163300000Y-113760000D03*
X163300000Y-114410000D03*
%TD*%
D23*
%TO.C,SW1*%
X166199921Y-122120000D03*
X166199921Y-130080000D03*
X161699921Y-122120000D03*
X161699921Y-130080000D03*
%TD*%
D10*
%TO.C,C10*%
X154813810Y-88450000D03*
X156713810Y-88450000D03*
%TD*%
D24*
%TO.C,C8*%
X135050000Y-93640000D03*
X135050000Y-89240000D03*
%TD*%
D25*
%TO.C,RV1*%
X133550000Y-105760000D03*
D26*
X134700000Y-100260000D03*
D25*
X135850000Y-105760000D03*
%TD*%
D27*
%TO.C,L1*%
X169545000Y-113810000D03*
X167515000Y-113810000D03*
%TD*%
D14*
%TO.C,D2*%
X133782500Y-97980000D03*
X135657500Y-97980000D03*
%TD*%
M02*
