%TF.GenerationSoftware,KiCad,Pcbnew,9.0.4*%
%TF.CreationDate,2025-09-17T12:51:36+01:00*%
%TF.ProjectId,PinCheck-4,50696e43-6865-4636-9b2d-342e6b696361,rev?*%
%TF.SameCoordinates,Original*%
%TF.FileFunction,Paste,Bot*%
%TF.FilePolarity,Positive*%
%FSLAX46Y46*%
G04 Gerber Fmt 4.6, Leading zero omitted, Abs format (unit mm)*
G04 Created by KiCad (PCBNEW 9.0.4) date 2025-09-17 12:51:36*
%MOMM*%
%LPD*%
G01*
G04 APERTURE LIST*
G04 Aperture macros list*
%AMRoundRect*
0 Rectangle with rounded corners*
0 $1 Rounding radius*
0 $2 $3 $4 $5 $6 $7 $8 $9 X,Y pos of 4 corners*
0 Add a 4 corners polygon primitive as box body*
4,1,4,$2,$3,$4,$5,$6,$7,$8,$9,$2,$3,0*
0 Add four circle primitives for the rounded corners*
1,1,$1+$1,$2,$3*
1,1,$1+$1,$4,$5*
1,1,$1+$1,$6,$7*
1,1,$1+$1,$8,$9*
0 Add four rect primitives between the rounded corners*
20,1,$1+$1,$2,$3,$4,$5,0*
20,1,$1+$1,$4,$5,$6,$7,0*
20,1,$1+$1,$6,$7,$8,$9,0*
20,1,$1+$1,$8,$9,$2,$3,0*%
G04 Aperture macros list end*
%ADD10RoundRect,0.150000X0.825000X0.150000X-0.825000X0.150000X-0.825000X-0.150000X0.825000X-0.150000X0*%
%ADD11RoundRect,0.250000X-0.250000X-0.475000X0.250000X-0.475000X0.250000X0.475000X-0.250000X0.475000X0*%
%ADD12RoundRect,0.250000X-0.262500X-0.450000X0.262500X-0.450000X0.262500X0.450000X-0.262500X0.450000X0*%
%ADD13RoundRect,0.150000X-0.512500X-0.150000X0.512500X-0.150000X0.512500X0.150000X-0.512500X0.150000X0*%
%ADD14RoundRect,0.250000X0.262500X0.450000X-0.262500X0.450000X-0.262500X-0.450000X0.262500X-0.450000X0*%
G04 APERTURE END LIST*
D10*
%TO.C,U4*%
X155131845Y-91110000D03*
X155131845Y-92380000D03*
X155131845Y-93650000D03*
X155131845Y-94920000D03*
X155131845Y-96190000D03*
X155131845Y-97460000D03*
X155131845Y-98730000D03*
X155131845Y-100000000D03*
X150181845Y-100000000D03*
X150181845Y-98730000D03*
X150181845Y-97460000D03*
X150181845Y-96190000D03*
X150181845Y-94920000D03*
X150181845Y-93650000D03*
X150181845Y-92380000D03*
X150181845Y-91110000D03*
%TD*%
%TO.C,U9*%
X168185000Y-105660000D03*
X168185000Y-106930000D03*
X168185000Y-108200000D03*
X168185000Y-109470000D03*
X168185000Y-110740000D03*
X168185000Y-112010000D03*
X168185000Y-113280000D03*
X163235000Y-113280000D03*
X163235000Y-112010000D03*
X163235000Y-110740000D03*
X163235000Y-109470000D03*
X163235000Y-108200000D03*
X163235000Y-106930000D03*
X163235000Y-105660000D03*
%TD*%
D11*
%TO.C,C7*%
X133830000Y-90858125D03*
X135730000Y-90858125D03*
%TD*%
%TO.C,C12*%
X149706845Y-120290000D03*
X151606845Y-120290000D03*
%TD*%
D12*
%TO.C,R14*%
X158647500Y-99555000D03*
X160472500Y-99555000D03*
%TD*%
D11*
%TO.C,C13*%
X162760000Y-103272500D03*
X164660000Y-103272500D03*
%TD*%
D13*
%TO.C,U8*%
X140072500Y-129310000D03*
X140072500Y-128360000D03*
X140072500Y-127410000D03*
X142347500Y-127410000D03*
X142347500Y-128360000D03*
X142347500Y-129310000D03*
%TD*%
D10*
%TO.C,U6*%
X168185000Y-122417500D03*
X168185000Y-123687500D03*
X168185000Y-124957500D03*
X168185000Y-126227500D03*
X168185000Y-127497500D03*
X168185000Y-128767500D03*
X168185000Y-130037500D03*
X163235000Y-130037500D03*
X163235000Y-128767500D03*
X163235000Y-127497500D03*
X163235000Y-126227500D03*
X163235000Y-124957500D03*
X163235000Y-123687500D03*
X163235000Y-122417500D03*
%TD*%
D12*
%TO.C,R9*%
X140667500Y-90828125D03*
X142492500Y-90828125D03*
%TD*%
D14*
%TO.C,R8*%
X135672500Y-119652500D03*
X133847500Y-119652500D03*
%TD*%
%TO.C,R19*%
X142492500Y-124468750D03*
X140667500Y-124468750D03*
%TD*%
D12*
%TO.C,R4*%
X133847500Y-124468750D03*
X135672500Y-124468750D03*
%TD*%
D11*
%TO.C,C15*%
X149706845Y-103070000D03*
X151606845Y-103070000D03*
%TD*%
%TO.C,C6*%
X133830000Y-93266250D03*
X135730000Y-93266250D03*
%TD*%
D12*
%TO.C,R5*%
X133847500Y-126876875D03*
X135672500Y-126876875D03*
%TD*%
%TO.C,R12*%
X158647500Y-92330625D03*
X160472500Y-92330625D03*
%TD*%
D11*
%TO.C,C14*%
X136177500Y-103260000D03*
X138077500Y-103260000D03*
%TD*%
D10*
%TO.C,U11*%
X155131845Y-105660000D03*
X155131845Y-106930000D03*
X155131845Y-108200000D03*
X155131845Y-109470000D03*
X155131845Y-110740000D03*
X155131845Y-112010000D03*
X155131845Y-113280000D03*
X150181845Y-113280000D03*
X150181845Y-112010000D03*
X150181845Y-110740000D03*
X150181845Y-109470000D03*
X150181845Y-108200000D03*
X150181845Y-106930000D03*
X150181845Y-105660000D03*
%TD*%
D12*
%TO.C,R6*%
X133847500Y-129285000D03*
X135672500Y-129285000D03*
%TD*%
%TO.C,R11*%
X158647500Y-94738750D03*
X160472500Y-94738750D03*
%TD*%
D11*
%TO.C,C9*%
X149706845Y-88450000D03*
X151606845Y-88450000D03*
%TD*%
D10*
%TO.C,U7*%
X155131845Y-122417500D03*
X155131845Y-123687500D03*
X155131845Y-124957500D03*
X155131845Y-126227500D03*
X155131845Y-127497500D03*
X155131845Y-128767500D03*
X155131845Y-130037500D03*
X150181845Y-130037500D03*
X150181845Y-128767500D03*
X150181845Y-127497500D03*
X150181845Y-126227500D03*
X150181845Y-124957500D03*
X150181845Y-123687500D03*
X150181845Y-122417500D03*
%TD*%
D12*
%TO.C,R13*%
X158647500Y-97146875D03*
X160472500Y-97146875D03*
%TD*%
D14*
%TO.C,R17*%
X142492500Y-119652500D03*
X140667500Y-119569583D03*
%TD*%
%TO.C,R7*%
X135672500Y-117244375D03*
X133847500Y-117244375D03*
%TD*%
D10*
%TO.C,U3*%
X141602500Y-96150000D03*
X141602500Y-97420000D03*
X141602500Y-98690000D03*
X141602500Y-99960000D03*
X136652500Y-99960000D03*
X136652500Y-98690000D03*
X136652500Y-97420000D03*
X136652500Y-96150000D03*
%TD*%
D14*
%TO.C,R16*%
X142492500Y-117244375D03*
X140667500Y-117244375D03*
%TD*%
D10*
%TO.C,U10*%
X141602500Y-105660000D03*
X141602500Y-106930000D03*
X141602500Y-108200000D03*
X141602500Y-109470000D03*
X141602500Y-110740000D03*
X141602500Y-112010000D03*
X141602500Y-113280000D03*
X136652500Y-113280000D03*
X136652500Y-112010000D03*
X136652500Y-110740000D03*
X136652500Y-109470000D03*
X136652500Y-108200000D03*
X136652500Y-106930000D03*
X136652500Y-105660000D03*
%TD*%
D14*
%TO.C,R2*%
X142492500Y-88420000D03*
X140667500Y-88420000D03*
%TD*%
D11*
%TO.C,C11*%
X162760000Y-120290000D03*
X164660000Y-120290000D03*
%TD*%
D14*
%TO.C,R10*%
X142492500Y-93236250D03*
X140667500Y-93236250D03*
%TD*%
%TO.C,R18*%
X142492500Y-122060625D03*
X140667500Y-122060625D03*
%TD*%
D12*
%TO.C,R3*%
X133847500Y-122060625D03*
X135672500Y-122060625D03*
%TD*%
M02*
