%TF.GenerationSoftware,KiCad,Pcbnew,9.0.4*%
%TF.CreationDate,2025-09-17T12:51:36+01:00*%
%TF.ProjectId,PinCheck-4,50696e43-6865-4636-9b2d-342e6b696361,rev?*%
%TF.SameCoordinates,Original*%
%TF.FileFunction,Legend,Top*%
%TF.FilePolarity,Positive*%
%FSLAX46Y46*%
G04 Gerber Fmt 4.6, Leading zero omitted, Abs format (unit mm)*
G04 Created by KiCad (PCBNEW 9.0.4) date 2025-09-17 12:51:36*
%MOMM*%
%LPD*%
G01*
G04 APERTURE LIST*
%ADD10C,0.150000*%
%ADD11C,0.075000*%
%ADD12C,0.000000*%
%ADD13C,0.200000*%
%ADD14C,0.120000*%
%ADD15C,0.152400*%
%ADD16C,0.508000*%
%ADD17C,0.100000*%
%ADD18C,0.127000*%
G04 APERTURE END LIST*
D10*
X132361320Y-115720000D02*
X132361320Y-128200000D01*
X145891320Y-131200000D02*
X145891320Y-115720000D01*
D11*
X166203080Y-90076832D02*
X164752032Y-90076832D01*
X165429636Y-88746798D01*
X166203080Y-90076832D01*
G36*
X166203080Y-90076832D02*
G01*
X164752032Y-90076832D01*
X165429636Y-88746798D01*
X166203080Y-90076832D01*
G37*
X164752032Y-90076832D02*
X166203080Y-90076832D01*
X166203080Y-93450447D01*
X164752032Y-93450447D01*
X164752032Y-90076832D01*
D10*
X135361320Y-131200000D02*
G75*
G02*
X132361300Y-128200000I-20J3000000D01*
G01*
X167671154Y-131200000D02*
X157141154Y-131200000D01*
X162910000Y-99765000D02*
X170570000Y-99765000D01*
X170671154Y-115720000D02*
X170671154Y-128200000D01*
D11*
X164786508Y-93769554D02*
X166237556Y-93769554D01*
X166237556Y-96703169D01*
X164786508Y-96703169D01*
X164786508Y-93769554D01*
D10*
X170570000Y-88015000D02*
X170570000Y-87015000D01*
X162910000Y-87015000D02*
X162910000Y-99765000D01*
X170671154Y-128200000D02*
G75*
G02*
X167671154Y-131200054I-3000054J0D01*
G01*
D11*
X165559952Y-98033203D02*
X164786508Y-96703169D01*
X166237556Y-96703169D01*
X165559952Y-98033203D01*
G36*
X165559952Y-98033203D02*
G01*
X164786508Y-96703169D01*
X166237556Y-96703169D01*
X165559952Y-98033203D01*
G37*
D10*
X145891320Y-115720000D02*
X132361320Y-115720000D01*
X135361320Y-131200000D02*
X145891320Y-131200000D01*
X170570000Y-99765000D02*
X170570000Y-98765000D01*
X157141154Y-131200000D02*
X157141154Y-115720000D01*
D12*
G36*
X170640211Y-117160000D02*
G01*
X166370211Y-117160000D01*
X166370211Y-115700000D01*
X170640211Y-115700000D01*
X170640211Y-117160000D01*
G37*
D10*
X157141154Y-115720000D02*
X170671154Y-115720000D01*
D12*
G36*
X161230000Y-117130000D02*
G01*
X157130000Y-117130000D01*
X157130000Y-115670000D01*
X161230000Y-115670000D01*
X161230000Y-117130000D01*
G37*
D10*
X162910000Y-87015000D02*
X170570000Y-87015000D01*
D13*
G36*
X141088184Y-116097023D02*
G01*
X141152363Y-116161202D01*
X141190278Y-116312861D01*
X141190278Y-116621575D01*
X141152362Y-116773235D01*
X141088186Y-116837413D01*
X141028576Y-116867219D01*
X140885314Y-116867219D01*
X140825704Y-116837414D01*
X140761527Y-116773236D01*
X140723612Y-116621575D01*
X140723612Y-116312862D01*
X140761527Y-116161202D01*
X140825706Y-116097023D01*
X140885314Y-116067219D01*
X141028576Y-116067219D01*
X141088184Y-116097023D01*
G37*
G36*
X144421517Y-116097023D02*
G01*
X144485696Y-116161202D01*
X144523611Y-116312861D01*
X144523611Y-116621575D01*
X144485695Y-116773235D01*
X144421519Y-116837413D01*
X144361909Y-116867219D01*
X144218647Y-116867219D01*
X144159037Y-116837414D01*
X144094860Y-116773236D01*
X144056945Y-116621575D01*
X144056945Y-116312862D01*
X144094860Y-116161202D01*
X144159039Y-116097023D01*
X144218647Y-116067219D01*
X144361909Y-116067219D01*
X144421517Y-116097023D01*
G37*
G36*
X145469137Y-116097024D02*
G01*
X145493806Y-116121692D01*
X145523611Y-116181302D01*
X145523611Y-116276945D01*
X145493806Y-116336554D01*
X145469137Y-116361222D01*
X145409528Y-116391028D01*
X145152183Y-116391028D01*
X145152183Y-116067219D01*
X145409528Y-116067219D01*
X145469137Y-116097024D01*
G37*
G36*
X137389631Y-116581504D02*
G01*
X137190926Y-116581504D01*
X137290278Y-116283446D01*
X137389631Y-116581504D01*
G37*
G36*
X145834722Y-117178330D02*
G01*
X132317263Y-117178330D01*
X132317263Y-116157695D01*
X132428374Y-116157695D01*
X132428374Y-116252933D01*
X132430295Y-116272442D01*
X132431670Y-116275762D01*
X132431925Y-116279346D01*
X132438931Y-116297654D01*
X132486550Y-116392892D01*
X132491835Y-116401288D01*
X132492846Y-116403728D01*
X132495099Y-116406474D01*
X132496993Y-116409482D01*
X132498987Y-116411211D01*
X132505282Y-116418882D01*
X132552901Y-116466500D01*
X132560567Y-116472792D01*
X132562300Y-116474790D01*
X132565308Y-116476683D01*
X132568054Y-116478937D01*
X132570494Y-116479947D01*
X132578891Y-116485233D01*
X132674128Y-116532852D01*
X132675556Y-116533398D01*
X132676136Y-116533828D01*
X132684312Y-116536749D01*
X132692437Y-116539858D01*
X132693157Y-116539909D01*
X132694596Y-116540423D01*
X132874421Y-116585379D01*
X132945328Y-116620833D01*
X132969997Y-116645501D01*
X132999802Y-116705111D01*
X132999802Y-116753135D01*
X132969997Y-116812743D01*
X132945328Y-116837413D01*
X132885719Y-116867219D01*
X132687457Y-116867219D01*
X132559997Y-116824732D01*
X132540881Y-116820385D01*
X132501961Y-116823151D01*
X132467062Y-116840601D01*
X132441497Y-116870077D01*
X132429159Y-116907093D01*
X132431925Y-116946013D01*
X132449375Y-116980912D01*
X132478851Y-117006477D01*
X132496751Y-117014468D01*
X132639608Y-117062087D01*
X132649280Y-117064286D01*
X132651722Y-117065298D01*
X132655259Y-117065646D01*
X132658723Y-117066434D01*
X132661357Y-117066246D01*
X132671231Y-117067219D01*
X132909326Y-117067219D01*
X132928835Y-117065298D01*
X132932155Y-117063922D01*
X132935739Y-117063668D01*
X132954047Y-117056662D01*
X133049285Y-117009043D01*
X133057680Y-117003758D01*
X133060122Y-117002747D01*
X133062869Y-117000491D01*
X133065875Y-116998600D01*
X133067605Y-116996605D01*
X133075275Y-116990310D01*
X133122894Y-116942690D01*
X133129186Y-116935023D01*
X133131183Y-116933292D01*
X133133076Y-116930284D01*
X133135331Y-116927537D01*
X133136342Y-116925095D01*
X133141626Y-116916701D01*
X133189245Y-116821464D01*
X133196251Y-116803155D01*
X133196505Y-116799571D01*
X133197881Y-116796251D01*
X133199802Y-116776742D01*
X133199802Y-116681504D01*
X133197881Y-116661995D01*
X133196505Y-116658674D01*
X133196251Y-116655091D01*
X133189245Y-116636782D01*
X133141626Y-116541545D01*
X133136340Y-116533148D01*
X133135330Y-116530708D01*
X133133076Y-116527962D01*
X133131183Y-116524954D01*
X133129185Y-116523221D01*
X133122893Y-116515555D01*
X133075275Y-116467936D01*
X133067604Y-116461641D01*
X133065875Y-116459647D01*
X133062867Y-116457753D01*
X133060121Y-116455500D01*
X133057681Y-116454489D01*
X133049285Y-116449204D01*
X132954047Y-116401585D01*
X132952620Y-116401039D01*
X132952040Y-116400609D01*
X132943863Y-116397687D01*
X132935739Y-116394579D01*
X132935016Y-116394527D01*
X132933579Y-116394014D01*
X132753754Y-116349057D01*
X132682847Y-116313604D01*
X132658179Y-116288935D01*
X132628374Y-116229325D01*
X132628374Y-116181302D01*
X132658179Y-116121692D01*
X132682847Y-116097023D01*
X132742457Y-116067219D01*
X132940718Y-116067219D01*
X133068179Y-116109706D01*
X133087294Y-116114053D01*
X133126214Y-116111287D01*
X133161113Y-116093837D01*
X133186678Y-116064361D01*
X133199017Y-116027345D01*
X133196250Y-115988425D01*
X133185647Y-115967219D01*
X133428374Y-115967219D01*
X133428374Y-116967219D01*
X133430295Y-116986728D01*
X133445227Y-117022776D01*
X133472817Y-117050366D01*
X133508865Y-117065298D01*
X133547883Y-117065298D01*
X133583931Y-117050366D01*
X133611521Y-117022776D01*
X133626453Y-116986728D01*
X133628374Y-116967219D01*
X133628374Y-115967219D01*
X133904564Y-115967219D01*
X133904564Y-116967219D01*
X133906485Y-116986728D01*
X133921417Y-117022776D01*
X133949007Y-117050366D01*
X133985055Y-117065298D01*
X134024073Y-117065298D01*
X134060121Y-117050366D01*
X134087711Y-117022776D01*
X134102643Y-116986728D01*
X134104564Y-116967219D01*
X134104564Y-116343775D01*
X134489168Y-117016833D01*
X134492086Y-117020943D01*
X134492845Y-117022776D01*
X134494711Y-117024642D01*
X134500515Y-117032818D01*
X134511031Y-117040962D01*
X134520435Y-117050366D01*
X134526322Y-117052804D01*
X134531364Y-117056709D01*
X134544196Y-117060208D01*
X134556483Y-117065298D01*
X134562859Y-117065298D01*
X134569008Y-117066975D01*
X134582201Y-117065298D01*
X134595501Y-117065298D01*
X134601389Y-117062858D01*
X134607714Y-117062055D01*
X134619263Y-117055454D01*
X134631549Y-117050366D01*
X134636056Y-117045858D01*
X134641591Y-117042696D01*
X134649735Y-117032179D01*
X134659139Y-117022776D01*
X134661577Y-117016888D01*
X134665482Y-117011847D01*
X134668981Y-116999014D01*
X134674071Y-116986728D01*
X134675053Y-116976750D01*
X134675748Y-116974204D01*
X134675497Y-116972236D01*
X134675992Y-116967219D01*
X134675992Y-116395790D01*
X134904564Y-116395790D01*
X134904564Y-116538647D01*
X134904899Y-116542049D01*
X134904682Y-116543508D01*
X134905761Y-116550805D01*
X134906485Y-116558156D01*
X134907049Y-116559519D01*
X134907550Y-116562901D01*
X134955169Y-116753376D01*
X134955682Y-116754813D01*
X134955734Y-116755536D01*
X134958842Y-116763660D01*
X134961764Y-116771837D01*
X134962194Y-116772417D01*
X134962740Y-116773844D01*
X135010359Y-116869082D01*
X135015641Y-116877474D01*
X135016654Y-116879918D01*
X135018910Y-116882667D01*
X135020802Y-116885672D01*
X135022796Y-116887401D01*
X135029091Y-116895071D01*
X135124329Y-116990311D01*
X135139482Y-117002747D01*
X135142801Y-117004122D01*
X135145517Y-117006477D01*
X135163417Y-117014468D01*
X135306274Y-117062087D01*
X135315946Y-117064286D01*
X135318388Y-117065298D01*
X135321925Y-117065646D01*
X135325389Y-117066434D01*
X135328023Y-117066246D01*
X135337897Y-117067219D01*
X135433135Y-117067219D01*
X135443008Y-117066246D01*
X135445642Y-117066434D01*
X135449105Y-117065646D01*
X135452644Y-117065298D01*
X135455086Y-117064286D01*
X135464758Y-117062087D01*
X135607614Y-117014468D01*
X135625515Y-117006477D01*
X135628230Y-117004122D01*
X135631550Y-117002747D01*
X135646703Y-116990310D01*
X135694322Y-116942690D01*
X135706759Y-116927537D01*
X135720206Y-116895071D01*
X135721690Y-116891489D01*
X135723611Y-116871980D01*
X135723611Y-116538647D01*
X135721690Y-116519138D01*
X135706758Y-116483090D01*
X135679168Y-116455500D01*
X135643120Y-116440568D01*
X135623611Y-116438647D01*
X135433135Y-116438647D01*
X135413626Y-116440568D01*
X135377578Y-116455500D01*
X135349988Y-116483090D01*
X135335056Y-116519138D01*
X135335056Y-116558156D01*
X135349988Y-116594204D01*
X135377578Y-116621794D01*
X135413626Y-116636726D01*
X135433135Y-116638647D01*
X135523611Y-116638647D01*
X135523611Y-116830559D01*
X135521972Y-116832197D01*
X135416908Y-116867219D01*
X135354123Y-116867219D01*
X135249058Y-116832197D01*
X135181988Y-116765127D01*
X135146534Y-116694218D01*
X135104564Y-116526337D01*
X135104564Y-116408100D01*
X135146534Y-116240218D01*
X135181987Y-116169312D01*
X135249059Y-116102240D01*
X135354123Y-116067219D01*
X135457147Y-116067219D01*
X135531270Y-116104281D01*
X135549579Y-116111287D01*
X135588499Y-116114053D01*
X135625515Y-116101714D01*
X135654992Y-116076149D01*
X135672441Y-116041251D01*
X135675206Y-116002331D01*
X135663503Y-115967219D01*
X135952183Y-115967219D01*
X135952183Y-116967219D01*
X135954104Y-116986728D01*
X135969036Y-117022776D01*
X135996626Y-117050366D01*
X136032674Y-117065298D01*
X136071692Y-117065298D01*
X136107740Y-117050366D01*
X136135330Y-117022776D01*
X136150262Y-116986728D01*
X136152183Y-116967219D01*
X136152183Y-116343775D01*
X136536787Y-117016833D01*
X136539705Y-117020943D01*
X136540464Y-117022776D01*
X136542330Y-117024642D01*
X136548134Y-117032818D01*
X136558650Y-117040962D01*
X136568054Y-117050366D01*
X136573941Y-117052804D01*
X136578983Y-117056709D01*
X136591815Y-117060208D01*
X136604102Y-117065298D01*
X136610478Y-117065298D01*
X136616627Y-117066975D01*
X136629820Y-117065298D01*
X136643120Y-117065298D01*
X136649008Y-117062858D01*
X136655333Y-117062055D01*
X136666882Y-117055454D01*
X136679168Y-117050366D01*
X136683675Y-117045858D01*
X136689210Y-117042696D01*
X136697354Y-117032179D01*
X136706758Y-117022776D01*
X136709196Y-117016888D01*
X136713101Y-117011847D01*
X136716600Y-116999014D01*
X136721690Y-116986728D01*
X136722672Y-116976750D01*
X136723367Y-116974204D01*
X136723116Y-116972236D01*
X136723611Y-116967219D01*
X136723611Y-116954712D01*
X136857730Y-116954712D01*
X136860496Y-116993632D01*
X136877946Y-117028531D01*
X136907422Y-117054096D01*
X136944438Y-117066434D01*
X136983358Y-117063668D01*
X137018257Y-117046218D01*
X137043822Y-117016742D01*
X137051813Y-116998842D01*
X137124259Y-116781504D01*
X137456297Y-116781504D01*
X137528743Y-116998841D01*
X137536734Y-117016742D01*
X137562299Y-117046218D01*
X137597198Y-117063667D01*
X137636118Y-117066434D01*
X137673134Y-117054095D01*
X137702610Y-117028530D01*
X137720060Y-116993631D01*
X137722826Y-116954711D01*
X137718479Y-116935596D01*
X137395687Y-115967219D01*
X137856945Y-115967219D01*
X137856945Y-116967219D01*
X137858866Y-116986728D01*
X137873798Y-117022776D01*
X137901388Y-117050366D01*
X137937436Y-117065298D01*
X137956945Y-117067219D01*
X138433135Y-117067219D01*
X138452644Y-117065298D01*
X138488692Y-117050366D01*
X138516282Y-117022776D01*
X138531214Y-116986728D01*
X138531214Y-116947710D01*
X138516282Y-116911662D01*
X138488692Y-116884072D01*
X138452644Y-116869140D01*
X138433135Y-116867219D01*
X138056945Y-116867219D01*
X138056945Y-115967219D01*
X139428374Y-115967219D01*
X139428374Y-116967219D01*
X139430295Y-116986728D01*
X139445227Y-117022776D01*
X139472817Y-117050366D01*
X139508865Y-117065298D01*
X139547883Y-117065298D01*
X139583931Y-117050366D01*
X139611521Y-117022776D01*
X139626453Y-116986728D01*
X139628374Y-116967219D01*
X139628374Y-116417975D01*
X139771089Y-116723793D01*
X139775321Y-116730938D01*
X139776201Y-116733356D01*
X139777766Y-116735065D01*
X139781080Y-116740659D01*
X139792290Y-116750925D01*
X139802552Y-116762131D01*
X139806577Y-116764009D01*
X139809855Y-116767011D01*
X139824137Y-116772204D01*
X139837910Y-116778632D01*
X139842349Y-116778827D01*
X139846524Y-116780345D01*
X139861707Y-116779677D01*
X139876890Y-116780345D01*
X139881063Y-116778827D01*
X139885505Y-116778632D01*
X139899289Y-116772199D01*
X139913559Y-116767010D01*
X139916832Y-116764012D01*
X139920862Y-116762132D01*
X139931131Y-116750917D01*
X139942334Y-116740659D01*
X139945645Y-116735068D01*
X139947214Y-116733356D01*
X139948094Y-116730934D01*
X139952325Y-116723793D01*
X140095040Y-116417974D01*
X140095040Y-116967219D01*
X140096961Y-116986728D01*
X140111893Y-117022776D01*
X140139483Y-117050366D01*
X140175531Y-117065298D01*
X140214549Y-117065298D01*
X140250597Y-117050366D01*
X140278187Y-117022776D01*
X140293119Y-116986728D01*
X140295040Y-116967219D01*
X140295040Y-116300552D01*
X140523612Y-116300552D01*
X140523612Y-116633885D01*
X140523947Y-116637287D01*
X140523730Y-116638746D01*
X140524809Y-116646043D01*
X140525533Y-116653394D01*
X140526097Y-116654757D01*
X140526598Y-116658139D01*
X140574217Y-116848614D01*
X140580812Y-116867075D01*
X140585237Y-116873047D01*
X140588083Y-116879918D01*
X140600520Y-116895071D01*
X140695758Y-116990311D01*
X140703426Y-116996604D01*
X140705157Y-116998600D01*
X140708164Y-117000493D01*
X140710911Y-117002747D01*
X140713351Y-117003757D01*
X140721748Y-117009043D01*
X140816985Y-117056662D01*
X140835294Y-117063668D01*
X140838877Y-117063922D01*
X140842198Y-117065298D01*
X140861707Y-117067219D01*
X141052183Y-117067219D01*
X141071692Y-117065298D01*
X141075012Y-117063922D01*
X141078596Y-117063668D01*
X141096904Y-117056662D01*
X141192142Y-117009043D01*
X141200537Y-117003758D01*
X141202979Y-117002747D01*
X141205726Y-117000491D01*
X141208732Y-116998600D01*
X141210462Y-116996605D01*
X141218132Y-116990310D01*
X141313370Y-116895071D01*
X141325807Y-116879918D01*
X141328652Y-116873047D01*
X141333078Y-116867075D01*
X141339673Y-116848615D01*
X141387292Y-116658139D01*
X141387792Y-116654757D01*
X141388357Y-116653394D01*
X141389080Y-116646043D01*
X141390160Y-116638746D01*
X141389942Y-116637287D01*
X141390278Y-116633885D01*
X141390278Y-116300552D01*
X141389942Y-116297149D01*
X141390160Y-116295691D01*
X141389080Y-116288393D01*
X141388357Y-116281043D01*
X141387792Y-116279679D01*
X141387292Y-116276298D01*
X141339673Y-116085822D01*
X141333078Y-116067362D01*
X141328651Y-116061387D01*
X141325806Y-116054519D01*
X141313370Y-116039365D01*
X141241224Y-115967219D01*
X141618850Y-115967219D01*
X141618850Y-116967219D01*
X141620771Y-116986728D01*
X141635703Y-117022776D01*
X141663293Y-117050366D01*
X141699341Y-117065298D01*
X141738359Y-117065298D01*
X141774407Y-117050366D01*
X141801997Y-117022776D01*
X141816929Y-116986728D01*
X141818850Y-116967219D01*
X141818850Y-116343775D01*
X142203454Y-117016833D01*
X142206372Y-117020943D01*
X142207131Y-117022776D01*
X142208997Y-117024642D01*
X142214801Y-117032818D01*
X142225317Y-117040962D01*
X142234721Y-117050366D01*
X142240608Y-117052804D01*
X142245650Y-117056709D01*
X142258482Y-117060208D01*
X142270769Y-117065298D01*
X142277145Y-117065298D01*
X142283294Y-117066975D01*
X142296487Y-117065298D01*
X142309787Y-117065298D01*
X142315675Y-117062858D01*
X142322000Y-117062055D01*
X142333549Y-117055454D01*
X142345835Y-117050366D01*
X142350342Y-117045858D01*
X142355877Y-117042696D01*
X142364021Y-117032179D01*
X142373425Y-117022776D01*
X142375863Y-117016888D01*
X142379768Y-117011847D01*
X142383267Y-116999014D01*
X142388357Y-116986728D01*
X142389339Y-116976750D01*
X142390034Y-116974204D01*
X142389783Y-116972236D01*
X142390278Y-116967219D01*
X142390278Y-115967219D01*
X142666469Y-115967219D01*
X142666469Y-116967219D01*
X142668390Y-116986728D01*
X142683322Y-117022776D01*
X142710912Y-117050366D01*
X142746960Y-117065298D01*
X142785978Y-117065298D01*
X142822026Y-117050366D01*
X142849616Y-117022776D01*
X142864548Y-116986728D01*
X142866469Y-116967219D01*
X142866469Y-115967219D01*
X142864548Y-115947710D01*
X143001723Y-115947710D01*
X143001723Y-115986728D01*
X143016655Y-116022776D01*
X143044245Y-116050366D01*
X143080293Y-116065298D01*
X143099802Y-116067219D01*
X143285516Y-116067219D01*
X143285516Y-116967219D01*
X143287437Y-116986728D01*
X143302369Y-117022776D01*
X143329959Y-117050366D01*
X143366007Y-117065298D01*
X143405025Y-117065298D01*
X143441073Y-117050366D01*
X143468663Y-117022776D01*
X143483595Y-116986728D01*
X143485516Y-116967219D01*
X143485516Y-116300552D01*
X143856945Y-116300552D01*
X143856945Y-116633885D01*
X143857280Y-116637287D01*
X143857063Y-116638746D01*
X143858142Y-116646043D01*
X143858866Y-116653394D01*
X143859430Y-116654757D01*
X143859931Y-116658139D01*
X143907550Y-116848614D01*
X143914145Y-116867075D01*
X143918570Y-116873047D01*
X143921416Y-116879918D01*
X143933853Y-116895071D01*
X144029091Y-116990311D01*
X144036759Y-116996604D01*
X144038490Y-116998600D01*
X144041497Y-117000493D01*
X144044244Y-117002747D01*
X144046684Y-117003757D01*
X144055081Y-117009043D01*
X144150318Y-117056662D01*
X144168627Y-117063668D01*
X144172210Y-117063922D01*
X144175531Y-117065298D01*
X144195040Y-117067219D01*
X144385516Y-117067219D01*
X144405025Y-117065298D01*
X144408345Y-117063922D01*
X144411929Y-117063668D01*
X144430237Y-117056662D01*
X144525475Y-117009043D01*
X144533870Y-117003758D01*
X144536312Y-117002747D01*
X144539059Y-117000491D01*
X144542065Y-116998600D01*
X144543795Y-116996605D01*
X144551465Y-116990310D01*
X144646703Y-116895071D01*
X144659140Y-116879918D01*
X144661985Y-116873047D01*
X144666411Y-116867075D01*
X144673006Y-116848615D01*
X144720625Y-116658139D01*
X144721125Y-116654757D01*
X144721690Y-116653394D01*
X144722413Y-116646043D01*
X144723493Y-116638746D01*
X144723275Y-116637287D01*
X144723611Y-116633885D01*
X144723611Y-116300552D01*
X144723275Y-116297149D01*
X144723493Y-116295691D01*
X144722413Y-116288393D01*
X144721690Y-116281043D01*
X144721125Y-116279679D01*
X144720625Y-116276298D01*
X144673006Y-116085822D01*
X144666411Y-116067362D01*
X144661984Y-116061387D01*
X144659139Y-116054519D01*
X144646703Y-116039365D01*
X144574557Y-115967219D01*
X144952183Y-115967219D01*
X144952183Y-116967219D01*
X144954104Y-116986728D01*
X144969036Y-117022776D01*
X144996626Y-117050366D01*
X145032674Y-117065298D01*
X145071692Y-117065298D01*
X145107740Y-117050366D01*
X145135330Y-117022776D01*
X145150262Y-116986728D01*
X145152183Y-116967219D01*
X145152183Y-116591028D01*
X145238213Y-116591028D01*
X145541688Y-117024565D01*
X145554449Y-117039446D01*
X145587354Y-117060415D01*
X145625779Y-117067196D01*
X145663873Y-117058756D01*
X145695838Y-117036381D01*
X145716807Y-117003476D01*
X145723588Y-116965052D01*
X145715148Y-116926957D01*
X145705534Y-116909873D01*
X145475566Y-116581347D01*
X145477856Y-116580471D01*
X145573094Y-116532852D01*
X145581490Y-116527566D01*
X145583930Y-116526556D01*
X145586676Y-116524302D01*
X145589684Y-116522409D01*
X145591413Y-116520414D01*
X145599084Y-116514120D01*
X145646702Y-116466501D01*
X145652994Y-116458834D01*
X145654992Y-116457102D01*
X145656885Y-116454093D01*
X145659139Y-116451348D01*
X145660149Y-116448907D01*
X145665435Y-116440511D01*
X145713054Y-116345274D01*
X145720060Y-116326965D01*
X145720314Y-116323381D01*
X145721690Y-116320061D01*
X145723611Y-116300552D01*
X145723611Y-116157695D01*
X145721690Y-116138186D01*
X145720314Y-116134865D01*
X145720060Y-116131282D01*
X145713054Y-116112973D01*
X145665435Y-116017736D01*
X145660149Y-116009339D01*
X145659139Y-116006899D01*
X145656885Y-116004153D01*
X145654992Y-116001145D01*
X145652994Y-115999412D01*
X145646702Y-115991746D01*
X145599084Y-115944127D01*
X145591413Y-115937832D01*
X145589684Y-115935838D01*
X145586676Y-115933944D01*
X145583930Y-115931691D01*
X145581490Y-115930680D01*
X145573094Y-115925395D01*
X145477856Y-115877776D01*
X145459548Y-115870770D01*
X145455964Y-115870515D01*
X145452644Y-115869140D01*
X145433135Y-115867219D01*
X145052183Y-115867219D01*
X145032674Y-115869140D01*
X144996626Y-115884072D01*
X144969036Y-115911662D01*
X144954104Y-115947710D01*
X144952183Y-115967219D01*
X144574557Y-115967219D01*
X144551465Y-115944127D01*
X144543794Y-115937832D01*
X144542065Y-115935838D01*
X144539057Y-115933944D01*
X144536311Y-115931691D01*
X144533871Y-115930680D01*
X144525475Y-115925395D01*
X144430237Y-115877776D01*
X144411929Y-115870770D01*
X144408345Y-115870515D01*
X144405025Y-115869140D01*
X144385516Y-115867219D01*
X144195040Y-115867219D01*
X144175531Y-115869140D01*
X144172210Y-115870515D01*
X144168627Y-115870770D01*
X144150318Y-115877776D01*
X144055081Y-115925395D01*
X144046682Y-115930681D01*
X144044245Y-115931691D01*
X144041501Y-115933942D01*
X144038490Y-115935838D01*
X144036757Y-115937835D01*
X144029091Y-115944127D01*
X143933853Y-116039365D01*
X143921417Y-116054519D01*
X143918571Y-116061387D01*
X143914145Y-116067362D01*
X143907550Y-116085823D01*
X143859931Y-116276298D01*
X143859430Y-116279679D01*
X143858866Y-116281043D01*
X143858142Y-116288393D01*
X143857063Y-116295691D01*
X143857280Y-116297149D01*
X143856945Y-116300552D01*
X143485516Y-116300552D01*
X143485516Y-116067219D01*
X143671230Y-116067219D01*
X143690739Y-116065298D01*
X143726787Y-116050366D01*
X143754377Y-116022776D01*
X143769309Y-115986728D01*
X143769309Y-115947710D01*
X143754377Y-115911662D01*
X143726787Y-115884072D01*
X143690739Y-115869140D01*
X143671230Y-115867219D01*
X143099802Y-115867219D01*
X143080293Y-115869140D01*
X143044245Y-115884072D01*
X143016655Y-115911662D01*
X143001723Y-115947710D01*
X142864548Y-115947710D01*
X142849616Y-115911662D01*
X142822026Y-115884072D01*
X142785978Y-115869140D01*
X142746960Y-115869140D01*
X142710912Y-115884072D01*
X142683322Y-115911662D01*
X142668390Y-115947710D01*
X142666469Y-115967219D01*
X142390278Y-115967219D01*
X142388357Y-115947710D01*
X142373425Y-115911662D01*
X142345835Y-115884072D01*
X142309787Y-115869140D01*
X142270769Y-115869140D01*
X142234721Y-115884072D01*
X142207131Y-115911662D01*
X142192199Y-115947710D01*
X142190278Y-115967219D01*
X142190278Y-116590662D01*
X141805674Y-115917605D01*
X141802755Y-115913494D01*
X141801997Y-115911662D01*
X141800130Y-115909795D01*
X141794327Y-115901620D01*
X141783812Y-115893477D01*
X141774407Y-115884072D01*
X141768516Y-115881632D01*
X141763478Y-115877730D01*
X141750649Y-115874231D01*
X141738359Y-115869140D01*
X141731984Y-115869140D01*
X141725835Y-115867463D01*
X141712642Y-115869140D01*
X141699341Y-115869140D01*
X141693452Y-115871579D01*
X141687128Y-115872383D01*
X141675578Y-115878983D01*
X141663293Y-115884072D01*
X141658785Y-115888579D01*
X141653251Y-115891742D01*
X141645108Y-115902256D01*
X141635703Y-115911662D01*
X141633263Y-115917552D01*
X141629361Y-115922591D01*
X141625862Y-115935419D01*
X141620771Y-115947710D01*
X141619788Y-115957687D01*
X141619094Y-115960234D01*
X141619344Y-115962201D01*
X141618850Y-115967219D01*
X141241224Y-115967219D01*
X141218132Y-115944127D01*
X141210461Y-115937832D01*
X141208732Y-115935838D01*
X141205724Y-115933944D01*
X141202978Y-115931691D01*
X141200538Y-115930680D01*
X141192142Y-115925395D01*
X141096904Y-115877776D01*
X141078596Y-115870770D01*
X141075012Y-115870515D01*
X141071692Y-115869140D01*
X141052183Y-115867219D01*
X140861707Y-115867219D01*
X140842198Y-115869140D01*
X140838877Y-115870515D01*
X140835294Y-115870770D01*
X140816985Y-115877776D01*
X140721748Y-115925395D01*
X140713349Y-115930681D01*
X140710912Y-115931691D01*
X140708168Y-115933942D01*
X140705157Y-115935838D01*
X140703424Y-115937835D01*
X140695758Y-115944127D01*
X140600520Y-116039365D01*
X140588084Y-116054519D01*
X140585238Y-116061387D01*
X140580812Y-116067362D01*
X140574217Y-116085823D01*
X140526598Y-116276298D01*
X140526097Y-116279679D01*
X140525533Y-116281043D01*
X140524809Y-116288393D01*
X140523730Y-116295691D01*
X140523947Y-116297149D01*
X140523612Y-116300552D01*
X140295040Y-116300552D01*
X140295040Y-115967219D01*
X140293777Y-115954395D01*
X140293881Y-115952036D01*
X140293420Y-115950768D01*
X140293119Y-115947710D01*
X140286478Y-115931679D01*
X140280547Y-115915367D01*
X140279040Y-115913721D01*
X140278187Y-115911662D01*
X140265925Y-115899400D01*
X140254195Y-115886591D01*
X140252171Y-115885646D01*
X140250597Y-115884072D01*
X140234581Y-115877437D01*
X140218838Y-115870091D01*
X140216608Y-115869993D01*
X140214549Y-115869140D01*
X140197197Y-115869140D01*
X140179857Y-115868378D01*
X140177761Y-115869140D01*
X140175531Y-115869140D01*
X140159500Y-115875780D01*
X140143188Y-115881712D01*
X140141542Y-115883218D01*
X140139483Y-115884072D01*
X140127215Y-115896339D01*
X140114413Y-115908064D01*
X140112846Y-115910708D01*
X140111893Y-115911662D01*
X140110989Y-115913843D01*
X140104422Y-115924930D01*
X139861706Y-116445033D01*
X139618992Y-115924930D01*
X139612424Y-115913843D01*
X139611521Y-115911662D01*
X139610567Y-115910708D01*
X139609001Y-115908064D01*
X139596204Y-115896345D01*
X139583931Y-115884072D01*
X139581869Y-115883218D01*
X139580226Y-115881713D01*
X139563924Y-115875784D01*
X139547883Y-115869140D01*
X139545652Y-115869140D01*
X139543557Y-115868378D01*
X139526217Y-115869140D01*
X139508865Y-115869140D01*
X139506805Y-115869993D01*
X139504577Y-115870091D01*
X139488846Y-115877432D01*
X139472817Y-115884072D01*
X139471240Y-115885648D01*
X139469219Y-115886592D01*
X139457500Y-115899388D01*
X139445227Y-115911662D01*
X139444373Y-115913723D01*
X139442868Y-115915367D01*
X139436939Y-115931668D01*
X139430295Y-115947710D01*
X139429993Y-115950768D01*
X139429533Y-115952036D01*
X139429636Y-115954395D01*
X139428374Y-115967219D01*
X138056945Y-115967219D01*
X138055024Y-115947710D01*
X138040092Y-115911662D01*
X138012502Y-115884072D01*
X137976454Y-115869140D01*
X137937436Y-115869140D01*
X137901388Y-115884072D01*
X137873798Y-115911662D01*
X137858866Y-115947710D01*
X137856945Y-115967219D01*
X137395687Y-115967219D01*
X137385146Y-115935596D01*
X137377155Y-115917696D01*
X137372470Y-115912294D01*
X137369277Y-115905908D01*
X137359808Y-115897695D01*
X137351590Y-115888220D01*
X137345198Y-115885023D01*
X137339801Y-115880343D01*
X137327907Y-115876378D01*
X137316691Y-115870770D01*
X137309563Y-115870263D01*
X137302785Y-115868004D01*
X137290280Y-115868893D01*
X137277771Y-115868004D01*
X137270989Y-115870264D01*
X137263865Y-115870771D01*
X137252656Y-115876374D01*
X137240755Y-115880342D01*
X137235354Y-115885025D01*
X137228966Y-115888220D01*
X137220750Y-115897691D01*
X137211279Y-115905907D01*
X137208084Y-115912296D01*
X137203401Y-115917696D01*
X137195410Y-115935597D01*
X136862077Y-116935596D01*
X136857730Y-116954712D01*
X136723611Y-116954712D01*
X136723611Y-115967219D01*
X136721690Y-115947710D01*
X136706758Y-115911662D01*
X136679168Y-115884072D01*
X136643120Y-115869140D01*
X136604102Y-115869140D01*
X136568054Y-115884072D01*
X136540464Y-115911662D01*
X136525532Y-115947710D01*
X136523611Y-115967219D01*
X136523611Y-116590662D01*
X136139007Y-115917605D01*
X136136088Y-115913494D01*
X136135330Y-115911662D01*
X136133463Y-115909795D01*
X136127660Y-115901620D01*
X136117145Y-115893477D01*
X136107740Y-115884072D01*
X136101849Y-115881632D01*
X136096811Y-115877730D01*
X136083982Y-115874231D01*
X136071692Y-115869140D01*
X136065317Y-115869140D01*
X136059168Y-115867463D01*
X136045975Y-115869140D01*
X136032674Y-115869140D01*
X136026785Y-115871579D01*
X136020461Y-115872383D01*
X136008911Y-115878983D01*
X135996626Y-115884072D01*
X135992118Y-115888579D01*
X135986584Y-115891742D01*
X135978441Y-115902256D01*
X135969036Y-115911662D01*
X135966596Y-115917552D01*
X135962694Y-115922591D01*
X135959195Y-115935419D01*
X135954104Y-115947710D01*
X135953121Y-115957687D01*
X135952427Y-115960234D01*
X135952677Y-115962201D01*
X135952183Y-115967219D01*
X135663503Y-115967219D01*
X135662868Y-115965315D01*
X135637303Y-115935838D01*
X135620713Y-115925395D01*
X135525475Y-115877776D01*
X135507167Y-115870770D01*
X135503583Y-115870515D01*
X135500263Y-115869140D01*
X135480754Y-115867219D01*
X135337897Y-115867219D01*
X135328023Y-115868191D01*
X135325389Y-115868004D01*
X135321925Y-115868791D01*
X135318388Y-115869140D01*
X135315946Y-115870151D01*
X135306274Y-115872351D01*
X135163417Y-115919970D01*
X135145517Y-115927961D01*
X135142801Y-115930316D01*
X135139483Y-115931691D01*
X135124329Y-115944127D01*
X135029091Y-116039365D01*
X135022796Y-116047035D01*
X135020802Y-116048765D01*
X135018908Y-116051772D01*
X135016655Y-116054519D01*
X135015644Y-116056958D01*
X135010359Y-116065355D01*
X134962740Y-116160593D01*
X134962194Y-116162019D01*
X134961764Y-116162600D01*
X134958842Y-116170776D01*
X134955734Y-116178901D01*
X134955682Y-116179623D01*
X134955169Y-116181061D01*
X134907550Y-116371536D01*
X134907049Y-116374917D01*
X134906485Y-116376281D01*
X134905761Y-116383631D01*
X134904682Y-116390929D01*
X134904899Y-116392387D01*
X134904564Y-116395790D01*
X134675992Y-116395790D01*
X134675992Y-115967219D01*
X134674071Y-115947710D01*
X134659139Y-115911662D01*
X134631549Y-115884072D01*
X134595501Y-115869140D01*
X134556483Y-115869140D01*
X134520435Y-115884072D01*
X134492845Y-115911662D01*
X134477913Y-115947710D01*
X134475992Y-115967219D01*
X134475992Y-116590662D01*
X134091388Y-115917605D01*
X134088469Y-115913494D01*
X134087711Y-115911662D01*
X134085844Y-115909795D01*
X134080041Y-115901620D01*
X134069526Y-115893477D01*
X134060121Y-115884072D01*
X134054230Y-115881632D01*
X134049192Y-115877730D01*
X134036363Y-115874231D01*
X134024073Y-115869140D01*
X134017698Y-115869140D01*
X134011549Y-115867463D01*
X133998356Y-115869140D01*
X133985055Y-115869140D01*
X133979166Y-115871579D01*
X133972842Y-115872383D01*
X133961292Y-115878983D01*
X133949007Y-115884072D01*
X133944499Y-115888579D01*
X133938965Y-115891742D01*
X133930822Y-115902256D01*
X133921417Y-115911662D01*
X133918977Y-115917552D01*
X133915075Y-115922591D01*
X133911576Y-115935419D01*
X133906485Y-115947710D01*
X133905502Y-115957687D01*
X133904808Y-115960234D01*
X133905058Y-115962201D01*
X133904564Y-115967219D01*
X133628374Y-115967219D01*
X133626453Y-115947710D01*
X133611521Y-115911662D01*
X133583931Y-115884072D01*
X133547883Y-115869140D01*
X133508865Y-115869140D01*
X133472817Y-115884072D01*
X133445227Y-115911662D01*
X133430295Y-115947710D01*
X133428374Y-115967219D01*
X133185647Y-115967219D01*
X133178801Y-115953526D01*
X133149325Y-115927961D01*
X133131424Y-115919970D01*
X132988568Y-115872351D01*
X132978896Y-115870151D01*
X132976454Y-115869140D01*
X132972915Y-115868791D01*
X132969452Y-115868004D01*
X132966818Y-115868191D01*
X132956945Y-115867219D01*
X132718850Y-115867219D01*
X132699341Y-115869140D01*
X132696020Y-115870515D01*
X132692437Y-115870770D01*
X132674128Y-115877776D01*
X132578891Y-115925395D01*
X132570494Y-115930680D01*
X132568054Y-115931691D01*
X132565308Y-115933944D01*
X132562300Y-115935838D01*
X132560567Y-115937835D01*
X132552901Y-115944128D01*
X132505282Y-115991746D01*
X132498987Y-115999416D01*
X132496993Y-116001146D01*
X132495099Y-116004153D01*
X132492846Y-116006900D01*
X132491835Y-116009339D01*
X132486550Y-116017736D01*
X132438931Y-116112974D01*
X132431925Y-116131282D01*
X132431670Y-116134865D01*
X132430295Y-116138186D01*
X132428374Y-116157695D01*
X132317263Y-116157695D01*
X132317263Y-115756108D01*
X145834722Y-115756108D01*
X145834722Y-117178330D01*
G37*
G36*
X162978255Y-116077023D02*
G01*
X163042434Y-116141202D01*
X163080349Y-116292861D01*
X163080349Y-116601575D01*
X163042433Y-116753235D01*
X162978257Y-116817413D01*
X162918647Y-116847219D01*
X162775385Y-116847219D01*
X162715775Y-116817414D01*
X162651598Y-116753236D01*
X162613683Y-116601575D01*
X162613683Y-116292862D01*
X162651598Y-116141202D01*
X162715777Y-116077023D01*
X162775385Y-116047219D01*
X162918647Y-116047219D01*
X162978255Y-116077023D01*
G37*
G36*
X166073494Y-116077024D02*
G01*
X166098163Y-116101692D01*
X166127968Y-116161302D01*
X166127968Y-116256945D01*
X166098163Y-116316554D01*
X166073494Y-116341222D01*
X166013885Y-116371028D01*
X165756540Y-116371028D01*
X165756540Y-116047219D01*
X166013885Y-116047219D01*
X166073494Y-116077024D01*
G37*
G36*
X161978256Y-116077024D02*
G01*
X162002925Y-116101692D01*
X162032730Y-116161302D01*
X162032730Y-116256945D01*
X162002925Y-116316554D01*
X161978256Y-116341222D01*
X161918647Y-116371028D01*
X161661302Y-116371028D01*
X161661302Y-116047219D01*
X161918647Y-116047219D01*
X161978256Y-116077024D01*
G37*
G36*
X170722869Y-117158330D02*
G01*
X157161637Y-117158330D01*
X157161637Y-116880091D01*
X159701319Y-116880091D01*
X159701319Y-116919109D01*
X159703369Y-116924057D01*
X159716251Y-116955158D01*
X159716255Y-116955162D01*
X159728687Y-116970311D01*
X159776306Y-117017929D01*
X159791459Y-117030366D01*
X159800462Y-117034095D01*
X159827508Y-117045298D01*
X159866526Y-117045298D01*
X159902574Y-117030366D01*
X159917728Y-117017930D01*
X159965346Y-116970311D01*
X159977783Y-116955158D01*
X159983731Y-116940798D01*
X159992714Y-116919110D01*
X159992715Y-116880092D01*
X159977784Y-116844043D01*
X159965347Y-116828890D01*
X159917728Y-116781270D01*
X159902575Y-116768833D01*
X159887643Y-116762648D01*
X159866526Y-116753901D01*
X159827508Y-116753901D01*
X159816950Y-116758274D01*
X159791460Y-116768832D01*
X159791459Y-116768833D01*
X159776305Y-116781270D01*
X159728687Y-116828890D01*
X159716250Y-116844043D01*
X159712963Y-116851980D01*
X159701319Y-116880091D01*
X157161637Y-116880091D01*
X157161637Y-116546757D01*
X157272748Y-116546757D01*
X157272748Y-116585775D01*
X157287680Y-116621823D01*
X157315270Y-116649413D01*
X157351318Y-116664345D01*
X157370827Y-116666266D01*
X158132732Y-116666266D01*
X158152241Y-116664345D01*
X158188289Y-116649413D01*
X158215879Y-116621823D01*
X158230811Y-116585775D01*
X158230811Y-116546757D01*
X158510843Y-116546757D01*
X158510843Y-116585775D01*
X158525775Y-116621823D01*
X158553365Y-116649413D01*
X158589413Y-116664345D01*
X158608922Y-116666266D01*
X159370827Y-116666266D01*
X159390336Y-116664345D01*
X159426384Y-116649413D01*
X159453974Y-116621823D01*
X159468906Y-116585775D01*
X159468906Y-116546757D01*
X160225128Y-116546757D01*
X160225128Y-116585775D01*
X160240060Y-116621823D01*
X160267650Y-116649413D01*
X160303698Y-116664345D01*
X160323207Y-116666266D01*
X161085112Y-116666266D01*
X161104621Y-116664345D01*
X161140669Y-116649413D01*
X161168259Y-116621823D01*
X161183191Y-116585775D01*
X161183191Y-116546757D01*
X161168259Y-116510709D01*
X161140669Y-116483119D01*
X161104621Y-116468187D01*
X161085112Y-116466266D01*
X160323207Y-116466266D01*
X160303698Y-116468187D01*
X160267650Y-116483119D01*
X160240060Y-116510709D01*
X160225128Y-116546757D01*
X159468906Y-116546757D01*
X159453974Y-116510709D01*
X159426384Y-116483119D01*
X159390336Y-116468187D01*
X159370827Y-116466266D01*
X158608922Y-116466266D01*
X158589413Y-116468187D01*
X158553365Y-116483119D01*
X158525775Y-116510709D01*
X158510843Y-116546757D01*
X158230811Y-116546757D01*
X158215879Y-116510709D01*
X158188289Y-116483119D01*
X158152241Y-116468187D01*
X158132732Y-116466266D01*
X157370827Y-116466266D01*
X157351318Y-116468187D01*
X157315270Y-116483119D01*
X157287680Y-116510709D01*
X157272748Y-116546757D01*
X157161637Y-116546757D01*
X157161637Y-115947219D01*
X161461302Y-115947219D01*
X161461302Y-116947219D01*
X161463223Y-116966728D01*
X161478155Y-117002776D01*
X161505745Y-117030366D01*
X161541793Y-117045298D01*
X161580811Y-117045298D01*
X161616859Y-117030366D01*
X161644449Y-117002776D01*
X161659381Y-116966728D01*
X161661302Y-116947219D01*
X161661302Y-116571028D01*
X161942254Y-116571028D01*
X161961763Y-116569107D01*
X161965083Y-116567731D01*
X161968667Y-116567477D01*
X161986975Y-116560471D01*
X162082213Y-116512852D01*
X162090609Y-116507566D01*
X162093049Y-116506556D01*
X162095795Y-116504302D01*
X162098803Y-116502409D01*
X162100532Y-116500414D01*
X162108203Y-116494120D01*
X162155821Y-116446501D01*
X162162113Y-116438834D01*
X162164111Y-116437102D01*
X162166004Y-116434093D01*
X162168258Y-116431348D01*
X162169268Y-116428907D01*
X162174554Y-116420511D01*
X162222173Y-116325274D01*
X162229179Y-116306965D01*
X162229433Y-116303381D01*
X162230809Y-116300061D01*
X162232730Y-116280552D01*
X162413683Y-116280552D01*
X162413683Y-116613885D01*
X162414018Y-116617287D01*
X162413801Y-116618746D01*
X162414880Y-116626043D01*
X162415604Y-116633394D01*
X162416168Y-116634757D01*
X162416669Y-116638139D01*
X162464288Y-116828614D01*
X162470883Y-116847075D01*
X162475308Y-116853047D01*
X162478154Y-116859918D01*
X162490591Y-116875071D01*
X162585829Y-116970311D01*
X162593497Y-116976604D01*
X162595228Y-116978600D01*
X162598235Y-116980493D01*
X162600982Y-116982747D01*
X162603422Y-116983757D01*
X162611819Y-116989043D01*
X162707056Y-117036662D01*
X162725365Y-117043668D01*
X162728948Y-117043922D01*
X162732269Y-117045298D01*
X162751778Y-117047219D01*
X162942254Y-117047219D01*
X162961763Y-117045298D01*
X162965083Y-117043922D01*
X162968667Y-117043668D01*
X162986975Y-117036662D01*
X163082213Y-116989043D01*
X163090608Y-116983758D01*
X163093050Y-116982747D01*
X163095797Y-116980491D01*
X163098803Y-116978600D01*
X163100533Y-116976605D01*
X163108203Y-116970310D01*
X163203441Y-116875071D01*
X163215878Y-116859918D01*
X163218723Y-116853047D01*
X163223149Y-116847075D01*
X163229744Y-116828615D01*
X163277363Y-116638139D01*
X163277863Y-116634757D01*
X163278428Y-116633394D01*
X163279151Y-116626043D01*
X163280231Y-116618746D01*
X163280013Y-116617287D01*
X163280349Y-116613885D01*
X163280349Y-116280552D01*
X163280013Y-116277149D01*
X163280231Y-116275691D01*
X163279151Y-116268393D01*
X163278428Y-116261043D01*
X163277863Y-116259679D01*
X163277363Y-116256298D01*
X163229744Y-116065822D01*
X163223149Y-116047362D01*
X163218722Y-116041387D01*
X163215877Y-116034519D01*
X163203441Y-116019365D01*
X163135034Y-115950958D01*
X163413752Y-115950958D01*
X163416402Y-115970381D01*
X163654497Y-116970381D01*
X163656805Y-116977078D01*
X163657124Y-116979476D01*
X163658378Y-116981643D01*
X163660885Y-116988915D01*
X163669400Y-117000681D01*
X163676673Y-117013244D01*
X163680750Y-117016364D01*
X163683760Y-117020524D01*
X163696122Y-117028131D01*
X163707656Y-117036960D01*
X163712619Y-117038283D01*
X163716990Y-117040973D01*
X163731324Y-117043271D01*
X163745357Y-117047013D01*
X163750445Y-117046336D01*
X163755517Y-117047150D01*
X163769651Y-117043784D01*
X163784035Y-117041873D01*
X163788475Y-117039302D01*
X163793474Y-117038112D01*
X163805240Y-117029596D01*
X163817803Y-117022324D01*
X163820923Y-117018246D01*
X163825083Y-117015237D01*
X163832690Y-117002874D01*
X163841519Y-116991341D01*
X163844218Y-116984140D01*
X163845532Y-116982007D01*
X163845915Y-116979616D01*
X163848402Y-116972985D01*
X163942254Y-116621038D01*
X164036107Y-116972986D01*
X164038592Y-116979615D01*
X164038976Y-116982007D01*
X164040289Y-116984141D01*
X164042989Y-116991341D01*
X164051817Y-117002874D01*
X164059425Y-117015237D01*
X164063584Y-117018246D01*
X164066705Y-117022324D01*
X164079269Y-117029598D01*
X164091034Y-117038112D01*
X164096029Y-117039301D01*
X164100473Y-117041874D01*
X164114862Y-117043785D01*
X164128991Y-117047150D01*
X164134062Y-117046336D01*
X164139151Y-117047013D01*
X164153183Y-117043271D01*
X164167518Y-117040973D01*
X164171888Y-117038283D01*
X164176852Y-117036960D01*
X164188385Y-117028131D01*
X164200748Y-117020524D01*
X164203757Y-117016364D01*
X164207835Y-117013244D01*
X164215110Y-117000677D01*
X164223623Y-116988915D01*
X164226127Y-116981649D01*
X164227385Y-116979477D01*
X164227704Y-116977073D01*
X164230011Y-116970381D01*
X164468107Y-115970381D01*
X164470757Y-115950958D01*
X164470158Y-115947219D01*
X164651778Y-115947219D01*
X164651778Y-116947219D01*
X164653699Y-116966728D01*
X164668631Y-117002776D01*
X164696221Y-117030366D01*
X164732269Y-117045298D01*
X164751778Y-117047219D01*
X165227968Y-117047219D01*
X165247477Y-117045298D01*
X165283525Y-117030366D01*
X165311115Y-117002776D01*
X165326047Y-116966728D01*
X165326047Y-116927710D01*
X165311115Y-116891662D01*
X165283525Y-116864072D01*
X165247477Y-116849140D01*
X165227968Y-116847219D01*
X164851778Y-116847219D01*
X164851778Y-116523409D01*
X165085111Y-116523409D01*
X165104620Y-116521488D01*
X165140668Y-116506556D01*
X165168258Y-116478966D01*
X165183190Y-116442918D01*
X165183190Y-116403900D01*
X165168258Y-116367852D01*
X165140668Y-116340262D01*
X165104620Y-116325330D01*
X165085111Y-116323409D01*
X164851778Y-116323409D01*
X164851778Y-116047219D01*
X165227968Y-116047219D01*
X165247477Y-116045298D01*
X165283525Y-116030366D01*
X165311115Y-116002776D01*
X165326047Y-115966728D01*
X165326047Y-115947219D01*
X165556540Y-115947219D01*
X165556540Y-116947219D01*
X165558461Y-116966728D01*
X165573393Y-117002776D01*
X165600983Y-117030366D01*
X165637031Y-117045298D01*
X165676049Y-117045298D01*
X165712097Y-117030366D01*
X165739687Y-117002776D01*
X165754619Y-116966728D01*
X165756540Y-116947219D01*
X165756540Y-116571028D01*
X165842570Y-116571028D01*
X166146045Y-117004565D01*
X166158806Y-117019446D01*
X166191711Y-117040415D01*
X166230136Y-117047196D01*
X166268230Y-117038756D01*
X166300195Y-117016381D01*
X166321164Y-116983476D01*
X166327945Y-116945052D01*
X166319505Y-116906957D01*
X166309891Y-116889873D01*
X166303044Y-116880091D01*
X166510842Y-116880091D01*
X166510842Y-116919109D01*
X166512892Y-116924057D01*
X166525774Y-116955158D01*
X166525778Y-116955162D01*
X166538210Y-116970311D01*
X166585829Y-117017929D01*
X166600982Y-117030366D01*
X166609985Y-117034095D01*
X166637031Y-117045298D01*
X166676049Y-117045298D01*
X166712097Y-117030366D01*
X166727251Y-117017930D01*
X166774869Y-116970311D01*
X166787306Y-116955158D01*
X166793254Y-116940798D01*
X166802237Y-116919110D01*
X166802238Y-116880092D01*
X166802238Y-116880091D01*
X166987032Y-116880091D01*
X166987032Y-116919109D01*
X166989082Y-116924057D01*
X167001964Y-116955158D01*
X167001968Y-116955162D01*
X167014400Y-116970311D01*
X167062019Y-117017929D01*
X167077172Y-117030366D01*
X167086175Y-117034095D01*
X167113221Y-117045298D01*
X167152239Y-117045298D01*
X167188287Y-117030366D01*
X167203441Y-117017930D01*
X167251059Y-116970311D01*
X167263496Y-116955158D01*
X167269444Y-116940798D01*
X167278427Y-116919110D01*
X167278428Y-116880092D01*
X167278428Y-116880091D01*
X167463222Y-116880091D01*
X167463222Y-116919109D01*
X167465272Y-116924057D01*
X167478154Y-116955158D01*
X167478158Y-116955162D01*
X167490590Y-116970311D01*
X167538209Y-117017929D01*
X167553362Y-117030366D01*
X167562365Y-117034095D01*
X167589411Y-117045298D01*
X167628429Y-117045298D01*
X167664477Y-117030366D01*
X167679631Y-117017930D01*
X167727249Y-116970311D01*
X167739686Y-116955158D01*
X167745634Y-116940798D01*
X167754617Y-116919110D01*
X167754618Y-116880092D01*
X167754618Y-116880091D01*
X167939412Y-116880091D01*
X167939412Y-116919109D01*
X167941462Y-116924057D01*
X167954344Y-116955158D01*
X167954348Y-116955162D01*
X167966780Y-116970311D01*
X168014399Y-117017929D01*
X168029552Y-117030366D01*
X168038555Y-117034095D01*
X168065601Y-117045298D01*
X168104619Y-117045298D01*
X168140667Y-117030366D01*
X168155821Y-117017930D01*
X168203439Y-116970311D01*
X168215876Y-116955158D01*
X168221824Y-116940798D01*
X168230807Y-116919110D01*
X168230808Y-116880092D01*
X168230808Y-116880091D01*
X168415602Y-116880091D01*
X168415602Y-116919109D01*
X168417652Y-116924057D01*
X168430534Y-116955158D01*
X168430538Y-116955162D01*
X168442970Y-116970311D01*
X168490589Y-117017929D01*
X168505742Y-117030366D01*
X168514745Y-117034095D01*
X168541791Y-117045298D01*
X168580809Y-117045298D01*
X168616857Y-117030366D01*
X168632011Y-117017930D01*
X168679629Y-116970311D01*
X168692066Y-116955158D01*
X168698014Y-116940798D01*
X168706997Y-116919110D01*
X168706998Y-116880092D01*
X168706998Y-116880091D01*
X168891792Y-116880091D01*
X168891792Y-116919109D01*
X168893842Y-116924057D01*
X168906724Y-116955158D01*
X168906728Y-116955162D01*
X168919160Y-116970311D01*
X168966779Y-117017929D01*
X168981932Y-117030366D01*
X168990935Y-117034095D01*
X169017981Y-117045298D01*
X169056999Y-117045298D01*
X169093047Y-117030366D01*
X169108201Y-117017930D01*
X169155819Y-116970311D01*
X169168256Y-116955158D01*
X169174204Y-116940798D01*
X169183187Y-116919110D01*
X169183188Y-116880092D01*
X169183188Y-116880091D01*
X169367982Y-116880091D01*
X169367982Y-116919109D01*
X169370032Y-116924057D01*
X169382914Y-116955158D01*
X169382918Y-116955162D01*
X169395350Y-116970311D01*
X169442969Y-117017929D01*
X169458122Y-117030366D01*
X169467125Y-117034095D01*
X169494171Y-117045298D01*
X169533189Y-117045298D01*
X169569237Y-117030366D01*
X169584391Y-117017930D01*
X169632009Y-116970311D01*
X169644446Y-116955158D01*
X169650394Y-116940798D01*
X169659377Y-116919110D01*
X169659378Y-116880092D01*
X169659378Y-116880091D01*
X169844172Y-116880091D01*
X169844172Y-116919109D01*
X169846222Y-116924057D01*
X169859104Y-116955158D01*
X169859108Y-116955162D01*
X169871540Y-116970311D01*
X169919159Y-117017929D01*
X169934312Y-117030366D01*
X169943315Y-117034095D01*
X169970361Y-117045298D01*
X170009379Y-117045298D01*
X170045427Y-117030366D01*
X170060581Y-117017930D01*
X170108199Y-116970311D01*
X170120636Y-116955158D01*
X170126584Y-116940798D01*
X170135567Y-116919110D01*
X170135568Y-116880092D01*
X170135568Y-116880091D01*
X170320362Y-116880091D01*
X170320362Y-116919109D01*
X170322412Y-116924057D01*
X170335294Y-116955158D01*
X170335298Y-116955162D01*
X170347730Y-116970311D01*
X170395349Y-117017929D01*
X170410502Y-117030366D01*
X170419505Y-117034095D01*
X170446551Y-117045298D01*
X170485569Y-117045298D01*
X170521617Y-117030366D01*
X170536771Y-117017930D01*
X170584389Y-116970311D01*
X170596826Y-116955158D01*
X170602774Y-116940798D01*
X170611757Y-116919110D01*
X170611758Y-116880092D01*
X170596827Y-116844043D01*
X170584390Y-116828890D01*
X170536771Y-116781270D01*
X170521618Y-116768833D01*
X170506686Y-116762648D01*
X170485569Y-116753901D01*
X170446551Y-116753901D01*
X170435993Y-116758274D01*
X170410503Y-116768832D01*
X170410502Y-116768833D01*
X170395348Y-116781270D01*
X170347730Y-116828890D01*
X170335293Y-116844043D01*
X170332006Y-116851980D01*
X170320362Y-116880091D01*
X170135568Y-116880091D01*
X170120637Y-116844043D01*
X170108200Y-116828890D01*
X170060581Y-116781270D01*
X170045428Y-116768833D01*
X170030496Y-116762648D01*
X170009379Y-116753901D01*
X169970361Y-116753901D01*
X169959803Y-116758274D01*
X169934313Y-116768832D01*
X169934312Y-116768833D01*
X169919158Y-116781270D01*
X169871540Y-116828890D01*
X169859103Y-116844043D01*
X169855816Y-116851980D01*
X169844172Y-116880091D01*
X169659378Y-116880091D01*
X169644447Y-116844043D01*
X169632010Y-116828890D01*
X169584391Y-116781270D01*
X169569238Y-116768833D01*
X169554306Y-116762648D01*
X169533189Y-116753901D01*
X169494171Y-116753901D01*
X169483613Y-116758274D01*
X169458123Y-116768832D01*
X169458122Y-116768833D01*
X169442968Y-116781270D01*
X169395350Y-116828890D01*
X169382913Y-116844043D01*
X169379626Y-116851980D01*
X169367982Y-116880091D01*
X169183188Y-116880091D01*
X169168257Y-116844043D01*
X169155820Y-116828890D01*
X169108201Y-116781270D01*
X169093048Y-116768833D01*
X169078116Y-116762648D01*
X169056999Y-116753901D01*
X169017981Y-116753901D01*
X169007423Y-116758274D01*
X168981933Y-116768832D01*
X168981932Y-116768833D01*
X168966778Y-116781270D01*
X168919160Y-116828890D01*
X168906723Y-116844043D01*
X168903436Y-116851980D01*
X168891792Y-116880091D01*
X168706998Y-116880091D01*
X168692067Y-116844043D01*
X168679630Y-116828890D01*
X168632011Y-116781270D01*
X168616858Y-116768833D01*
X168601926Y-116762648D01*
X168580809Y-116753901D01*
X168541791Y-116753901D01*
X168531233Y-116758274D01*
X168505743Y-116768832D01*
X168505742Y-116768833D01*
X168490588Y-116781270D01*
X168442970Y-116828890D01*
X168430533Y-116844043D01*
X168427246Y-116851980D01*
X168415602Y-116880091D01*
X168230808Y-116880091D01*
X168215877Y-116844043D01*
X168203440Y-116828890D01*
X168155821Y-116781270D01*
X168140668Y-116768833D01*
X168125736Y-116762648D01*
X168104619Y-116753901D01*
X168065601Y-116753901D01*
X168055043Y-116758274D01*
X168029553Y-116768832D01*
X168029552Y-116768833D01*
X168014398Y-116781270D01*
X167966780Y-116828890D01*
X167954343Y-116844043D01*
X167951056Y-116851980D01*
X167939412Y-116880091D01*
X167754618Y-116880091D01*
X167739687Y-116844043D01*
X167727250Y-116828890D01*
X167679631Y-116781270D01*
X167664478Y-116768833D01*
X167649546Y-116762648D01*
X167628429Y-116753901D01*
X167589411Y-116753901D01*
X167578853Y-116758274D01*
X167553363Y-116768832D01*
X167553362Y-116768833D01*
X167538208Y-116781270D01*
X167490590Y-116828890D01*
X167478153Y-116844043D01*
X167474866Y-116851980D01*
X167463222Y-116880091D01*
X167278428Y-116880091D01*
X167263497Y-116844043D01*
X167251060Y-116828890D01*
X167203441Y-116781270D01*
X167188288Y-116768833D01*
X167173356Y-116762648D01*
X167152239Y-116753901D01*
X167113221Y-116753901D01*
X167102663Y-116758274D01*
X167077173Y-116768832D01*
X167077172Y-116768833D01*
X167062018Y-116781270D01*
X167014400Y-116828890D01*
X167001963Y-116844043D01*
X166998676Y-116851980D01*
X166987032Y-116880091D01*
X166802238Y-116880091D01*
X166787307Y-116844043D01*
X166774870Y-116828890D01*
X166727251Y-116781270D01*
X166712098Y-116768833D01*
X166697166Y-116762648D01*
X166676049Y-116753901D01*
X166637031Y-116753901D01*
X166626473Y-116758274D01*
X166600983Y-116768832D01*
X166600982Y-116768833D01*
X166585828Y-116781270D01*
X166538210Y-116828890D01*
X166525773Y-116844043D01*
X166522486Y-116851980D01*
X166510842Y-116880091D01*
X166303044Y-116880091D01*
X166079923Y-116561347D01*
X166082213Y-116560471D01*
X166177451Y-116512852D01*
X166185847Y-116507566D01*
X166188287Y-116506556D01*
X166191033Y-116504302D01*
X166194041Y-116502409D01*
X166195770Y-116500414D01*
X166203441Y-116494120D01*
X166251059Y-116446501D01*
X166257351Y-116438834D01*
X166259349Y-116437102D01*
X166261242Y-116434093D01*
X166263496Y-116431348D01*
X166264506Y-116428907D01*
X166269792Y-116420511D01*
X166317411Y-116325274D01*
X166324417Y-116306965D01*
X166324671Y-116303381D01*
X166326047Y-116300061D01*
X166327968Y-116280552D01*
X166327968Y-116137695D01*
X166326047Y-116118186D01*
X166324671Y-116114865D01*
X166324417Y-116111282D01*
X166317411Y-116092973D01*
X166269792Y-115997736D01*
X166264506Y-115989339D01*
X166263496Y-115986899D01*
X166261242Y-115984153D01*
X166259349Y-115981145D01*
X166257351Y-115979412D01*
X166251059Y-115971746D01*
X166203441Y-115924127D01*
X166195770Y-115917832D01*
X166194041Y-115915838D01*
X166191033Y-115913944D01*
X166188287Y-115911691D01*
X166185847Y-115910680D01*
X166177451Y-115905395D01*
X166082213Y-115857776D01*
X166063905Y-115850770D01*
X166060321Y-115850515D01*
X166057001Y-115849140D01*
X166037492Y-115847219D01*
X165656540Y-115847219D01*
X165637031Y-115849140D01*
X165600983Y-115864072D01*
X165573393Y-115891662D01*
X165558461Y-115927710D01*
X165556540Y-115947219D01*
X165326047Y-115947219D01*
X165326047Y-115927710D01*
X165311115Y-115891662D01*
X165283525Y-115864072D01*
X165247477Y-115849140D01*
X165227968Y-115847219D01*
X164751778Y-115847219D01*
X164732269Y-115849140D01*
X164696221Y-115864072D01*
X164668631Y-115891662D01*
X164653699Y-115927710D01*
X164651778Y-115947219D01*
X164470158Y-115947219D01*
X164464580Y-115912432D01*
X164444131Y-115879201D01*
X164412522Y-115856326D01*
X164374565Y-115847289D01*
X164336038Y-115853465D01*
X164302808Y-115873914D01*
X164279933Y-115905523D01*
X164273545Y-115924057D01*
X164127241Y-116538530D01*
X164038878Y-116207167D01*
X164037164Y-116202596D01*
X164036909Y-116200675D01*
X164035588Y-116198393D01*
X164031995Y-116188811D01*
X164023970Y-116178328D01*
X164017359Y-116166908D01*
X164012215Y-116162971D01*
X164008279Y-116157828D01*
X163996861Y-116151218D01*
X163986376Y-116143192D01*
X163980112Y-116141521D01*
X163974511Y-116138279D01*
X163961433Y-116136541D01*
X163948675Y-116133139D01*
X163942253Y-116133992D01*
X163935833Y-116133139D01*
X163923079Y-116136539D01*
X163909997Y-116138278D01*
X163904392Y-116141522D01*
X163898132Y-116143192D01*
X163887648Y-116151216D01*
X163876229Y-116157828D01*
X163872292Y-116162971D01*
X163867149Y-116166908D01*
X163860539Y-116178325D01*
X163852513Y-116188811D01*
X163848917Y-116198399D01*
X163847600Y-116200676D01*
X163847345Y-116202594D01*
X163845631Y-116207166D01*
X163757266Y-116538530D01*
X163610964Y-115924057D01*
X163604576Y-115905523D01*
X163581701Y-115873914D01*
X163548471Y-115853465D01*
X163509944Y-115847288D01*
X163471987Y-115856326D01*
X163440378Y-115879201D01*
X163419929Y-115912431D01*
X163413752Y-115950958D01*
X163135034Y-115950958D01*
X163108203Y-115924127D01*
X163100532Y-115917832D01*
X163098803Y-115915838D01*
X163095795Y-115913944D01*
X163093049Y-115911691D01*
X163090609Y-115910680D01*
X163082213Y-115905395D01*
X162986975Y-115857776D01*
X162968667Y-115850770D01*
X162965083Y-115850515D01*
X162961763Y-115849140D01*
X162942254Y-115847219D01*
X162751778Y-115847219D01*
X162732269Y-115849140D01*
X162728948Y-115850515D01*
X162725365Y-115850770D01*
X162707056Y-115857776D01*
X162611819Y-115905395D01*
X162603420Y-115910681D01*
X162600983Y-115911691D01*
X162598239Y-115913942D01*
X162595228Y-115915838D01*
X162593495Y-115917835D01*
X162585829Y-115924127D01*
X162490591Y-116019365D01*
X162478155Y-116034519D01*
X162475309Y-116041387D01*
X162470883Y-116047362D01*
X162464288Y-116065823D01*
X162416669Y-116256298D01*
X162416168Y-116259679D01*
X162415604Y-116261043D01*
X162414880Y-116268393D01*
X162413801Y-116275691D01*
X162414018Y-116277149D01*
X162413683Y-116280552D01*
X162232730Y-116280552D01*
X162232730Y-116137695D01*
X162230809Y-116118186D01*
X162229433Y-116114865D01*
X162229179Y-116111282D01*
X162222173Y-116092973D01*
X162174554Y-115997736D01*
X162169268Y-115989339D01*
X162168258Y-115986899D01*
X162166004Y-115984153D01*
X162164111Y-115981145D01*
X162162113Y-115979412D01*
X162155821Y-115971746D01*
X162108203Y-115924127D01*
X162100532Y-115917832D01*
X162098803Y-115915838D01*
X162095795Y-115913944D01*
X162093049Y-115911691D01*
X162090609Y-115910680D01*
X162082213Y-115905395D01*
X161986975Y-115857776D01*
X161968667Y-115850770D01*
X161965083Y-115850515D01*
X161961763Y-115849140D01*
X161942254Y-115847219D01*
X161561302Y-115847219D01*
X161541793Y-115849140D01*
X161505745Y-115864072D01*
X161478155Y-115891662D01*
X161463223Y-115927710D01*
X161461302Y-115947219D01*
X157161637Y-115947219D01*
X157161637Y-115736108D01*
X170722869Y-115736108D01*
X170722869Y-117158330D01*
G37*
G36*
X163933236Y-97866337D02*
G01*
X163997414Y-97930514D01*
X164027219Y-97990124D01*
X164027219Y-98133386D01*
X163997414Y-98192995D01*
X163933236Y-98257172D01*
X163781575Y-98295088D01*
X163472861Y-98295088D01*
X163321202Y-98257173D01*
X163257023Y-98192994D01*
X163227219Y-98133385D01*
X163227219Y-97990124D01*
X163257023Y-97930515D01*
X163321202Y-97866336D01*
X163472861Y-97828422D01*
X163781575Y-97828422D01*
X163933236Y-97866337D01*
G37*
G36*
X163854218Y-96870392D02*
G01*
X163925127Y-96905846D01*
X163992197Y-96972916D01*
X164027219Y-97077981D01*
X164027219Y-97199850D01*
X163227219Y-97199850D01*
X163227219Y-97077982D01*
X163262240Y-96972917D01*
X163329313Y-96905845D01*
X163400218Y-96870392D01*
X163568099Y-96828422D01*
X163686337Y-96828422D01*
X163854218Y-96870392D01*
G37*
G36*
X163933236Y-88342527D02*
G01*
X163997414Y-88406704D01*
X164027219Y-88466314D01*
X164027219Y-88609576D01*
X163997414Y-88669185D01*
X163933236Y-88733362D01*
X163781575Y-88771278D01*
X163472861Y-88771278D01*
X163321202Y-88733363D01*
X163257023Y-88669184D01*
X163227219Y-88609575D01*
X163227219Y-88466314D01*
X163257023Y-88406705D01*
X163321202Y-88342526D01*
X163472861Y-88304612D01*
X163781575Y-88304612D01*
X163933236Y-88342527D01*
G37*
G36*
X164338330Y-99701437D02*
G01*
X162916108Y-99701437D01*
X162916108Y-98838843D01*
X163028378Y-98838843D01*
X163029140Y-98840938D01*
X163029140Y-98843169D01*
X163035784Y-98859210D01*
X163041713Y-98875512D01*
X163043218Y-98877155D01*
X163044072Y-98879217D01*
X163056345Y-98891490D01*
X163068064Y-98904287D01*
X163070708Y-98905853D01*
X163071662Y-98906807D01*
X163073843Y-98907710D01*
X163084930Y-98914278D01*
X163605034Y-99156993D01*
X163084930Y-99399708D01*
X163073843Y-99406275D01*
X163071662Y-99407179D01*
X163070708Y-99408132D01*
X163068064Y-99409699D01*
X163056345Y-99422495D01*
X163044072Y-99434769D01*
X163043218Y-99436830D01*
X163041713Y-99438474D01*
X163035784Y-99454775D01*
X163029140Y-99470817D01*
X163029140Y-99473047D01*
X163028378Y-99475143D01*
X163029140Y-99492482D01*
X163029140Y-99509835D01*
X163029993Y-99511894D01*
X163030091Y-99514123D01*
X163037432Y-99529853D01*
X163044072Y-99545883D01*
X163045648Y-99547459D01*
X163046592Y-99549481D01*
X163059388Y-99561199D01*
X163071662Y-99573473D01*
X163073723Y-99574326D01*
X163075367Y-99575832D01*
X163091668Y-99581760D01*
X163107710Y-99588405D01*
X163110768Y-99588706D01*
X163112036Y-99589167D01*
X163114395Y-99589063D01*
X163127219Y-99590326D01*
X164127219Y-99590326D01*
X164146728Y-99588405D01*
X164182776Y-99573473D01*
X164210366Y-99545883D01*
X164225298Y-99509835D01*
X164225298Y-99470817D01*
X164210366Y-99434769D01*
X164182776Y-99407179D01*
X164146728Y-99392247D01*
X164127219Y-99390326D01*
X163577975Y-99390326D01*
X163883793Y-99247611D01*
X163890934Y-99243380D01*
X163893356Y-99242500D01*
X163895068Y-99240931D01*
X163900659Y-99237620D01*
X163910919Y-99226415D01*
X163922132Y-99216148D01*
X163924011Y-99212120D01*
X163927011Y-99208845D01*
X163932202Y-99194569D01*
X163938632Y-99180791D01*
X163938827Y-99176350D01*
X163940345Y-99172176D01*
X163939677Y-99156993D01*
X163940345Y-99141810D01*
X163938827Y-99137635D01*
X163938632Y-99133195D01*
X163932202Y-99119416D01*
X163927011Y-99105141D01*
X163924011Y-99101865D01*
X163922132Y-99097838D01*
X163910919Y-99087570D01*
X163900659Y-99076366D01*
X163895068Y-99073054D01*
X163893356Y-99071486D01*
X163890934Y-99070605D01*
X163883793Y-99066375D01*
X163577975Y-98923660D01*
X164127219Y-98923660D01*
X164146728Y-98921739D01*
X164182776Y-98906807D01*
X164210366Y-98879217D01*
X164225298Y-98843169D01*
X164225298Y-98804151D01*
X164210366Y-98768103D01*
X164182776Y-98740513D01*
X164146728Y-98725581D01*
X164127219Y-98723660D01*
X163127219Y-98723660D01*
X163114395Y-98724922D01*
X163112036Y-98724819D01*
X163110768Y-98725279D01*
X163107710Y-98725581D01*
X163091668Y-98732225D01*
X163075367Y-98738154D01*
X163073723Y-98739659D01*
X163071662Y-98740513D01*
X163059388Y-98752786D01*
X163046592Y-98764505D01*
X163045648Y-98766526D01*
X163044072Y-98768103D01*
X163037432Y-98784132D01*
X163030091Y-98799863D01*
X163029993Y-98802091D01*
X163029140Y-98804151D01*
X163029140Y-98821503D01*
X163028378Y-98838843D01*
X162916108Y-98838843D01*
X162916108Y-97966517D01*
X163027219Y-97966517D01*
X163027219Y-98156993D01*
X163029140Y-98176502D01*
X163030515Y-98179822D01*
X163030770Y-98183406D01*
X163037776Y-98201714D01*
X163085395Y-98296952D01*
X163090680Y-98305348D01*
X163091691Y-98307788D01*
X163093944Y-98310534D01*
X163095838Y-98313542D01*
X163097832Y-98315271D01*
X163104127Y-98322942D01*
X163199365Y-98418180D01*
X163214519Y-98430616D01*
X163221387Y-98433461D01*
X163227362Y-98437888D01*
X163245822Y-98444483D01*
X163436298Y-98492102D01*
X163439679Y-98492602D01*
X163441043Y-98493167D01*
X163448393Y-98493890D01*
X163455691Y-98494970D01*
X163457149Y-98494752D01*
X163460552Y-98495088D01*
X163793885Y-98495088D01*
X163797287Y-98494752D01*
X163798746Y-98494970D01*
X163806043Y-98493890D01*
X163813394Y-98493167D01*
X163814757Y-98492602D01*
X163818139Y-98492102D01*
X164008614Y-98444483D01*
X164027075Y-98437888D01*
X164033047Y-98433462D01*
X164039918Y-98430617D01*
X164055071Y-98418180D01*
X164150311Y-98322942D01*
X164156604Y-98315273D01*
X164158600Y-98313543D01*
X164160493Y-98310535D01*
X164162747Y-98307789D01*
X164163757Y-98305348D01*
X164169043Y-98296952D01*
X164216662Y-98201715D01*
X164223668Y-98183406D01*
X164223922Y-98179822D01*
X164225298Y-98176502D01*
X164227219Y-98156993D01*
X164227219Y-97966517D01*
X164225298Y-97947008D01*
X164223922Y-97943687D01*
X164223668Y-97940104D01*
X164216662Y-97921795D01*
X164169043Y-97826558D01*
X164163757Y-97818161D01*
X164162747Y-97815721D01*
X164160493Y-97812974D01*
X164158600Y-97809967D01*
X164156604Y-97808236D01*
X164150311Y-97800568D01*
X164055071Y-97705330D01*
X164039918Y-97692893D01*
X164033047Y-97690047D01*
X164027075Y-97685622D01*
X164008614Y-97679027D01*
X163818139Y-97631408D01*
X163814757Y-97630907D01*
X163813394Y-97630343D01*
X163806043Y-97629619D01*
X163798746Y-97628540D01*
X163797287Y-97628757D01*
X163793885Y-97628422D01*
X163460552Y-97628422D01*
X163457149Y-97628757D01*
X163455691Y-97628540D01*
X163448393Y-97629619D01*
X163441043Y-97630343D01*
X163439679Y-97630907D01*
X163436298Y-97631408D01*
X163245822Y-97679027D01*
X163227362Y-97685622D01*
X163221387Y-97690048D01*
X163214519Y-97692894D01*
X163199365Y-97705330D01*
X163104127Y-97800568D01*
X163097832Y-97808238D01*
X163095838Y-97809968D01*
X163093944Y-97812975D01*
X163091691Y-97815722D01*
X163090680Y-97818161D01*
X163085395Y-97826558D01*
X163037776Y-97921796D01*
X163030770Y-97940104D01*
X163030515Y-97943687D01*
X163029140Y-97947008D01*
X163027219Y-97966517D01*
X162916108Y-97966517D01*
X162916108Y-97061755D01*
X163027219Y-97061755D01*
X163027219Y-97299850D01*
X163029140Y-97319359D01*
X163044072Y-97355407D01*
X163071662Y-97382997D01*
X163107710Y-97397929D01*
X163127219Y-97399850D01*
X164127219Y-97399850D01*
X164146728Y-97397929D01*
X164182776Y-97382997D01*
X164210366Y-97355407D01*
X164225298Y-97319359D01*
X164227219Y-97299850D01*
X164227219Y-97061755D01*
X164226246Y-97051881D01*
X164226434Y-97049247D01*
X164225646Y-97045783D01*
X164225298Y-97042246D01*
X164224286Y-97039804D01*
X164222087Y-97030132D01*
X164174468Y-96887275D01*
X164166477Y-96869375D01*
X164164122Y-96866659D01*
X164162747Y-96863340D01*
X164150311Y-96848187D01*
X164055071Y-96752949D01*
X164047401Y-96746654D01*
X164045672Y-96744660D01*
X164042667Y-96742768D01*
X164039918Y-96740512D01*
X164037474Y-96739499D01*
X164029082Y-96734217D01*
X163933844Y-96686598D01*
X163932417Y-96686052D01*
X163931837Y-96685622D01*
X163923660Y-96682700D01*
X163915536Y-96679592D01*
X163914813Y-96679540D01*
X163913376Y-96679027D01*
X163722901Y-96631408D01*
X163719519Y-96630907D01*
X163718156Y-96630343D01*
X163710805Y-96629619D01*
X163703508Y-96628540D01*
X163702049Y-96628757D01*
X163698647Y-96628422D01*
X163555790Y-96628422D01*
X163552387Y-96628757D01*
X163550929Y-96628540D01*
X163543631Y-96629619D01*
X163536281Y-96630343D01*
X163534917Y-96630907D01*
X163531536Y-96631408D01*
X163341060Y-96679027D01*
X163339621Y-96679540D01*
X163338901Y-96679592D01*
X163330776Y-96682700D01*
X163322600Y-96685622D01*
X163322020Y-96686051D01*
X163320592Y-96686598D01*
X163225355Y-96734217D01*
X163216956Y-96739503D01*
X163214519Y-96740513D01*
X163211775Y-96742764D01*
X163208764Y-96744660D01*
X163207031Y-96746657D01*
X163199365Y-96752949D01*
X163104127Y-96848187D01*
X163091691Y-96863341D01*
X163090316Y-96866659D01*
X163087961Y-96869375D01*
X163079970Y-96887276D01*
X163032351Y-97030132D01*
X163030151Y-97039803D01*
X163029140Y-97042246D01*
X163028791Y-97045784D01*
X163028004Y-97049248D01*
X163028191Y-97051881D01*
X163027219Y-97061755D01*
X162916108Y-97061755D01*
X162916108Y-95823660D01*
X163027219Y-95823660D01*
X163027219Y-96299850D01*
X163029140Y-96319359D01*
X163044072Y-96355407D01*
X163071662Y-96382997D01*
X163107710Y-96397929D01*
X163127219Y-96399850D01*
X164127219Y-96399850D01*
X164146728Y-96397929D01*
X164182776Y-96382997D01*
X164210366Y-96355407D01*
X164225298Y-96319359D01*
X164227219Y-96299850D01*
X164227219Y-95823660D01*
X164225298Y-95804151D01*
X164210366Y-95768103D01*
X164182776Y-95740513D01*
X164146728Y-95725581D01*
X164107710Y-95725581D01*
X164071662Y-95740513D01*
X164044072Y-95768103D01*
X164029140Y-95804151D01*
X164027219Y-95823660D01*
X164027219Y-96199850D01*
X163703409Y-96199850D01*
X163703409Y-95966517D01*
X163701488Y-95947008D01*
X163686556Y-95910960D01*
X163658966Y-95883370D01*
X163622918Y-95868438D01*
X163583900Y-95868438D01*
X163547852Y-95883370D01*
X163520262Y-95910960D01*
X163505330Y-95947008D01*
X163503409Y-95966517D01*
X163503409Y-96199850D01*
X163227219Y-96199850D01*
X163227219Y-95823660D01*
X163225298Y-95804151D01*
X163210366Y-95768103D01*
X163182776Y-95740513D01*
X163146728Y-95725581D01*
X163107710Y-95725581D01*
X163071662Y-95740513D01*
X163044072Y-95768103D01*
X163029140Y-95804151D01*
X163027219Y-95823660D01*
X162916108Y-95823660D01*
X162916108Y-94252231D01*
X163027219Y-94252231D01*
X163027219Y-94490326D01*
X163029140Y-94509835D01*
X163030515Y-94513155D01*
X163030770Y-94516739D01*
X163037776Y-94535047D01*
X163085395Y-94630285D01*
X163090680Y-94638681D01*
X163091691Y-94641121D01*
X163093944Y-94643867D01*
X163095838Y-94646875D01*
X163097832Y-94648604D01*
X163104127Y-94656275D01*
X163151746Y-94703893D01*
X163159412Y-94710185D01*
X163161145Y-94712183D01*
X163164153Y-94714076D01*
X163166899Y-94716330D01*
X163169339Y-94717340D01*
X163177736Y-94722626D01*
X163272973Y-94770245D01*
X163291282Y-94777251D01*
X163294865Y-94777505D01*
X163298186Y-94778881D01*
X163317695Y-94780802D01*
X163412933Y-94780802D01*
X163432442Y-94778881D01*
X163435762Y-94777505D01*
X163439346Y-94777251D01*
X163457654Y-94770245D01*
X163552892Y-94722626D01*
X163561288Y-94717340D01*
X163563728Y-94716330D01*
X163566474Y-94714076D01*
X163569482Y-94712183D01*
X163571211Y-94710188D01*
X163578882Y-94703894D01*
X163626500Y-94656275D01*
X163632792Y-94648608D01*
X163634790Y-94646876D01*
X163636683Y-94643867D01*
X163638937Y-94641122D01*
X163639947Y-94638681D01*
X163645233Y-94630285D01*
X163692852Y-94535048D01*
X163693398Y-94533619D01*
X163693828Y-94533040D01*
X163696749Y-94524863D01*
X163699858Y-94516739D01*
X163699909Y-94516018D01*
X163700423Y-94514580D01*
X163745379Y-94334754D01*
X163780833Y-94263847D01*
X163805501Y-94239178D01*
X163865111Y-94209374D01*
X163913135Y-94209374D01*
X163972746Y-94239180D01*
X163997414Y-94263847D01*
X164027219Y-94323457D01*
X164027219Y-94521718D01*
X163984732Y-94649179D01*
X163980385Y-94668295D01*
X163983151Y-94707215D01*
X164000601Y-94742114D01*
X164030077Y-94767679D01*
X164067093Y-94780017D01*
X164106013Y-94777251D01*
X164140912Y-94759801D01*
X164166477Y-94730325D01*
X164174468Y-94712425D01*
X164222087Y-94569568D01*
X164224286Y-94559895D01*
X164225298Y-94557454D01*
X164225646Y-94553916D01*
X164226434Y-94550453D01*
X164226246Y-94547818D01*
X164227219Y-94537945D01*
X164227219Y-94299850D01*
X164225298Y-94280341D01*
X164223922Y-94277020D01*
X164223668Y-94273437D01*
X164216662Y-94255128D01*
X164169043Y-94159891D01*
X164163757Y-94151494D01*
X164162747Y-94149054D01*
X164160493Y-94146308D01*
X164158600Y-94143300D01*
X164156603Y-94141568D01*
X164150310Y-94133900D01*
X164102690Y-94086282D01*
X164095020Y-94079987D01*
X164093291Y-94077993D01*
X164090286Y-94076101D01*
X164087537Y-94073845D01*
X164085093Y-94072833D01*
X164076701Y-94067550D01*
X163981463Y-94019931D01*
X163963155Y-94012925D01*
X163959571Y-94012670D01*
X163956251Y-94011295D01*
X163936742Y-94009374D01*
X163841504Y-94009374D01*
X163821995Y-94011295D01*
X163818674Y-94012670D01*
X163815091Y-94012925D01*
X163796782Y-94019931D01*
X163701545Y-94067550D01*
X163693148Y-94072835D01*
X163690708Y-94073846D01*
X163687962Y-94076099D01*
X163684954Y-94077993D01*
X163683221Y-94079990D01*
X163675555Y-94086283D01*
X163627936Y-94133901D01*
X163621641Y-94141571D01*
X163619647Y-94143301D01*
X163617753Y-94146308D01*
X163615500Y-94149055D01*
X163614489Y-94151494D01*
X163609204Y-94159891D01*
X163561585Y-94255129D01*
X163561039Y-94256555D01*
X163560609Y-94257136D01*
X163557687Y-94265312D01*
X163554579Y-94273437D01*
X163554527Y-94274159D01*
X163554014Y-94275597D01*
X163509057Y-94455421D01*
X163473604Y-94526328D01*
X163448935Y-94550996D01*
X163389326Y-94580802D01*
X163341302Y-94580802D01*
X163281692Y-94550997D01*
X163257024Y-94526328D01*
X163227219Y-94466718D01*
X163227219Y-94268458D01*
X163269706Y-94140997D01*
X163274053Y-94121882D01*
X163271287Y-94082962D01*
X163253837Y-94048063D01*
X163224361Y-94022498D01*
X163187345Y-94010159D01*
X163148425Y-94012926D01*
X163113526Y-94030375D01*
X163087961Y-94059851D01*
X163079970Y-94077752D01*
X163032351Y-94220608D01*
X163030151Y-94230279D01*
X163029140Y-94232722D01*
X163028791Y-94236260D01*
X163028004Y-94239724D01*
X163028191Y-94242357D01*
X163027219Y-94252231D01*
X162916108Y-94252231D01*
X162916108Y-93204612D01*
X163027219Y-93204612D01*
X163027219Y-93680802D01*
X163029140Y-93700311D01*
X163044072Y-93736359D01*
X163071662Y-93763949D01*
X163107710Y-93778881D01*
X163127219Y-93780802D01*
X164127219Y-93780802D01*
X164146728Y-93778881D01*
X164182776Y-93763949D01*
X164210366Y-93736359D01*
X164225298Y-93700311D01*
X164227219Y-93680802D01*
X164227219Y-93204612D01*
X164225298Y-93185103D01*
X164210366Y-93149055D01*
X164182776Y-93121465D01*
X164146728Y-93106533D01*
X164107710Y-93106533D01*
X164071662Y-93121465D01*
X164044072Y-93149055D01*
X164029140Y-93185103D01*
X164027219Y-93204612D01*
X164027219Y-93580802D01*
X163703409Y-93580802D01*
X163703409Y-93347469D01*
X163701488Y-93327960D01*
X163686556Y-93291912D01*
X163658966Y-93264322D01*
X163622918Y-93249390D01*
X163583900Y-93249390D01*
X163547852Y-93264322D01*
X163520262Y-93291912D01*
X163505330Y-93327960D01*
X163503409Y-93347469D01*
X163503409Y-93580802D01*
X163227219Y-93580802D01*
X163227219Y-93204612D01*
X163225298Y-93185103D01*
X163210366Y-93149055D01*
X163182776Y-93121465D01*
X163146728Y-93106533D01*
X163107710Y-93106533D01*
X163071662Y-93121465D01*
X163044072Y-93149055D01*
X163029140Y-93185103D01*
X163027219Y-93204612D01*
X162916108Y-93204612D01*
X162916108Y-92756531D01*
X163029140Y-92756531D01*
X163029140Y-92795549D01*
X163044072Y-92831597D01*
X163071662Y-92859187D01*
X163107710Y-92874119D01*
X163127219Y-92876040D01*
X164127219Y-92876040D01*
X164146728Y-92874119D01*
X164182776Y-92859187D01*
X164210366Y-92831597D01*
X164225298Y-92795549D01*
X164227219Y-92776040D01*
X164227219Y-92299850D01*
X164225298Y-92280341D01*
X164210366Y-92244293D01*
X164182776Y-92216703D01*
X164146728Y-92201771D01*
X164107710Y-92201771D01*
X164071662Y-92216703D01*
X164044072Y-92244293D01*
X164029140Y-92280341D01*
X164027219Y-92299850D01*
X164027219Y-92676040D01*
X163127219Y-92676040D01*
X163107710Y-92677961D01*
X163071662Y-92692893D01*
X163044072Y-92720483D01*
X163029140Y-92756531D01*
X162916108Y-92756531D01*
X162916108Y-91490326D01*
X163027219Y-91490326D01*
X163027219Y-91966516D01*
X163029140Y-91986025D01*
X163044072Y-92022073D01*
X163071662Y-92049663D01*
X163107710Y-92064595D01*
X163127219Y-92066516D01*
X164127219Y-92066516D01*
X164146728Y-92064595D01*
X164182776Y-92049663D01*
X164210366Y-92022073D01*
X164225298Y-91986025D01*
X164227219Y-91966516D01*
X164227219Y-91490326D01*
X164225298Y-91470817D01*
X164210366Y-91434769D01*
X164182776Y-91407179D01*
X164146728Y-91392247D01*
X164107710Y-91392247D01*
X164071662Y-91407179D01*
X164044072Y-91434769D01*
X164029140Y-91470817D01*
X164027219Y-91490326D01*
X164027219Y-91866516D01*
X163703409Y-91866516D01*
X163703409Y-91633183D01*
X163701488Y-91613674D01*
X163686556Y-91577626D01*
X163658966Y-91550036D01*
X163622918Y-91535104D01*
X163583900Y-91535104D01*
X163547852Y-91550036D01*
X163520262Y-91577626D01*
X163505330Y-91613674D01*
X163503409Y-91633183D01*
X163503409Y-91866516D01*
X163227219Y-91866516D01*
X163227219Y-91490326D01*
X163225298Y-91470817D01*
X163210366Y-91434769D01*
X163182776Y-91407179D01*
X163146728Y-91392247D01*
X163107710Y-91392247D01*
X163071662Y-91407179D01*
X163044072Y-91434769D01*
X163029140Y-91470817D01*
X163027219Y-91490326D01*
X162916108Y-91490326D01*
X162916108Y-90680802D01*
X163027219Y-90680802D01*
X163027219Y-90776040D01*
X163028191Y-90785913D01*
X163028004Y-90788547D01*
X163028791Y-90792010D01*
X163029140Y-90795549D01*
X163030151Y-90797991D01*
X163032351Y-90807663D01*
X163079970Y-90950519D01*
X163087961Y-90968420D01*
X163090316Y-90971135D01*
X163091691Y-90974454D01*
X163104127Y-90989608D01*
X163199365Y-91084846D01*
X163207031Y-91091137D01*
X163208764Y-91093135D01*
X163211775Y-91095030D01*
X163214519Y-91097282D01*
X163216956Y-91098291D01*
X163225355Y-91103578D01*
X163320592Y-91151197D01*
X163322020Y-91151743D01*
X163322600Y-91152173D01*
X163330776Y-91155094D01*
X163338901Y-91158203D01*
X163339621Y-91158254D01*
X163341060Y-91158768D01*
X163531536Y-91206387D01*
X163534917Y-91206887D01*
X163536281Y-91207452D01*
X163543631Y-91208175D01*
X163550929Y-91209255D01*
X163552387Y-91209037D01*
X163555790Y-91209373D01*
X163698647Y-91209373D01*
X163702049Y-91209037D01*
X163703508Y-91209255D01*
X163710805Y-91208175D01*
X163718156Y-91207452D01*
X163719519Y-91206887D01*
X163722901Y-91206387D01*
X163913376Y-91158768D01*
X163914813Y-91158254D01*
X163915536Y-91158203D01*
X163923660Y-91155094D01*
X163931837Y-91152173D01*
X163932417Y-91151742D01*
X163933844Y-91151197D01*
X164029082Y-91103578D01*
X164037474Y-91098295D01*
X164039918Y-91097283D01*
X164042667Y-91095026D01*
X164045672Y-91093135D01*
X164047401Y-91091140D01*
X164055071Y-91084846D01*
X164150311Y-90989608D01*
X164162747Y-90974455D01*
X164164122Y-90971135D01*
X164166477Y-90968420D01*
X164174468Y-90950520D01*
X164222087Y-90807663D01*
X164224286Y-90797990D01*
X164225298Y-90795549D01*
X164225646Y-90792011D01*
X164226434Y-90788548D01*
X164226246Y-90785913D01*
X164227219Y-90776040D01*
X164227219Y-90680802D01*
X164226246Y-90670928D01*
X164226434Y-90668294D01*
X164225646Y-90664830D01*
X164225298Y-90661293D01*
X164224286Y-90658851D01*
X164222087Y-90649179D01*
X164174468Y-90506322D01*
X164166477Y-90488422D01*
X164164122Y-90485706D01*
X164162747Y-90482387D01*
X164150310Y-90467233D01*
X164102690Y-90419615D01*
X164087537Y-90407178D01*
X164051488Y-90392247D01*
X164012470Y-90392248D01*
X163976422Y-90407179D01*
X163948832Y-90434769D01*
X163933901Y-90470818D01*
X163933902Y-90509836D01*
X163948833Y-90545884D01*
X163961270Y-90561037D01*
X163992197Y-90591963D01*
X164027219Y-90697028D01*
X164027219Y-90759813D01*
X163992197Y-90864878D01*
X163925127Y-90931948D01*
X163854218Y-90967402D01*
X163686337Y-91009373D01*
X163568099Y-91009373D01*
X163400218Y-90967402D01*
X163329313Y-90931950D01*
X163262240Y-90864877D01*
X163227219Y-90759813D01*
X163227219Y-90697029D01*
X163262240Y-90591963D01*
X163293167Y-90561037D01*
X163305604Y-90545884D01*
X163320535Y-90509835D01*
X163320535Y-90470817D01*
X163305604Y-90434769D01*
X163278014Y-90407179D01*
X163241966Y-90392248D01*
X163202948Y-90392248D01*
X163166899Y-90407179D01*
X163151746Y-90419616D01*
X163104127Y-90467234D01*
X163091691Y-90482388D01*
X163090316Y-90485706D01*
X163087961Y-90488422D01*
X163079970Y-90506323D01*
X163032351Y-90649179D01*
X163030151Y-90658850D01*
X163029140Y-90661293D01*
X163028791Y-90664831D01*
X163028004Y-90668295D01*
X163028191Y-90670928D01*
X163027219Y-90680802D01*
X162916108Y-90680802D01*
X162916108Y-89633183D01*
X163027219Y-89633183D01*
X163027219Y-90204611D01*
X163029140Y-90224120D01*
X163044072Y-90260168D01*
X163071662Y-90287758D01*
X163107710Y-90302690D01*
X163146728Y-90302690D01*
X163182776Y-90287758D01*
X163210366Y-90260168D01*
X163225298Y-90224120D01*
X163227219Y-90204611D01*
X163227219Y-90018897D01*
X164127219Y-90018897D01*
X164146728Y-90016976D01*
X164182776Y-90002044D01*
X164210366Y-89974454D01*
X164225298Y-89938406D01*
X164225298Y-89899388D01*
X164210366Y-89863340D01*
X164182776Y-89835750D01*
X164146728Y-89820818D01*
X164127219Y-89818897D01*
X163227219Y-89818897D01*
X163227219Y-89633183D01*
X163225298Y-89613674D01*
X163210366Y-89577626D01*
X163182776Y-89550036D01*
X163146728Y-89535104D01*
X163107710Y-89535104D01*
X163071662Y-89550036D01*
X163044072Y-89577626D01*
X163029140Y-89613674D01*
X163027219Y-89633183D01*
X162916108Y-89633183D01*
X162916108Y-89280340D01*
X163029140Y-89280340D01*
X163029140Y-89319358D01*
X163044072Y-89355406D01*
X163071662Y-89382996D01*
X163107710Y-89397928D01*
X163127219Y-89399849D01*
X164127219Y-89399849D01*
X164146728Y-89397928D01*
X164182776Y-89382996D01*
X164210366Y-89355406D01*
X164225298Y-89319358D01*
X164225298Y-89280340D01*
X164210366Y-89244292D01*
X164182776Y-89216702D01*
X164146728Y-89201770D01*
X164127219Y-89199849D01*
X163127219Y-89199849D01*
X163107710Y-89201770D01*
X163071662Y-89216702D01*
X163044072Y-89244292D01*
X163029140Y-89280340D01*
X162916108Y-89280340D01*
X162916108Y-88442707D01*
X163027219Y-88442707D01*
X163027219Y-88633183D01*
X163029140Y-88652692D01*
X163030515Y-88656012D01*
X163030770Y-88659596D01*
X163037776Y-88677904D01*
X163085395Y-88773142D01*
X163090680Y-88781538D01*
X163091691Y-88783978D01*
X163093944Y-88786724D01*
X163095838Y-88789732D01*
X163097832Y-88791461D01*
X163104127Y-88799132D01*
X163199365Y-88894370D01*
X163214519Y-88906806D01*
X163221387Y-88909651D01*
X163227362Y-88914078D01*
X163245822Y-88920673D01*
X163436298Y-88968292D01*
X163439679Y-88968792D01*
X163441043Y-88969357D01*
X163448393Y-88970080D01*
X163455691Y-88971160D01*
X163457149Y-88970942D01*
X163460552Y-88971278D01*
X163793885Y-88971278D01*
X163797287Y-88970942D01*
X163798746Y-88971160D01*
X163806043Y-88970080D01*
X163813394Y-88969357D01*
X163814757Y-88968792D01*
X163818139Y-88968292D01*
X164008614Y-88920673D01*
X164027075Y-88914078D01*
X164033047Y-88909652D01*
X164039918Y-88906807D01*
X164055071Y-88894370D01*
X164150311Y-88799132D01*
X164156604Y-88791463D01*
X164158600Y-88789733D01*
X164160493Y-88786725D01*
X164162747Y-88783979D01*
X164163757Y-88781538D01*
X164169043Y-88773142D01*
X164216662Y-88677905D01*
X164223668Y-88659596D01*
X164223922Y-88656012D01*
X164225298Y-88652692D01*
X164227219Y-88633183D01*
X164227219Y-88442707D01*
X164225298Y-88423198D01*
X164223922Y-88419877D01*
X164223668Y-88416294D01*
X164216662Y-88397985D01*
X164169043Y-88302748D01*
X164163757Y-88294351D01*
X164162747Y-88291911D01*
X164160493Y-88289164D01*
X164158600Y-88286157D01*
X164156604Y-88284426D01*
X164150311Y-88276758D01*
X164055071Y-88181520D01*
X164039918Y-88169083D01*
X164033047Y-88166237D01*
X164027075Y-88161812D01*
X164008614Y-88155217D01*
X163818139Y-88107598D01*
X163814757Y-88107097D01*
X163813394Y-88106533D01*
X163806043Y-88105809D01*
X163798746Y-88104730D01*
X163797287Y-88104947D01*
X163793885Y-88104612D01*
X163460552Y-88104612D01*
X163457149Y-88104947D01*
X163455691Y-88104730D01*
X163448393Y-88105809D01*
X163441043Y-88106533D01*
X163439679Y-88107097D01*
X163436298Y-88107598D01*
X163245822Y-88155217D01*
X163227362Y-88161812D01*
X163221387Y-88166238D01*
X163214519Y-88169084D01*
X163199365Y-88181520D01*
X163104127Y-88276758D01*
X163097832Y-88284428D01*
X163095838Y-88286158D01*
X163093944Y-88289165D01*
X163091691Y-88291912D01*
X163090680Y-88294351D01*
X163085395Y-88302748D01*
X163037776Y-88397986D01*
X163030770Y-88416294D01*
X163030515Y-88419877D01*
X163029140Y-88423198D01*
X163027219Y-88442707D01*
X162916108Y-88442707D01*
X162916108Y-87769055D01*
X163027463Y-87769055D01*
X163029140Y-87782248D01*
X163029140Y-87795549D01*
X163031579Y-87801437D01*
X163032383Y-87807762D01*
X163038983Y-87819311D01*
X163044072Y-87831597D01*
X163048579Y-87836104D01*
X163051742Y-87841639D01*
X163062256Y-87849781D01*
X163071662Y-87859187D01*
X163077552Y-87861626D01*
X163082591Y-87865529D01*
X163095419Y-87869027D01*
X163107710Y-87874119D01*
X163117687Y-87875101D01*
X163120234Y-87875796D01*
X163122201Y-87875545D01*
X163127219Y-87876040D01*
X164127219Y-87876040D01*
X164146728Y-87874119D01*
X164182776Y-87859187D01*
X164210366Y-87831597D01*
X164225298Y-87795549D01*
X164225298Y-87756531D01*
X164210366Y-87720483D01*
X164182776Y-87692893D01*
X164146728Y-87677961D01*
X164127219Y-87676040D01*
X163503775Y-87676040D01*
X164176833Y-87291436D01*
X164180943Y-87288517D01*
X164182776Y-87287759D01*
X164184642Y-87285892D01*
X164192818Y-87280089D01*
X164200962Y-87269572D01*
X164210366Y-87260169D01*
X164212804Y-87254281D01*
X164216709Y-87249240D01*
X164220208Y-87236407D01*
X164225298Y-87224121D01*
X164225298Y-87217745D01*
X164226975Y-87211596D01*
X164225298Y-87198402D01*
X164225298Y-87185103D01*
X164222858Y-87179214D01*
X164222055Y-87172890D01*
X164215454Y-87161340D01*
X164210366Y-87149055D01*
X164205858Y-87144547D01*
X164202696Y-87139013D01*
X164192179Y-87130868D01*
X164182776Y-87121465D01*
X164176888Y-87119026D01*
X164171847Y-87115122D01*
X164159014Y-87111622D01*
X164146728Y-87106533D01*
X164136750Y-87105550D01*
X164134204Y-87104856D01*
X164132236Y-87105106D01*
X164127219Y-87104612D01*
X163127219Y-87104612D01*
X163107710Y-87106533D01*
X163071662Y-87121465D01*
X163044072Y-87149055D01*
X163029140Y-87185103D01*
X163029140Y-87224121D01*
X163044072Y-87260169D01*
X163071662Y-87287759D01*
X163107710Y-87302691D01*
X163127219Y-87304612D01*
X163750663Y-87304612D01*
X163077605Y-87689216D01*
X163073494Y-87692134D01*
X163071662Y-87692893D01*
X163069795Y-87694759D01*
X163061620Y-87700563D01*
X163053477Y-87711077D01*
X163044072Y-87720483D01*
X163041632Y-87726373D01*
X163037730Y-87731412D01*
X163034231Y-87744240D01*
X163029140Y-87756531D01*
X163029140Y-87762906D01*
X163027463Y-87769055D01*
X162916108Y-87769055D01*
X162916108Y-86993501D01*
X164338330Y-86993501D01*
X164338330Y-99701437D01*
G37*
G36*
X165316491Y-91333301D02*
G01*
X165341160Y-91357969D01*
X165370965Y-91417579D01*
X165370965Y-91627305D01*
X165094775Y-91627305D01*
X165094775Y-91417579D01*
X165124580Y-91357969D01*
X165149248Y-91333300D01*
X165208858Y-91303496D01*
X165256882Y-91303496D01*
X165316491Y-91333301D01*
G37*
G36*
X165840302Y-91285683D02*
G01*
X165864970Y-91310350D01*
X165894775Y-91369960D01*
X165894775Y-91627305D01*
X165570965Y-91627305D01*
X165570965Y-91410199D01*
X165605986Y-91305133D01*
X165625438Y-91285681D01*
X165685048Y-91255877D01*
X165780691Y-91255877D01*
X165840302Y-91285683D01*
G37*
G36*
X166205886Y-93414606D02*
G01*
X164783664Y-93414606D01*
X164783664Y-93183986D01*
X164896696Y-93183986D01*
X164896696Y-93223004D01*
X164911628Y-93259052D01*
X164939218Y-93286642D01*
X164975266Y-93301574D01*
X164994775Y-93303495D01*
X165994775Y-93303495D01*
X166014284Y-93301574D01*
X166050332Y-93286642D01*
X166077922Y-93259052D01*
X166092854Y-93223004D01*
X166092854Y-93183986D01*
X166077922Y-93147938D01*
X166050332Y-93120348D01*
X166014284Y-93105416D01*
X165994775Y-93103495D01*
X164994775Y-93103495D01*
X164975266Y-93105416D01*
X164939218Y-93120348D01*
X164911628Y-93147938D01*
X164896696Y-93183986D01*
X164783664Y-93183986D01*
X164783664Y-92298734D01*
X164894775Y-92298734D01*
X164894775Y-92441591D01*
X164895747Y-92451464D01*
X164895560Y-92454098D01*
X164896347Y-92457561D01*
X164896696Y-92461100D01*
X164897707Y-92463542D01*
X164899907Y-92473214D01*
X164947526Y-92616070D01*
X164955517Y-92633971D01*
X164957872Y-92636686D01*
X164959247Y-92640005D01*
X164971683Y-92655159D01*
X165066921Y-92750397D01*
X165074587Y-92756688D01*
X165076320Y-92758686D01*
X165079331Y-92760581D01*
X165082075Y-92762833D01*
X165084512Y-92763842D01*
X165092911Y-92769129D01*
X165188148Y-92816748D01*
X165189576Y-92817294D01*
X165190156Y-92817724D01*
X165198332Y-92820645D01*
X165206457Y-92823754D01*
X165207177Y-92823805D01*
X165208616Y-92824319D01*
X165399092Y-92871938D01*
X165402473Y-92872438D01*
X165403837Y-92873003D01*
X165411187Y-92873726D01*
X165418485Y-92874806D01*
X165419943Y-92874588D01*
X165423346Y-92874924D01*
X165566203Y-92874924D01*
X165569605Y-92874588D01*
X165571064Y-92874806D01*
X165578361Y-92873726D01*
X165585712Y-92873003D01*
X165587075Y-92872438D01*
X165590457Y-92871938D01*
X165780932Y-92824319D01*
X165782369Y-92823805D01*
X165783092Y-92823754D01*
X165791216Y-92820645D01*
X165799393Y-92817724D01*
X165799973Y-92817293D01*
X165801400Y-92816748D01*
X165896638Y-92769129D01*
X165905030Y-92763846D01*
X165907474Y-92762834D01*
X165910223Y-92760577D01*
X165913228Y-92758686D01*
X165914957Y-92756691D01*
X165922627Y-92750397D01*
X166017867Y-92655159D01*
X166030303Y-92640006D01*
X166031678Y-92636686D01*
X166034033Y-92633971D01*
X166042024Y-92616071D01*
X166089643Y-92473214D01*
X166091842Y-92463541D01*
X166092854Y-92461100D01*
X166093202Y-92457562D01*
X166093990Y-92454099D01*
X166093802Y-92451464D01*
X166094775Y-92441591D01*
X166094775Y-92346353D01*
X166093802Y-92336479D01*
X166093990Y-92333845D01*
X166093202Y-92330381D01*
X166092854Y-92326844D01*
X166091842Y-92324402D01*
X166089643Y-92314730D01*
X166042024Y-92171873D01*
X166034033Y-92153973D01*
X166031678Y-92151257D01*
X166030303Y-92147938D01*
X166017866Y-92132784D01*
X165970246Y-92085166D01*
X165955093Y-92072729D01*
X165929602Y-92062171D01*
X165919045Y-92057798D01*
X165899536Y-92055877D01*
X165566203Y-92055877D01*
X165546694Y-92057798D01*
X165510646Y-92072730D01*
X165483056Y-92100320D01*
X165468124Y-92136368D01*
X165466203Y-92155877D01*
X165466203Y-92346353D01*
X165468124Y-92365862D01*
X165483056Y-92401910D01*
X165510646Y-92429500D01*
X165546694Y-92444432D01*
X165585712Y-92444432D01*
X165621760Y-92429500D01*
X165649350Y-92401910D01*
X165664282Y-92365862D01*
X165666203Y-92346353D01*
X165666203Y-92255877D01*
X165858116Y-92255877D01*
X165859753Y-92257514D01*
X165894775Y-92362579D01*
X165894775Y-92425364D01*
X165859753Y-92530429D01*
X165792683Y-92597499D01*
X165721774Y-92632953D01*
X165553893Y-92674924D01*
X165435655Y-92674924D01*
X165267774Y-92632953D01*
X165196869Y-92597501D01*
X165129796Y-92530428D01*
X165094775Y-92425364D01*
X165094775Y-92322341D01*
X165131837Y-92248218D01*
X165138843Y-92229909D01*
X165141609Y-92190989D01*
X165129270Y-92153973D01*
X165103705Y-92124496D01*
X165068807Y-92107047D01*
X165029887Y-92104282D01*
X164992871Y-92116620D01*
X164963394Y-92142185D01*
X164952951Y-92158775D01*
X164905332Y-92254013D01*
X164898326Y-92272321D01*
X164898071Y-92275904D01*
X164896696Y-92279225D01*
X164894775Y-92298734D01*
X164783664Y-92298734D01*
X164783664Y-91393972D01*
X164894775Y-91393972D01*
X164894775Y-91727305D01*
X164896696Y-91746814D01*
X164911628Y-91782862D01*
X164939218Y-91810452D01*
X164975266Y-91825384D01*
X164994775Y-91827305D01*
X165994775Y-91827305D01*
X166014284Y-91825384D01*
X166050332Y-91810452D01*
X166077922Y-91782862D01*
X166092854Y-91746814D01*
X166094775Y-91727305D01*
X166094775Y-91346353D01*
X166092854Y-91326844D01*
X166091478Y-91323523D01*
X166091224Y-91319940D01*
X166084218Y-91301631D01*
X166036599Y-91206394D01*
X166031313Y-91197997D01*
X166030303Y-91195557D01*
X166028049Y-91192811D01*
X166026156Y-91189803D01*
X166024159Y-91188071D01*
X166017866Y-91180403D01*
X165970246Y-91132785D01*
X165962576Y-91126490D01*
X165960847Y-91124496D01*
X165957842Y-91122604D01*
X165955093Y-91120348D01*
X165952649Y-91119336D01*
X165944257Y-91114053D01*
X165849019Y-91066434D01*
X165830711Y-91059428D01*
X165827127Y-91059173D01*
X165823807Y-91057798D01*
X165804298Y-91055877D01*
X165661441Y-91055877D01*
X165641932Y-91057798D01*
X165638611Y-91059173D01*
X165635028Y-91059428D01*
X165616719Y-91066434D01*
X165521482Y-91114053D01*
X165513085Y-91119338D01*
X165510645Y-91120349D01*
X165507899Y-91122602D01*
X165504891Y-91124496D01*
X165503158Y-91126493D01*
X165495492Y-91132786D01*
X165447873Y-91180404D01*
X165447226Y-91181192D01*
X165446438Y-91180404D01*
X165438767Y-91174109D01*
X165437038Y-91172115D01*
X165434030Y-91170221D01*
X165431284Y-91167968D01*
X165428844Y-91166957D01*
X165420448Y-91161672D01*
X165325210Y-91114053D01*
X165306902Y-91107047D01*
X165303318Y-91106792D01*
X165299998Y-91105417D01*
X165280489Y-91103496D01*
X165185251Y-91103496D01*
X165165742Y-91105417D01*
X165162421Y-91106792D01*
X165158838Y-91107047D01*
X165140529Y-91114053D01*
X165045292Y-91161672D01*
X165036895Y-91166957D01*
X165034455Y-91167968D01*
X165031709Y-91170221D01*
X165028701Y-91172115D01*
X165026968Y-91174112D01*
X165019302Y-91180405D01*
X164971683Y-91228023D01*
X164965388Y-91235693D01*
X164963394Y-91237423D01*
X164961500Y-91240430D01*
X164959247Y-91243177D01*
X164958236Y-91245616D01*
X164952951Y-91254013D01*
X164905332Y-91349251D01*
X164898326Y-91367559D01*
X164898071Y-91371142D01*
X164896696Y-91374463D01*
X164894775Y-91393972D01*
X164783664Y-91393972D01*
X164783664Y-90298734D01*
X164894775Y-90298734D01*
X164894775Y-90870162D01*
X164896696Y-90889671D01*
X164911628Y-90925719D01*
X164939218Y-90953309D01*
X164975266Y-90968241D01*
X165014284Y-90968241D01*
X165050332Y-90953309D01*
X165077922Y-90925719D01*
X165092854Y-90889671D01*
X165094775Y-90870162D01*
X165094775Y-90684448D01*
X165994775Y-90684448D01*
X166014284Y-90682527D01*
X166050332Y-90667595D01*
X166077922Y-90640005D01*
X166092854Y-90603957D01*
X166092854Y-90564939D01*
X166077922Y-90528891D01*
X166050332Y-90501301D01*
X166014284Y-90486369D01*
X165994775Y-90484448D01*
X165094775Y-90484448D01*
X165094775Y-90298734D01*
X165092854Y-90279225D01*
X165077922Y-90243177D01*
X165050332Y-90215587D01*
X165014284Y-90200655D01*
X164975266Y-90200655D01*
X164939218Y-90215587D01*
X164911628Y-90243177D01*
X164896696Y-90279225D01*
X164894775Y-90298734D01*
X164783664Y-90298734D01*
X164783664Y-90089544D01*
X166205886Y-90089544D01*
X166205886Y-93414606D01*
G37*
G36*
X165800792Y-95978748D02*
G01*
X165864970Y-96042925D01*
X165894775Y-96102535D01*
X165894775Y-96245797D01*
X165864970Y-96305406D01*
X165800792Y-96369583D01*
X165649131Y-96407499D01*
X165340417Y-96407499D01*
X165188758Y-96369584D01*
X165124579Y-96305405D01*
X165094775Y-96245796D01*
X165094775Y-96102535D01*
X165124579Y-96042926D01*
X165188758Y-95978747D01*
X165340417Y-95940833D01*
X165649131Y-95940833D01*
X165800792Y-95978748D01*
G37*
G36*
X165364110Y-94113495D02*
G01*
X165388779Y-94138163D01*
X165418584Y-94197773D01*
X165418584Y-94455118D01*
X165094775Y-94455118D01*
X165094775Y-94197773D01*
X165124580Y-94138163D01*
X165149248Y-94113494D01*
X165208858Y-94083690D01*
X165304501Y-94083690D01*
X165364110Y-94113495D01*
G37*
G36*
X166205886Y-96718610D02*
G01*
X164783664Y-96718610D01*
X164783664Y-96078928D01*
X164894775Y-96078928D01*
X164894775Y-96269404D01*
X164896696Y-96288913D01*
X164898071Y-96292233D01*
X164898326Y-96295817D01*
X164905332Y-96314125D01*
X164952951Y-96409363D01*
X164958236Y-96417759D01*
X164959247Y-96420199D01*
X164961500Y-96422945D01*
X164963394Y-96425953D01*
X164965388Y-96427682D01*
X164971683Y-96435353D01*
X165066921Y-96530591D01*
X165082075Y-96543027D01*
X165088943Y-96545872D01*
X165094918Y-96550299D01*
X165113378Y-96556894D01*
X165303854Y-96604513D01*
X165307235Y-96605013D01*
X165308599Y-96605578D01*
X165315949Y-96606301D01*
X165323247Y-96607381D01*
X165324705Y-96607163D01*
X165328108Y-96607499D01*
X165661441Y-96607499D01*
X165664843Y-96607163D01*
X165666302Y-96607381D01*
X165673599Y-96606301D01*
X165680950Y-96605578D01*
X165682313Y-96605013D01*
X165685695Y-96604513D01*
X165876170Y-96556894D01*
X165894631Y-96550299D01*
X165900603Y-96545873D01*
X165907474Y-96543028D01*
X165922627Y-96530591D01*
X166017867Y-96435353D01*
X166024160Y-96427684D01*
X166026156Y-96425954D01*
X166028049Y-96422946D01*
X166030303Y-96420200D01*
X166031313Y-96417759D01*
X166036599Y-96409363D01*
X166084218Y-96314126D01*
X166091224Y-96295817D01*
X166091478Y-96292233D01*
X166092854Y-96288913D01*
X166094775Y-96269404D01*
X166094775Y-96078928D01*
X166092854Y-96059419D01*
X166091478Y-96056098D01*
X166091224Y-96052515D01*
X166084218Y-96034206D01*
X166036599Y-95938969D01*
X166031313Y-95930572D01*
X166030303Y-95928132D01*
X166028049Y-95925385D01*
X166026156Y-95922378D01*
X166024160Y-95920647D01*
X166017867Y-95912979D01*
X165922627Y-95817741D01*
X165907474Y-95805304D01*
X165900603Y-95802458D01*
X165894631Y-95798033D01*
X165876170Y-95791438D01*
X165685695Y-95743819D01*
X165682313Y-95743318D01*
X165680950Y-95742754D01*
X165673599Y-95742030D01*
X165666302Y-95740951D01*
X165664843Y-95741168D01*
X165661441Y-95740833D01*
X165328108Y-95740833D01*
X165324705Y-95741168D01*
X165323247Y-95740951D01*
X165315949Y-95742030D01*
X165308599Y-95742754D01*
X165307235Y-95743318D01*
X165303854Y-95743819D01*
X165113378Y-95791438D01*
X165094918Y-95798033D01*
X165088943Y-95802459D01*
X165082075Y-95805305D01*
X165066921Y-95817741D01*
X164971683Y-95912979D01*
X164965388Y-95920649D01*
X164963394Y-95922379D01*
X164961500Y-95925386D01*
X164959247Y-95928133D01*
X164958236Y-95930572D01*
X164952951Y-95938969D01*
X164905332Y-96034207D01*
X164898326Y-96052515D01*
X164898071Y-96056098D01*
X164896696Y-96059419D01*
X164894775Y-96078928D01*
X164783664Y-96078928D01*
X164783664Y-94875945D01*
X164895560Y-94875945D01*
X164898326Y-94914865D01*
X164915776Y-94949764D01*
X164945252Y-94975329D01*
X164963152Y-94983320D01*
X165678547Y-95221785D01*
X164963152Y-95460250D01*
X164945252Y-95468241D01*
X164915776Y-95493806D01*
X164898326Y-95528705D01*
X164895560Y-95567625D01*
X164907898Y-95604641D01*
X164933463Y-95634117D01*
X164968362Y-95651567D01*
X165007282Y-95654333D01*
X165026398Y-95649986D01*
X166026397Y-95316653D01*
X166044298Y-95308662D01*
X166049699Y-95303977D01*
X166056086Y-95300784D01*
X166064298Y-95291315D01*
X166073774Y-95283097D01*
X166076969Y-95276705D01*
X166081651Y-95271308D01*
X166085617Y-95259410D01*
X166091223Y-95248198D01*
X166091729Y-95241073D01*
X166093990Y-95234292D01*
X166093100Y-95221785D01*
X166093990Y-95209278D01*
X166091729Y-95202496D01*
X166091223Y-95195372D01*
X166085617Y-95184159D01*
X166081651Y-95172262D01*
X166076969Y-95166864D01*
X166073774Y-95160473D01*
X166064298Y-95152254D01*
X166056086Y-95142786D01*
X166049699Y-95139592D01*
X166044298Y-95134908D01*
X166026397Y-95126917D01*
X165026398Y-94793584D01*
X165007282Y-94789237D01*
X164968362Y-94792003D01*
X164933463Y-94809453D01*
X164907898Y-94838929D01*
X164895560Y-94875945D01*
X164783664Y-94875945D01*
X164783664Y-94174166D01*
X164894775Y-94174166D01*
X164894775Y-94555118D01*
X164896696Y-94574627D01*
X164911628Y-94610675D01*
X164939218Y-94638265D01*
X164975266Y-94653197D01*
X164994775Y-94655118D01*
X165994775Y-94655118D01*
X166014284Y-94653197D01*
X166050332Y-94638265D01*
X166077922Y-94610675D01*
X166092854Y-94574627D01*
X166092854Y-94535609D01*
X166077922Y-94499561D01*
X166050332Y-94471971D01*
X166014284Y-94457039D01*
X165994775Y-94455118D01*
X165618584Y-94455118D01*
X165618584Y-94174166D01*
X165616663Y-94154657D01*
X165615287Y-94151336D01*
X165615033Y-94147753D01*
X165608027Y-94129444D01*
X165560408Y-94034207D01*
X165555122Y-94025810D01*
X165554112Y-94023370D01*
X165551858Y-94020624D01*
X165549965Y-94017616D01*
X165547967Y-94015883D01*
X165541675Y-94008217D01*
X165494057Y-93960598D01*
X165486386Y-93954303D01*
X165484657Y-93952309D01*
X165481649Y-93950415D01*
X165478903Y-93948162D01*
X165476463Y-93947151D01*
X165468067Y-93941866D01*
X165372829Y-93894247D01*
X165354521Y-93887241D01*
X165350937Y-93886986D01*
X165347617Y-93885611D01*
X165328108Y-93883690D01*
X165185251Y-93883690D01*
X165165742Y-93885611D01*
X165162421Y-93886986D01*
X165158838Y-93887241D01*
X165140529Y-93894247D01*
X165045292Y-93941866D01*
X165036895Y-93947151D01*
X165034455Y-93948162D01*
X165031709Y-93950415D01*
X165028701Y-93952309D01*
X165026968Y-93954306D01*
X165019302Y-93960599D01*
X164971683Y-94008217D01*
X164965388Y-94015887D01*
X164963394Y-94017617D01*
X164961500Y-94020624D01*
X164959247Y-94023371D01*
X164958236Y-94025810D01*
X164952951Y-94034207D01*
X164905332Y-94129445D01*
X164898326Y-94147753D01*
X164898071Y-94151336D01*
X164896696Y-94154657D01*
X164894775Y-94174166D01*
X164783664Y-94174166D01*
X164783664Y-93772579D01*
X166205886Y-93772579D01*
X166205886Y-96718610D01*
G37*
D10*
X157888095Y-121054819D02*
X157888095Y-121864342D01*
X157888095Y-121864342D02*
X157935714Y-121959580D01*
X157935714Y-121959580D02*
X157983333Y-122007200D01*
X157983333Y-122007200D02*
X158078571Y-122054819D01*
X158078571Y-122054819D02*
X158269047Y-122054819D01*
X158269047Y-122054819D02*
X158364285Y-122007200D01*
X158364285Y-122007200D02*
X158411904Y-121959580D01*
X158411904Y-121959580D02*
X158459523Y-121864342D01*
X158459523Y-121864342D02*
X158459523Y-121054819D01*
X159459523Y-122054819D02*
X158888095Y-122054819D01*
X159173809Y-122054819D02*
X159173809Y-121054819D01*
X159173809Y-121054819D02*
X159078571Y-121197676D01*
X159078571Y-121197676D02*
X158983333Y-121292914D01*
X158983333Y-121292914D02*
X158888095Y-121340533D01*
X159369580Y-111343726D02*
X159417200Y-111391345D01*
X159417200Y-111391345D02*
X159464819Y-111534202D01*
X159464819Y-111534202D02*
X159464819Y-111629440D01*
X159464819Y-111629440D02*
X159417200Y-111772297D01*
X159417200Y-111772297D02*
X159321961Y-111867535D01*
X159321961Y-111867535D02*
X159226723Y-111915154D01*
X159226723Y-111915154D02*
X159036247Y-111962773D01*
X159036247Y-111962773D02*
X158893390Y-111962773D01*
X158893390Y-111962773D02*
X158702914Y-111915154D01*
X158702914Y-111915154D02*
X158607676Y-111867535D01*
X158607676Y-111867535D02*
X158512438Y-111772297D01*
X158512438Y-111772297D02*
X158464819Y-111629440D01*
X158464819Y-111629440D02*
X158464819Y-111534202D01*
X158464819Y-111534202D02*
X158512438Y-111391345D01*
X158512438Y-111391345D02*
X158560057Y-111343726D01*
X158798152Y-110486583D02*
X159464819Y-110486583D01*
X158417200Y-110724678D02*
X159131485Y-110962773D01*
X159131485Y-110962773D02*
X159131485Y-110343726D01*
X168864761Y-107780057D02*
X168769523Y-107732438D01*
X168769523Y-107732438D02*
X168674285Y-107637200D01*
X168674285Y-107637200D02*
X168531428Y-107494342D01*
X168531428Y-107494342D02*
X168436190Y-107446723D01*
X168436190Y-107446723D02*
X168340952Y-107446723D01*
X168388571Y-107684819D02*
X168293333Y-107637200D01*
X168293333Y-107637200D02*
X168198095Y-107541961D01*
X168198095Y-107541961D02*
X168150476Y-107351485D01*
X168150476Y-107351485D02*
X168150476Y-107018152D01*
X168150476Y-107018152D02*
X168198095Y-106827676D01*
X168198095Y-106827676D02*
X168293333Y-106732438D01*
X168293333Y-106732438D02*
X168388571Y-106684819D01*
X168388571Y-106684819D02*
X168579047Y-106684819D01*
X168579047Y-106684819D02*
X168674285Y-106732438D01*
X168674285Y-106732438D02*
X168769523Y-106827676D01*
X168769523Y-106827676D02*
X168817142Y-107018152D01*
X168817142Y-107018152D02*
X168817142Y-107351485D01*
X168817142Y-107351485D02*
X168769523Y-107541961D01*
X168769523Y-107541961D02*
X168674285Y-107637200D01*
X168674285Y-107637200D02*
X168579047Y-107684819D01*
X168579047Y-107684819D02*
X168388571Y-107684819D01*
X169769523Y-107684819D02*
X169198095Y-107684819D01*
X169483809Y-107684819D02*
X169483809Y-106684819D01*
X169483809Y-106684819D02*
X169388571Y-106827676D01*
X169388571Y-106827676D02*
X169293333Y-106922914D01*
X169293333Y-106922914D02*
X169198095Y-106970533D01*
X151136666Y-86994819D02*
X151136666Y-87709104D01*
X151136666Y-87709104D02*
X151089047Y-87851961D01*
X151089047Y-87851961D02*
X150993809Y-87947200D01*
X150993809Y-87947200D02*
X150850952Y-87994819D01*
X150850952Y-87994819D02*
X150755714Y-87994819D01*
X152136666Y-87994819D02*
X151565238Y-87994819D01*
X151850952Y-87994819D02*
X151850952Y-86994819D01*
X151850952Y-86994819D02*
X151755714Y-87137676D01*
X151755714Y-87137676D02*
X151660476Y-87232914D01*
X151660476Y-87232914D02*
X151565238Y-87280533D01*
X151176666Y-115744819D02*
X151176666Y-116459104D01*
X151176666Y-116459104D02*
X151129047Y-116601961D01*
X151129047Y-116601961D02*
X151033809Y-116697200D01*
X151033809Y-116697200D02*
X150890952Y-116744819D01*
X150890952Y-116744819D02*
X150795714Y-116744819D01*
X151605238Y-115840057D02*
X151652857Y-115792438D01*
X151652857Y-115792438D02*
X151748095Y-115744819D01*
X151748095Y-115744819D02*
X151986190Y-115744819D01*
X151986190Y-115744819D02*
X152081428Y-115792438D01*
X152081428Y-115792438D02*
X152129047Y-115840057D01*
X152129047Y-115840057D02*
X152176666Y-115935295D01*
X152176666Y-115935295D02*
X152176666Y-116030533D01*
X152176666Y-116030533D02*
X152129047Y-116173390D01*
X152129047Y-116173390D02*
X151557619Y-116744819D01*
X151557619Y-116744819D02*
X152176666Y-116744819D01*
X137278820Y-125990653D02*
X137278820Y-124990653D01*
X137278820Y-124990653D02*
X137516915Y-124990653D01*
X137516915Y-124990653D02*
X137659772Y-125038272D01*
X137659772Y-125038272D02*
X137755010Y-125133510D01*
X137755010Y-125133510D02*
X137802629Y-125228748D01*
X137802629Y-125228748D02*
X137850248Y-125419224D01*
X137850248Y-125419224D02*
X137850248Y-125562081D01*
X137850248Y-125562081D02*
X137802629Y-125752557D01*
X137802629Y-125752557D02*
X137755010Y-125847795D01*
X137755010Y-125847795D02*
X137659772Y-125943034D01*
X137659772Y-125943034D02*
X137516915Y-125990653D01*
X137516915Y-125990653D02*
X137278820Y-125990653D01*
X138755010Y-124990653D02*
X138278820Y-124990653D01*
X138278820Y-124990653D02*
X138231201Y-125466843D01*
X138231201Y-125466843D02*
X138278820Y-125419224D01*
X138278820Y-125419224D02*
X138374058Y-125371605D01*
X138374058Y-125371605D02*
X138612153Y-125371605D01*
X138612153Y-125371605D02*
X138707391Y-125419224D01*
X138707391Y-125419224D02*
X138755010Y-125466843D01*
X138755010Y-125466843D02*
X138802629Y-125562081D01*
X138802629Y-125562081D02*
X138802629Y-125800176D01*
X138802629Y-125800176D02*
X138755010Y-125895414D01*
X138755010Y-125895414D02*
X138707391Y-125943034D01*
X138707391Y-125943034D02*
X138612153Y-125990653D01*
X138612153Y-125990653D02*
X138374058Y-125990653D01*
X138374058Y-125990653D02*
X138278820Y-125943034D01*
X138278820Y-125943034D02*
X138231201Y-125895414D01*
X147101905Y-90974819D02*
X147101905Y-91784342D01*
X147101905Y-91784342D02*
X147149524Y-91879580D01*
X147149524Y-91879580D02*
X147197143Y-91927200D01*
X147197143Y-91927200D02*
X147292381Y-91974819D01*
X147292381Y-91974819D02*
X147482857Y-91974819D01*
X147482857Y-91974819D02*
X147578095Y-91927200D01*
X147578095Y-91927200D02*
X147625714Y-91879580D01*
X147625714Y-91879580D02*
X147673333Y-91784342D01*
X147673333Y-91784342D02*
X147673333Y-90974819D01*
X148625714Y-90974819D02*
X148149524Y-90974819D01*
X148149524Y-90974819D02*
X148101905Y-91451009D01*
X148101905Y-91451009D02*
X148149524Y-91403390D01*
X148149524Y-91403390D02*
X148244762Y-91355771D01*
X148244762Y-91355771D02*
X148482857Y-91355771D01*
X148482857Y-91355771D02*
X148578095Y-91403390D01*
X148578095Y-91403390D02*
X148625714Y-91451009D01*
X148625714Y-91451009D02*
X148673333Y-91546247D01*
X148673333Y-91546247D02*
X148673333Y-91784342D01*
X148673333Y-91784342D02*
X148625714Y-91879580D01*
X148625714Y-91879580D02*
X148578095Y-91927200D01*
X148578095Y-91927200D02*
X148482857Y-91974819D01*
X148482857Y-91974819D02*
X148244762Y-91974819D01*
X148244762Y-91974819D02*
X148149524Y-91927200D01*
X148149524Y-91927200D02*
X148101905Y-91879580D01*
X141228820Y-128104819D02*
X141228820Y-127104819D01*
X141228820Y-127104819D02*
X141466915Y-127104819D01*
X141466915Y-127104819D02*
X141609772Y-127152438D01*
X141609772Y-127152438D02*
X141705010Y-127247676D01*
X141705010Y-127247676D02*
X141752629Y-127342914D01*
X141752629Y-127342914D02*
X141800248Y-127533390D01*
X141800248Y-127533390D02*
X141800248Y-127676247D01*
X141800248Y-127676247D02*
X141752629Y-127866723D01*
X141752629Y-127866723D02*
X141705010Y-127961961D01*
X141705010Y-127961961D02*
X141609772Y-128057200D01*
X141609772Y-128057200D02*
X141466915Y-128104819D01*
X141466915Y-128104819D02*
X141228820Y-128104819D01*
X142133582Y-127104819D02*
X142800248Y-127104819D01*
X142800248Y-127104819D02*
X142371677Y-128104819D01*
X158100952Y-91874819D02*
X157767619Y-91398628D01*
X157529524Y-91874819D02*
X157529524Y-90874819D01*
X157529524Y-90874819D02*
X157910476Y-90874819D01*
X157910476Y-90874819D02*
X158005714Y-90922438D01*
X158005714Y-90922438D02*
X158053333Y-90970057D01*
X158053333Y-90970057D02*
X158100952Y-91065295D01*
X158100952Y-91065295D02*
X158100952Y-91208152D01*
X158100952Y-91208152D02*
X158053333Y-91303390D01*
X158053333Y-91303390D02*
X158005714Y-91351009D01*
X158005714Y-91351009D02*
X157910476Y-91398628D01*
X157910476Y-91398628D02*
X157529524Y-91398628D01*
X159053333Y-91874819D02*
X158481905Y-91874819D01*
X158767619Y-91874819D02*
X158767619Y-90874819D01*
X158767619Y-90874819D02*
X158672381Y-91017676D01*
X158672381Y-91017676D02*
X158577143Y-91112914D01*
X158577143Y-91112914D02*
X158481905Y-91160533D01*
X159958095Y-90874819D02*
X159481905Y-90874819D01*
X159481905Y-90874819D02*
X159434286Y-91351009D01*
X159434286Y-91351009D02*
X159481905Y-91303390D01*
X159481905Y-91303390D02*
X159577143Y-91255771D01*
X159577143Y-91255771D02*
X159815238Y-91255771D01*
X159815238Y-91255771D02*
X159910476Y-91303390D01*
X159910476Y-91303390D02*
X159958095Y-91351009D01*
X159958095Y-91351009D02*
X160005714Y-91446247D01*
X160005714Y-91446247D02*
X160005714Y-91684342D01*
X160005714Y-91684342D02*
X159958095Y-91779580D01*
X159958095Y-91779580D02*
X159910476Y-91827200D01*
X159910476Y-91827200D02*
X159815238Y-91874819D01*
X159815238Y-91874819D02*
X159577143Y-91874819D01*
X159577143Y-91874819D02*
X159481905Y-91827200D01*
X159481905Y-91827200D02*
X159434286Y-91779580D01*
X137278820Y-129186486D02*
X137278820Y-128186486D01*
X137278820Y-128186486D02*
X137516915Y-128186486D01*
X137516915Y-128186486D02*
X137659772Y-128234105D01*
X137659772Y-128234105D02*
X137755010Y-128329343D01*
X137755010Y-128329343D02*
X137802629Y-128424581D01*
X137802629Y-128424581D02*
X137850248Y-128615057D01*
X137850248Y-128615057D02*
X137850248Y-128757914D01*
X137850248Y-128757914D02*
X137802629Y-128948390D01*
X137802629Y-128948390D02*
X137755010Y-129043628D01*
X137755010Y-129043628D02*
X137659772Y-129138867D01*
X137659772Y-129138867D02*
X137516915Y-129186486D01*
X137516915Y-129186486D02*
X137278820Y-129186486D01*
X138707391Y-128186486D02*
X138516915Y-128186486D01*
X138516915Y-128186486D02*
X138421677Y-128234105D01*
X138421677Y-128234105D02*
X138374058Y-128281724D01*
X138374058Y-128281724D02*
X138278820Y-128424581D01*
X138278820Y-128424581D02*
X138231201Y-128615057D01*
X138231201Y-128615057D02*
X138231201Y-128996009D01*
X138231201Y-128996009D02*
X138278820Y-129091247D01*
X138278820Y-129091247D02*
X138326439Y-129138867D01*
X138326439Y-129138867D02*
X138421677Y-129186486D01*
X138421677Y-129186486D02*
X138612153Y-129186486D01*
X138612153Y-129186486D02*
X138707391Y-129138867D01*
X138707391Y-129138867D02*
X138755010Y-129091247D01*
X138755010Y-129091247D02*
X138802629Y-128996009D01*
X138802629Y-128996009D02*
X138802629Y-128757914D01*
X138802629Y-128757914D02*
X138755010Y-128662676D01*
X138755010Y-128662676D02*
X138707391Y-128615057D01*
X138707391Y-128615057D02*
X138612153Y-128567438D01*
X138612153Y-128567438D02*
X138421677Y-128567438D01*
X138421677Y-128567438D02*
X138326439Y-128615057D01*
X138326439Y-128615057D02*
X138278820Y-128662676D01*
X138278820Y-128662676D02*
X138231201Y-128757914D01*
X144924285Y-92881009D02*
X145067142Y-92928628D01*
X145067142Y-92928628D02*
X145114761Y-92976247D01*
X145114761Y-92976247D02*
X145162380Y-93071485D01*
X145162380Y-93071485D02*
X145162380Y-93214342D01*
X145162380Y-93214342D02*
X145114761Y-93309580D01*
X145114761Y-93309580D02*
X145067142Y-93357200D01*
X145067142Y-93357200D02*
X144971904Y-93404819D01*
X144971904Y-93404819D02*
X144590952Y-93404819D01*
X144590952Y-93404819D02*
X144590952Y-92404819D01*
X144590952Y-92404819D02*
X144924285Y-92404819D01*
X144924285Y-92404819D02*
X145019523Y-92452438D01*
X145019523Y-92452438D02*
X145067142Y-92500057D01*
X145067142Y-92500057D02*
X145114761Y-92595295D01*
X145114761Y-92595295D02*
X145114761Y-92690533D01*
X145114761Y-92690533D02*
X145067142Y-92785771D01*
X145067142Y-92785771D02*
X145019523Y-92833390D01*
X145019523Y-92833390D02*
X144924285Y-92881009D01*
X144924285Y-92881009D02*
X144590952Y-92881009D01*
X145448095Y-92404819D02*
X146019523Y-92404819D01*
X145733809Y-93404819D02*
X145733809Y-92404819D01*
X146876666Y-93404819D02*
X146305238Y-93404819D01*
X146590952Y-93404819D02*
X146590952Y-92404819D01*
X146590952Y-92404819D02*
X146495714Y-92547676D01*
X146495714Y-92547676D02*
X146400476Y-92642914D01*
X146400476Y-92642914D02*
X146305238Y-92690533D01*
X161359580Y-111343726D02*
X161407200Y-111391345D01*
X161407200Y-111391345D02*
X161454819Y-111534202D01*
X161454819Y-111534202D02*
X161454819Y-111629440D01*
X161454819Y-111629440D02*
X161407200Y-111772297D01*
X161407200Y-111772297D02*
X161311961Y-111867535D01*
X161311961Y-111867535D02*
X161216723Y-111915154D01*
X161216723Y-111915154D02*
X161026247Y-111962773D01*
X161026247Y-111962773D02*
X160883390Y-111962773D01*
X160883390Y-111962773D02*
X160692914Y-111915154D01*
X160692914Y-111915154D02*
X160597676Y-111867535D01*
X160597676Y-111867535D02*
X160502438Y-111772297D01*
X160502438Y-111772297D02*
X160454819Y-111629440D01*
X160454819Y-111629440D02*
X160454819Y-111534202D01*
X160454819Y-111534202D02*
X160502438Y-111391345D01*
X160502438Y-111391345D02*
X160550057Y-111343726D01*
X160454819Y-110438964D02*
X160454819Y-110915154D01*
X160454819Y-110915154D02*
X160931009Y-110962773D01*
X160931009Y-110962773D02*
X160883390Y-110915154D01*
X160883390Y-110915154D02*
X160835771Y-110819916D01*
X160835771Y-110819916D02*
X160835771Y-110581821D01*
X160835771Y-110581821D02*
X160883390Y-110486583D01*
X160883390Y-110486583D02*
X160931009Y-110438964D01*
X160931009Y-110438964D02*
X161026247Y-110391345D01*
X161026247Y-110391345D02*
X161264342Y-110391345D01*
X161264342Y-110391345D02*
X161359580Y-110438964D01*
X161359580Y-110438964D02*
X161407200Y-110486583D01*
X161407200Y-110486583D02*
X161454819Y-110581821D01*
X161454819Y-110581821D02*
X161454819Y-110819916D01*
X161454819Y-110819916D02*
X161407200Y-110915154D01*
X161407200Y-110915154D02*
X161359580Y-110962773D01*
X137278820Y-122794819D02*
X137278820Y-121794819D01*
X137278820Y-121794819D02*
X137516915Y-121794819D01*
X137516915Y-121794819D02*
X137659772Y-121842438D01*
X137659772Y-121842438D02*
X137755010Y-121937676D01*
X137755010Y-121937676D02*
X137802629Y-122032914D01*
X137802629Y-122032914D02*
X137850248Y-122223390D01*
X137850248Y-122223390D02*
X137850248Y-122366247D01*
X137850248Y-122366247D02*
X137802629Y-122556723D01*
X137802629Y-122556723D02*
X137755010Y-122651961D01*
X137755010Y-122651961D02*
X137659772Y-122747200D01*
X137659772Y-122747200D02*
X137516915Y-122794819D01*
X137516915Y-122794819D02*
X137278820Y-122794819D01*
X138707391Y-122128152D02*
X138707391Y-122794819D01*
X138469296Y-121747200D02*
X138231201Y-122461485D01*
X138231201Y-122461485D02*
X138850248Y-122461485D01*
X137278820Y-119598986D02*
X137278820Y-118598986D01*
X137278820Y-118598986D02*
X137516915Y-118598986D01*
X137516915Y-118598986D02*
X137659772Y-118646605D01*
X137659772Y-118646605D02*
X137755010Y-118741843D01*
X137755010Y-118741843D02*
X137802629Y-118837081D01*
X137802629Y-118837081D02*
X137850248Y-119027557D01*
X137850248Y-119027557D02*
X137850248Y-119170414D01*
X137850248Y-119170414D02*
X137802629Y-119360890D01*
X137802629Y-119360890D02*
X137755010Y-119456128D01*
X137755010Y-119456128D02*
X137659772Y-119551367D01*
X137659772Y-119551367D02*
X137516915Y-119598986D01*
X137516915Y-119598986D02*
X137278820Y-119598986D01*
X138183582Y-118598986D02*
X138802629Y-118598986D01*
X138802629Y-118598986D02*
X138469296Y-118979938D01*
X138469296Y-118979938D02*
X138612153Y-118979938D01*
X138612153Y-118979938D02*
X138707391Y-119027557D01*
X138707391Y-119027557D02*
X138755010Y-119075176D01*
X138755010Y-119075176D02*
X138802629Y-119170414D01*
X138802629Y-119170414D02*
X138802629Y-119408509D01*
X138802629Y-119408509D02*
X138755010Y-119503747D01*
X138755010Y-119503747D02*
X138707391Y-119551367D01*
X138707391Y-119551367D02*
X138612153Y-119598986D01*
X138612153Y-119598986D02*
X138326439Y-119598986D01*
X138326439Y-119598986D02*
X138231201Y-119551367D01*
X138231201Y-119551367D02*
X138183582Y-119503747D01*
X163758095Y-110884819D02*
X163758095Y-111694342D01*
X163758095Y-111694342D02*
X163805714Y-111789580D01*
X163805714Y-111789580D02*
X163853333Y-111837200D01*
X163853333Y-111837200D02*
X163948571Y-111884819D01*
X163948571Y-111884819D02*
X164139047Y-111884819D01*
X164139047Y-111884819D02*
X164234285Y-111837200D01*
X164234285Y-111837200D02*
X164281904Y-111789580D01*
X164281904Y-111789580D02*
X164329523Y-111694342D01*
X164329523Y-111694342D02*
X164329523Y-110884819D01*
X164758095Y-110980057D02*
X164805714Y-110932438D01*
X164805714Y-110932438D02*
X164900952Y-110884819D01*
X164900952Y-110884819D02*
X165139047Y-110884819D01*
X165139047Y-110884819D02*
X165234285Y-110932438D01*
X165234285Y-110932438D02*
X165281904Y-110980057D01*
X165281904Y-110980057D02*
X165329523Y-111075295D01*
X165329523Y-111075295D02*
X165329523Y-111170533D01*
X165329523Y-111170533D02*
X165281904Y-111313390D01*
X165281904Y-111313390D02*
X164710476Y-111884819D01*
X164710476Y-111884819D02*
X165329523Y-111884819D01*
X162616588Y-122007200D02*
X162759445Y-122054819D01*
X162759445Y-122054819D02*
X162997540Y-122054819D01*
X162997540Y-122054819D02*
X163092778Y-122007200D01*
X163092778Y-122007200D02*
X163140397Y-121959580D01*
X163140397Y-121959580D02*
X163188016Y-121864342D01*
X163188016Y-121864342D02*
X163188016Y-121769104D01*
X163188016Y-121769104D02*
X163140397Y-121673866D01*
X163140397Y-121673866D02*
X163092778Y-121626247D01*
X163092778Y-121626247D02*
X162997540Y-121578628D01*
X162997540Y-121578628D02*
X162807064Y-121531009D01*
X162807064Y-121531009D02*
X162711826Y-121483390D01*
X162711826Y-121483390D02*
X162664207Y-121435771D01*
X162664207Y-121435771D02*
X162616588Y-121340533D01*
X162616588Y-121340533D02*
X162616588Y-121245295D01*
X162616588Y-121245295D02*
X162664207Y-121150057D01*
X162664207Y-121150057D02*
X162711826Y-121102438D01*
X162711826Y-121102438D02*
X162807064Y-121054819D01*
X162807064Y-121054819D02*
X163045159Y-121054819D01*
X163045159Y-121054819D02*
X163188016Y-121102438D01*
X163521350Y-121054819D02*
X163759445Y-122054819D01*
X163759445Y-122054819D02*
X163949921Y-121340533D01*
X163949921Y-121340533D02*
X164140397Y-122054819D01*
X164140397Y-122054819D02*
X164378493Y-121054819D01*
X165283254Y-122054819D02*
X164711826Y-122054819D01*
X164997540Y-122054819D02*
X164997540Y-121054819D01*
X164997540Y-121054819D02*
X164902302Y-121197676D01*
X164902302Y-121197676D02*
X164807064Y-121292914D01*
X164807064Y-121292914D02*
X164711826Y-121340533D01*
X158120952Y-88809580D02*
X158073333Y-88857200D01*
X158073333Y-88857200D02*
X157930476Y-88904819D01*
X157930476Y-88904819D02*
X157835238Y-88904819D01*
X157835238Y-88904819D02*
X157692381Y-88857200D01*
X157692381Y-88857200D02*
X157597143Y-88761961D01*
X157597143Y-88761961D02*
X157549524Y-88666723D01*
X157549524Y-88666723D02*
X157501905Y-88476247D01*
X157501905Y-88476247D02*
X157501905Y-88333390D01*
X157501905Y-88333390D02*
X157549524Y-88142914D01*
X157549524Y-88142914D02*
X157597143Y-88047676D01*
X157597143Y-88047676D02*
X157692381Y-87952438D01*
X157692381Y-87952438D02*
X157835238Y-87904819D01*
X157835238Y-87904819D02*
X157930476Y-87904819D01*
X157930476Y-87904819D02*
X158073333Y-87952438D01*
X158073333Y-87952438D02*
X158120952Y-88000057D01*
X159073333Y-88904819D02*
X158501905Y-88904819D01*
X158787619Y-88904819D02*
X158787619Y-87904819D01*
X158787619Y-87904819D02*
X158692381Y-88047676D01*
X158692381Y-88047676D02*
X158597143Y-88142914D01*
X158597143Y-88142914D02*
X158501905Y-88190533D01*
X159692381Y-87904819D02*
X159787619Y-87904819D01*
X159787619Y-87904819D02*
X159882857Y-87952438D01*
X159882857Y-87952438D02*
X159930476Y-88000057D01*
X159930476Y-88000057D02*
X159978095Y-88095295D01*
X159978095Y-88095295D02*
X160025714Y-88285771D01*
X160025714Y-88285771D02*
X160025714Y-88523866D01*
X160025714Y-88523866D02*
X159978095Y-88714342D01*
X159978095Y-88714342D02*
X159930476Y-88809580D01*
X159930476Y-88809580D02*
X159882857Y-88857200D01*
X159882857Y-88857200D02*
X159787619Y-88904819D01*
X159787619Y-88904819D02*
X159692381Y-88904819D01*
X159692381Y-88904819D02*
X159597143Y-88857200D01*
X159597143Y-88857200D02*
X159549524Y-88809580D01*
X159549524Y-88809580D02*
X159501905Y-88714342D01*
X159501905Y-88714342D02*
X159454286Y-88523866D01*
X159454286Y-88523866D02*
X159454286Y-88285771D01*
X159454286Y-88285771D02*
X159501905Y-88095295D01*
X159501905Y-88095295D02*
X159549524Y-88000057D01*
X159549524Y-88000057D02*
X159597143Y-87952438D01*
X159597143Y-87952438D02*
X159692381Y-87904819D01*
X138133333Y-94629580D02*
X138085714Y-94677200D01*
X138085714Y-94677200D02*
X137942857Y-94724819D01*
X137942857Y-94724819D02*
X137847619Y-94724819D01*
X137847619Y-94724819D02*
X137704762Y-94677200D01*
X137704762Y-94677200D02*
X137609524Y-94581961D01*
X137609524Y-94581961D02*
X137561905Y-94486723D01*
X137561905Y-94486723D02*
X137514286Y-94296247D01*
X137514286Y-94296247D02*
X137514286Y-94153390D01*
X137514286Y-94153390D02*
X137561905Y-93962914D01*
X137561905Y-93962914D02*
X137609524Y-93867676D01*
X137609524Y-93867676D02*
X137704762Y-93772438D01*
X137704762Y-93772438D02*
X137847619Y-93724819D01*
X137847619Y-93724819D02*
X137942857Y-93724819D01*
X137942857Y-93724819D02*
X138085714Y-93772438D01*
X138085714Y-93772438D02*
X138133333Y-93820057D01*
X138704762Y-94153390D02*
X138609524Y-94105771D01*
X138609524Y-94105771D02*
X138561905Y-94058152D01*
X138561905Y-94058152D02*
X138514286Y-93962914D01*
X138514286Y-93962914D02*
X138514286Y-93915295D01*
X138514286Y-93915295D02*
X138561905Y-93820057D01*
X138561905Y-93820057D02*
X138609524Y-93772438D01*
X138609524Y-93772438D02*
X138704762Y-93724819D01*
X138704762Y-93724819D02*
X138895238Y-93724819D01*
X138895238Y-93724819D02*
X138990476Y-93772438D01*
X138990476Y-93772438D02*
X139038095Y-93820057D01*
X139038095Y-93820057D02*
X139085714Y-93915295D01*
X139085714Y-93915295D02*
X139085714Y-93962914D01*
X139085714Y-93962914D02*
X139038095Y-94058152D01*
X139038095Y-94058152D02*
X138990476Y-94105771D01*
X138990476Y-94105771D02*
X138895238Y-94153390D01*
X138895238Y-94153390D02*
X138704762Y-94153390D01*
X138704762Y-94153390D02*
X138609524Y-94201009D01*
X138609524Y-94201009D02*
X138561905Y-94248628D01*
X138561905Y-94248628D02*
X138514286Y-94343866D01*
X138514286Y-94343866D02*
X138514286Y-94534342D01*
X138514286Y-94534342D02*
X138561905Y-94629580D01*
X138561905Y-94629580D02*
X138609524Y-94677200D01*
X138609524Y-94677200D02*
X138704762Y-94724819D01*
X138704762Y-94724819D02*
X138895238Y-94724819D01*
X138895238Y-94724819D02*
X138990476Y-94677200D01*
X138990476Y-94677200D02*
X139038095Y-94629580D01*
X139038095Y-94629580D02*
X139085714Y-94534342D01*
X139085714Y-94534342D02*
X139085714Y-94343866D01*
X139085714Y-94343866D02*
X139038095Y-94248628D01*
X139038095Y-94248628D02*
X138990476Y-94201009D01*
X138990476Y-94201009D02*
X138895238Y-94153390D01*
X134104761Y-107964819D02*
X133771428Y-107488628D01*
X133533333Y-107964819D02*
X133533333Y-106964819D01*
X133533333Y-106964819D02*
X133914285Y-106964819D01*
X133914285Y-106964819D02*
X134009523Y-107012438D01*
X134009523Y-107012438D02*
X134057142Y-107060057D01*
X134057142Y-107060057D02*
X134104761Y-107155295D01*
X134104761Y-107155295D02*
X134104761Y-107298152D01*
X134104761Y-107298152D02*
X134057142Y-107393390D01*
X134057142Y-107393390D02*
X134009523Y-107441009D01*
X134009523Y-107441009D02*
X133914285Y-107488628D01*
X133914285Y-107488628D02*
X133533333Y-107488628D01*
X134390476Y-106964819D02*
X134723809Y-107964819D01*
X134723809Y-107964819D02*
X135057142Y-106964819D01*
X135914285Y-107964819D02*
X135342857Y-107964819D01*
X135628571Y-107964819D02*
X135628571Y-106964819D01*
X135628571Y-106964819D02*
X135533333Y-107107676D01*
X135533333Y-107107676D02*
X135438095Y-107202914D01*
X135438095Y-107202914D02*
X135342857Y-107250533D01*
X169123333Y-111884819D02*
X168647143Y-111884819D01*
X168647143Y-111884819D02*
X168647143Y-110884819D01*
X169980476Y-111884819D02*
X169409048Y-111884819D01*
X169694762Y-111884819D02*
X169694762Y-110884819D01*
X169694762Y-110884819D02*
X169599524Y-111027676D01*
X169599524Y-111027676D02*
X169504286Y-111122914D01*
X169504286Y-111122914D02*
X169409048Y-111170533D01*
X136981905Y-98434819D02*
X136981905Y-97434819D01*
X136981905Y-97434819D02*
X137220000Y-97434819D01*
X137220000Y-97434819D02*
X137362857Y-97482438D01*
X137362857Y-97482438D02*
X137458095Y-97577676D01*
X137458095Y-97577676D02*
X137505714Y-97672914D01*
X137505714Y-97672914D02*
X137553333Y-97863390D01*
X137553333Y-97863390D02*
X137553333Y-98006247D01*
X137553333Y-98006247D02*
X137505714Y-98196723D01*
X137505714Y-98196723D02*
X137458095Y-98291961D01*
X137458095Y-98291961D02*
X137362857Y-98387200D01*
X137362857Y-98387200D02*
X137220000Y-98434819D01*
X137220000Y-98434819D02*
X136981905Y-98434819D01*
X137934286Y-97530057D02*
X137981905Y-97482438D01*
X137981905Y-97482438D02*
X138077143Y-97434819D01*
X138077143Y-97434819D02*
X138315238Y-97434819D01*
X138315238Y-97434819D02*
X138410476Y-97482438D01*
X138410476Y-97482438D02*
X138458095Y-97530057D01*
X138458095Y-97530057D02*
X138505714Y-97625295D01*
X138505714Y-97625295D02*
X138505714Y-97720533D01*
X138505714Y-97720533D02*
X138458095Y-97863390D01*
X138458095Y-97863390D02*
X137886667Y-98434819D01*
X137886667Y-98434819D02*
X138505714Y-98434819D01*
D14*
%TO.C,C3*%
X134478748Y-113453125D02*
X135001252Y-113453125D01*
X134478748Y-114923125D02*
X135001252Y-114923125D01*
%TO.C,C1*%
X134478748Y-108516875D02*
X135001252Y-108516875D01*
X134478748Y-109986875D02*
X135001252Y-109986875D01*
%TO.C,U1*%
X159570000Y-120660000D02*
X161330000Y-120660000D01*
X160530000Y-117590000D02*
X159730000Y-117590000D01*
X160530000Y-117590000D02*
X161330000Y-117590000D01*
X159230000Y-117640000D02*
X158990000Y-117310000D01*
X159470000Y-117310000D01*
X159230000Y-117640000D01*
G36*
X159230000Y-117640000D02*
G01*
X158990000Y-117310000D01*
X159470000Y-117310000D01*
X159230000Y-117640000D01*
G37*
%TO.C,C4*%
X158275000Y-113273748D02*
X158275000Y-113796252D01*
X159745000Y-113273748D02*
X159745000Y-113796252D01*
%TO.C,Q1*%
X167800000Y-108500000D02*
X168460000Y-108500000D01*
X167800000Y-109910000D02*
X167800000Y-108500000D01*
X169460000Y-108500000D02*
X170120000Y-108500000D01*
X170120000Y-109910000D02*
X170120000Y-108500000D01*
X167820000Y-110280000D02*
X167490000Y-110520000D01*
X167490000Y-110040000D01*
X167820000Y-110280000D01*
G36*
X167820000Y-110280000D02*
G01*
X167490000Y-110520000D01*
X167490000Y-110040000D01*
X167820000Y-110280000D01*
G37*
%TO.C,J1*%
X132319989Y-86530000D02*
X132319989Y-71990000D01*
X141525000Y-87494338D02*
X141775000Y-87061325D01*
X141775000Y-87061325D02*
X142025000Y-87494338D01*
X142025000Y-87494338D02*
X141525000Y-87494338D01*
X170620000Y-71990000D02*
X170620000Y-86530000D01*
X170620000Y-86530000D02*
X132319989Y-86530000D01*
%TO.C,C2*%
X134478748Y-110985000D02*
X135001252Y-110985000D01*
X134478748Y-112455000D02*
X135001252Y-112455000D01*
D15*
%TO.C,J2*%
X146303000Y-121041000D02*
X146303000Y-131175600D01*
X146303000Y-131175600D02*
X156717000Y-131175600D01*
X156717000Y-121041000D02*
X146303000Y-121041000D01*
X156717000Y-131175600D02*
X156717000Y-121041000D01*
D16*
X148081000Y-115600000D02*
G75*
G02*
X147319000Y-115600000I-381000J0D01*
G01*
X147319000Y-115600000D02*
G75*
G02*
X148081000Y-115600000I381000J0D01*
G01*
D14*
%TO.C,D5*%
X133831915Y-124575834D02*
X133831915Y-126495834D01*
X133831915Y-126495834D02*
X136516915Y-126495834D01*
X136516915Y-124575834D02*
X133831915Y-124575834D01*
%TO.C,U5*%
X151363810Y-87810000D02*
X150363810Y-87810000D01*
X151363810Y-87810000D02*
X152363810Y-87810000D01*
X151363810Y-92230000D02*
X150363810Y-92230000D01*
X151363810Y-92230000D02*
X152363810Y-92230000D01*
X149838810Y-87835000D02*
X149598810Y-87505000D01*
X150078810Y-87505000D01*
X149838810Y-87835000D01*
G36*
X149838810Y-87835000D02*
G01*
X149598810Y-87505000D01*
X150078810Y-87505000D01*
X149838810Y-87835000D01*
G37*
D17*
%TO.C,D7*%
X141066915Y-125900000D02*
X141066915Y-125900000D01*
X141066915Y-126000000D02*
X141066915Y-126000000D01*
X141066915Y-125900000D02*
G75*
G02*
X141066915Y-126000000I0J-50000D01*
G01*
X141066915Y-126000000D02*
G75*
G02*
X141066915Y-125900000I0J50000D01*
G01*
D14*
%TO.C,R15*%
X155516746Y-90685000D02*
X155970874Y-90685000D01*
X155516746Y-92155000D02*
X155970874Y-92155000D01*
%TO.C,D6*%
X133831915Y-127771667D02*
X133831915Y-129691667D01*
X133831915Y-129691667D02*
X136516915Y-129691667D01*
X136516915Y-127771667D02*
X133831915Y-127771667D01*
%TO.C,R1*%
X168385000Y-119347064D02*
X168385000Y-118892936D01*
X169855000Y-119347064D02*
X169855000Y-118892936D01*
D10*
%TO.C,SW2*%
X166570000Y-89090000D02*
X167170000Y-89090000D01*
X166570000Y-97690000D02*
X166570000Y-89090000D01*
X167170000Y-97690000D02*
X166570000Y-97690000D01*
D17*
X168770000Y-99190000D02*
X168770000Y-99190000D01*
X168870000Y-99190000D02*
X168870000Y-99190000D01*
D10*
X170270000Y-89090000D02*
X170570000Y-89090000D01*
X170270000Y-97690000D02*
X170570000Y-97690000D01*
X170570000Y-90890000D02*
X170970000Y-90890000D01*
X170570000Y-92890000D02*
X170970000Y-92890000D01*
X170570000Y-97690000D02*
X170570000Y-89090000D01*
D17*
X168770000Y-99190000D02*
G75*
G02*
X168870000Y-99190000I50000J0D01*
G01*
X168870000Y-99190000D02*
G75*
G02*
X168770000Y-99190000I-50000J0D01*
G01*
D18*
%TO.C,BT1*%
X137376750Y-103780000D02*
X136376750Y-103780000D01*
X154044010Y-93745000D02*
X144209490Y-93745000D01*
X154044010Y-113815000D02*
X144209490Y-113815000D01*
X163886750Y-100290000D02*
X160280750Y-100290000D01*
X163886750Y-101680000D02*
X163886750Y-100290000D01*
X163886750Y-107270000D02*
X160280750Y-107270000D01*
X163886750Y-107270000D02*
X163886750Y-105880000D01*
X165626750Y-107030000D02*
X165626750Y-106030000D01*
X166126750Y-106530000D02*
X165126750Y-106530000D01*
X144209490Y-113815000D02*
G75*
G02*
X144209490Y-93745000I4917290J10035000D01*
G01*
X154044010Y-93745000D02*
G75*
G02*
X159568751Y-99799430I-4917270J-10034980D01*
G01*
X159568750Y-107760570D02*
G75*
G02*
X154044010Y-113814999I-10442010J3980550D01*
G01*
X159568750Y-107760570D02*
G75*
G02*
X160280750Y-107270000I712008J-271415D01*
G01*
X160280750Y-100290000D02*
G75*
G02*
X159568750Y-99799430I8J761985D01*
G01*
D14*
%TO.C,C5*%
X160265000Y-113796252D02*
X160265000Y-113273748D01*
X161735000Y-113796252D02*
X161735000Y-113273748D01*
%TO.C,D4*%
X133831915Y-121380000D02*
X133831915Y-123300000D01*
X133831915Y-123300000D02*
X136516915Y-123300000D01*
X136516915Y-121380000D02*
X133831915Y-121380000D01*
%TO.C,D1*%
X165960000Y-118080000D02*
X165960000Y-120765000D01*
X165960000Y-120765000D02*
X167880000Y-120765000D01*
X167880000Y-120765000D02*
X167880000Y-118080000D01*
%TO.C,D3*%
X133831915Y-118184167D02*
X133831915Y-120104167D01*
X133831915Y-120104167D02*
X136516915Y-120104167D01*
X136516915Y-118184167D02*
X133831915Y-118184167D01*
%TO.C,U2*%
X165100000Y-112600000D02*
X163700000Y-112600000D01*
X165100000Y-114920000D02*
X163700000Y-114920000D01*
X165760000Y-115200000D02*
X165280000Y-115200000D01*
X165520000Y-114870000D01*
X165760000Y-115200000D01*
G36*
X165760000Y-115200000D02*
G01*
X165280000Y-115200000D01*
X165520000Y-114870000D01*
X165760000Y-115200000D01*
G37*
%TO.C,SW1*%
X160719921Y-122870000D02*
X160719921Y-129330000D01*
X160719921Y-122870000D02*
X160749921Y-122870000D01*
X160719921Y-129330000D02*
X160749921Y-129330000D01*
X165249921Y-122870000D02*
X162649921Y-122870000D01*
X165249921Y-129330000D02*
X162649921Y-129330000D01*
X167149921Y-122870000D02*
X167179921Y-122870000D01*
X167179921Y-122870000D02*
X167179921Y-129330000D01*
X167179921Y-129330000D02*
X167149921Y-129330000D01*
%TO.C,C10*%
X155502558Y-87715000D02*
X156025062Y-87715000D01*
X155502558Y-89185000D02*
X156025062Y-89185000D01*
%TO.C,C8*%
X132290000Y-88680000D02*
X133990000Y-88680000D01*
X132290000Y-93135563D02*
X132290000Y-88680000D01*
X133052500Y-94752500D02*
X133677500Y-94752500D01*
X133354437Y-94200000D02*
X132290000Y-93135563D01*
X133354437Y-94200000D02*
X133990000Y-94200000D01*
X133365000Y-95065000D02*
X133365000Y-94440000D01*
X136745563Y-94200000D02*
X136110000Y-94200000D01*
X136745563Y-94200000D02*
X137810000Y-93135563D01*
X137810000Y-88680000D02*
X136110000Y-88680000D01*
X137810000Y-93135563D02*
X137810000Y-88680000D01*
%TO.C,RV1*%
X132340000Y-100650000D02*
X133470000Y-100650000D01*
X132340000Y-105370000D02*
X132340000Y-100650000D01*
X132670000Y-105370000D02*
X132340000Y-105370000D01*
X134970000Y-105370000D02*
X134430000Y-105370000D01*
X135930000Y-100650000D02*
X137060000Y-100650000D01*
X137060000Y-100650000D02*
X137060000Y-105370000D01*
X137060000Y-105370000D02*
X136730000Y-105370000D01*
D13*
%TO.C,L1*%
X168730000Y-112310000D02*
X168330000Y-112310000D01*
X168730000Y-115310000D02*
X168330000Y-115310000D01*
D17*
X170530000Y-113810000D02*
X170530000Y-113810000D01*
X170630000Y-113810000D02*
X170630000Y-113810000D01*
X170530000Y-113810000D02*
G75*
G02*
X170630000Y-113810000I50000J0D01*
G01*
X170630000Y-113810000D02*
G75*
G02*
X170530000Y-113810000I-50000J0D01*
G01*
D14*
%TO.C,D2*%
X133035000Y-97020000D02*
X133035000Y-98940000D01*
X133035000Y-98940000D02*
X135720000Y-98940000D01*
X135720000Y-97020000D02*
X133035000Y-97020000D01*
%TD*%
M02*
