%TF.GenerationSoftware,KiCad,Pcbnew,9.0.4*%
%TF.CreationDate,2025-09-17T11:37:43+01:00*%
%TF.ProjectId,PinCheck-4,50696e43-6865-4636-9b2d-342e6b696361,rev?*%
%TF.SameCoordinates,Original*%
%TF.FileFunction,Copper,L2,Inr*%
%TF.FilePolarity,Positive*%
%FSLAX46Y46*%
G04 Gerber Fmt 4.6, Leading zero omitted, Abs format (unit mm)*
G04 Created by KiCad (PCBNEW 9.0.4) date 2025-09-17 11:37:43*
%MOMM*%
%LPD*%
G01*
G04 APERTURE LIST*
%TA.AperFunction,ComponentPad*%
%ADD10C,4.000000*%
%TD*%
%TA.AperFunction,ComponentPad*%
%ADD11R,1.600000X1.600000*%
%TD*%
%TA.AperFunction,ComponentPad*%
%ADD12C,1.600000*%
%TD*%
%TA.AperFunction,ComponentPad*%
%ADD13C,1.574800*%
%TD*%
%TA.AperFunction,ComponentPad*%
%ADD14C,1.300000*%
%TD*%
%TA.AperFunction,ComponentPad*%
%ADD15C,2.250000*%
%TD*%
%TA.AperFunction,ViaPad*%
%ADD16C,0.600000*%
%TD*%
%TA.AperFunction,Conductor*%
%ADD17C,0.250000*%
%TD*%
%TA.AperFunction,Conductor*%
%ADD18C,0.200000*%
%TD*%
G04 APERTURE END LIST*
D10*
%TO.N,N/C*%
%TO.C,J1*%
X168120000Y-83320000D03*
X134820000Y-83320000D03*
D11*
%TO.N,unconnected-(J1-Pad1)*%
X141775000Y-84740000D03*
D12*
%TO.N,Net-(U5-S1A)*%
X144545000Y-84740000D03*
%TO.N,Net-(U5-S1B)*%
X147315000Y-84740000D03*
%TO.N,Net-(U5-S2B)*%
X150085000Y-84740000D03*
%TO.N,unconnected-(J1-Pad5)*%
X152855000Y-84740000D03*
%TO.N,unconnected-(J1-Pad6)*%
X155625000Y-84740000D03*
%TO.N,unconnected-(J1-Pad7)*%
X158395000Y-84740000D03*
%TO.N,unconnected-(J1-Pad8)*%
X161165000Y-84740000D03*
%TO.N,Net-(J1-P9)*%
X143160000Y-81900000D03*
%TO.N,Net-(J1-P10)*%
X145930000Y-81900000D03*
%TO.N,Net-(J1-P111)*%
X148700000Y-81900000D03*
%TO.N,unconnected-(J1-P12-Pad12)*%
X151470000Y-81900000D03*
%TO.N,unconnected-(J1-P13-Pad13)*%
X154240000Y-81900000D03*
%TO.N,unconnected-(J1-P14-Pad14)*%
X157010000Y-81900000D03*
%TO.N,unconnected-(J1-P15-Pad15)*%
X159780000Y-81900000D03*
%TD*%
D13*
%TO.N,Net-(U8-I{slash}O1)*%
%TO.C,J2*%
X147700000Y-118120000D03*
%TO.N,Net-(U8-I{slash}O2)*%
X150240000Y-118120000D03*
%TO.N,Net-(U8-I{slash}O3)*%
X152780000Y-118120000D03*
%TO.N,Net-(U8-I{slash}O4)*%
X155320000Y-118120000D03*
%TD*%
D14*
%TO.N,VCC*%
%TO.C,SW2*%
X168770000Y-95390000D03*
%TO.N,Net-(SW2-COM)*%
X168770000Y-93390000D03*
%TO.N,unconnected-(SW2-NC-Pad3)*%
X168770000Y-91390000D03*
D15*
%TO.N,GND*%
X168770000Y-97490000D03*
X168770000Y-89290000D03*
%TD*%
D16*
%TO.N,GND*%
X140072500Y-128360000D03*
X137570000Y-130760000D03*
X156890000Y-114480000D03*
X136770001Y-130760000D03*
X169140000Y-117340000D03*
X165900000Y-112140000D03*
X139410000Y-124468750D03*
%TO.N,VCC*%
X160519999Y-103575000D03*
X147509999Y-103575000D03*
X133989999Y-104695000D03*
X133190000Y-103575000D03*
X132780000Y-109251875D03*
X159720000Y-104695000D03*
X133190000Y-96150000D03*
X146710001Y-89010000D03*
X159720000Y-121460000D03*
X143420000Y-99930000D03*
X133989999Y-103575000D03*
X152610001Y-87120000D03*
X167190000Y-94990000D03*
X146710000Y-103575000D03*
X166480000Y-113750000D03*
X165140000Y-118542499D03*
X160519999Y-104695000D03*
X153410000Y-87120000D03*
X159720000Y-103575000D03*
X165140000Y-117742500D03*
X146710000Y-121460000D03*
X146710001Y-90130000D03*
X161000000Y-115450000D03*
X147509999Y-121460000D03*
X147509999Y-120340000D03*
X146710000Y-120340000D03*
X147509999Y-104695000D03*
X133989999Y-96150000D03*
X147510000Y-89010000D03*
X147510000Y-90130000D03*
X167190000Y-95789999D03*
X133190000Y-104695000D03*
X146710000Y-104695000D03*
X132780000Y-111720000D03*
X132780000Y-114188125D03*
X160519999Y-121460000D03*
%TO.N,Net-(Q1-D)*%
X165460000Y-115480000D03*
X169740000Y-108170000D03*
X158960000Y-113485000D03*
X162420000Y-114824000D03*
X169545000Y-114080000D03*
%TO.N,Net-(U3-THR)*%
X139340000Y-97420000D03*
X139340000Y-90810000D03*
%TO.N,CLK*%
X139410000Y-99780000D03*
%TO.N,Net-(D2-K)*%
X142480000Y-87150000D03*
%TO.N,Q0*%
X161143972Y-93659998D03*
X168200000Y-100960000D03*
X153070000Y-94510000D03*
X145930000Y-107740000D03*
%TO.N,Net-(D3-K)*%
X132780000Y-119159072D03*
%TO.N,Net-(D4-K)*%
X132780000Y-122390000D03*
%TO.N,Q1*%
X146840000Y-109469000D03*
X166280000Y-108929000D03*
X152160000Y-96480000D03*
%TO.N,Q2*%
X157330000Y-97230000D03*
X138070000Y-111960000D03*
X164860000Y-110380000D03*
%TO.N,Net-(D5-K)*%
X132780000Y-125560000D03*
%TO.N,Net-(D6-K)*%
X132780000Y-128720000D03*
%TO.N,Q3*%
X139660000Y-105900000D03*
X165300000Y-108210000D03*
X153180000Y-98820000D03*
%TO.N,Net-(D7-A_RED)*%
X136670000Y-117620000D03*
%TO.N,Net-(D7-A_GREEN)*%
X135590000Y-120840000D03*
%TO.N,Net-(U5-S2B)*%
X145170000Y-91680000D03*
%TO.N,Net-(J1-P10)*%
X153846880Y-89157530D03*
%TO.N,Net-(U2-L)*%
X167515000Y-114080000D03*
X164045000Y-115449000D03*
%TO.N,R*%
X132780000Y-115360000D03*
X148500000Y-106930000D03*
%TO.N,G*%
X132780000Y-118170000D03*
X153340000Y-105670000D03*
%TO.N,Net-(R10-Pad1)*%
X142480000Y-94330000D03*
%TO.N,Net-(U5-D1)*%
X159590000Y-98300000D03*
%TO.N,Net-(U5-D2)*%
X161940000Y-91030000D03*
X147890000Y-92570000D03*
%TO.N,Net-(U5-D3)*%
X159430000Y-95950000D03*
%TO.N,Net-(U5-D4)*%
X155815735Y-89665735D03*
X162140000Y-98240000D03*
X160500000Y-90950000D03*
%TO.N,NOT_S1*%
X143100000Y-110759000D03*
X159864786Y-124951000D03*
%TO.N,NOT_S0*%
X144490000Y-107700000D03*
X160230000Y-127500000D03*
%TO.N,S1*%
X164910000Y-123687500D03*
X153330000Y-126195000D03*
%TO.N,S0*%
X165620000Y-126226500D03*
X152210000Y-123040000D03*
X166760000Y-106900000D03*
%TO.N,S2*%
X148060000Y-126210000D03*
X159980000Y-110095000D03*
X169870000Y-128510000D03*
X157540000Y-130018500D03*
%TO.N,S3*%
X161630000Y-106890000D03*
X146753058Y-129186942D03*
X157780000Y-115250000D03*
%TO.N,NOT_S2*%
X138070000Y-110740000D03*
X148610000Y-127540000D03*
%TO.N,NOT_S3*%
X138070000Y-106920000D03*
X146900000Y-126210000D03*
%TO.N,Net-(U10-Pad3)*%
X151940000Y-112040000D03*
X143380000Y-107750000D03*
%TO.N,Net-(SW2-COM)*%
X149317817Y-87237960D03*
X161250000Y-89700000D03*
X158160000Y-89670000D03*
%TO.N,Net-(J1-P9)*%
X157090000Y-94330000D03*
%TO.N,Net-(J1-P111)*%
X154461189Y-89670000D03*
%TO.N,Net-(U8-I{slash}O4)*%
X165620000Y-128750000D03*
%TO.N,Net-(U8-I{slash}O3)*%
X165620000Y-127490000D03*
X157920000Y-126226500D03*
%TO.N,Net-(U8-I{slash}O2)*%
X166730000Y-124957500D03*
X137700000Y-115290000D03*
X150250000Y-115290000D03*
%TO.N,Net-(U8-I{slash}O1)*%
X137845001Y-118106415D03*
X164990000Y-122380000D03*
X142530000Y-118440000D03*
%TD*%
D17*
%TO.N,Net-(Q1-D)*%
X169740000Y-113885000D02*
X169740000Y-108170000D01*
X169545000Y-114080000D02*
X169740000Y-113885000D01*
D18*
%TO.N,Q0*%
X168200000Y-100960000D02*
X168200000Y-100590000D01*
X161269998Y-93659998D02*
X161143972Y-93659998D01*
X145930000Y-107740000D02*
X151330000Y-102340000D01*
X151330000Y-96250000D02*
X153070000Y-94510000D01*
X151330000Y-102340000D02*
X151330000Y-96250000D01*
X168200000Y-100590000D02*
X161269998Y-93659998D01*
%TO.N,Q1*%
X152160000Y-96480000D02*
X152170000Y-96490000D01*
X165740000Y-109469000D02*
X146840000Y-109469000D01*
X152170000Y-96490000D02*
X152170000Y-109469000D01*
X152170000Y-109469000D02*
X146840000Y-109469000D01*
X166280000Y-108929000D02*
X165740000Y-109469000D01*
%TO.N,Q2*%
X166800000Y-110380000D02*
X167200000Y-109980000D01*
X164860000Y-110380000D02*
X166800000Y-110380000D01*
X167200000Y-108540000D02*
X157330000Y-98670000D01*
X157330000Y-98670000D02*
X157330000Y-97230000D01*
X167200000Y-109980000D02*
X167200000Y-108540000D01*
%TO.N,Q3*%
X165300000Y-108210000D02*
X158240000Y-108210000D01*
X158240000Y-108210000D02*
X153180000Y-103150000D01*
X153180000Y-103150000D02*
X153180000Y-98820000D01*
%TO.N,Net-(J1-P10)*%
X148590000Y-83889950D02*
X148590000Y-87820000D01*
X145930000Y-81900000D02*
X146600050Y-81900000D01*
X148590000Y-87820000D02*
X149927530Y-89157530D01*
X146600050Y-81900000D02*
X148590000Y-83889950D01*
X149927530Y-89157530D02*
X153846880Y-89157530D01*
%TO.N,Net-(U5-D2)*%
X160400000Y-92570000D02*
X161940000Y-91030000D01*
X147890000Y-92570000D02*
X160400000Y-92570000D01*
D17*
%TO.N,NOT_S1*%
X159843786Y-124930000D02*
X147830000Y-124930000D01*
X143770000Y-120870000D02*
X143770000Y-111429000D01*
X159864786Y-124951000D02*
X159843786Y-124930000D01*
X147830000Y-124930000D02*
X143770000Y-120870000D01*
X143770000Y-111429000D02*
X143100000Y-110759000D01*
%TO.N,NOT_S0*%
X144490000Y-107700000D02*
X144530000Y-107700000D01*
X161310000Y-126420000D02*
X160230000Y-127500000D01*
X148444702Y-124080000D02*
X160340000Y-124080000D01*
X160340000Y-124080000D02*
X161310000Y-125050000D01*
X145410000Y-121045298D02*
X148444702Y-124080000D01*
X161310000Y-125050000D02*
X161310000Y-126420000D01*
X144530000Y-107700000D02*
X145410000Y-108580000D01*
X145410000Y-108580000D02*
X145410000Y-121045298D01*
%TO.N,S0*%
X165620000Y-126226500D02*
X168873500Y-126226500D01*
X168873500Y-126226500D02*
X170430000Y-124670000D01*
X170430000Y-107720000D02*
X169650000Y-106940000D01*
X166800000Y-106940000D02*
X166760000Y-106900000D01*
X169650000Y-106940000D02*
X166800000Y-106940000D01*
X170430000Y-124670000D02*
X170430000Y-107720000D01*
%TO.N,S2*%
X169660000Y-128710000D02*
X169670000Y-128710000D01*
X157931500Y-130410000D02*
X167960000Y-130410000D01*
X157540000Y-130018500D02*
X157931500Y-130410000D01*
X169670000Y-128710000D02*
X169870000Y-128510000D01*
X167960000Y-130410000D02*
X169660000Y-128710000D01*
%TO.N,NOT_S2*%
X138070000Y-110740000D02*
X134690000Y-114120000D01*
X134690000Y-126600000D02*
X135630000Y-127540000D01*
X135630000Y-127540000D02*
X148610000Y-127540000D01*
X134690000Y-114120000D02*
X134690000Y-126600000D01*
%TO.N,NOT_S3*%
X140220000Y-120160000D02*
X140220000Y-109070000D01*
X146230000Y-126170000D02*
X140220000Y-120160000D01*
X146900000Y-126150000D02*
X146880000Y-126170000D01*
X140220000Y-109070000D02*
X138070000Y-106920000D01*
X146880000Y-126170000D02*
X146230000Y-126170000D01*
D18*
%TO.N,Net-(SW2-COM)*%
X149800857Y-87721000D02*
X156211000Y-87721000D01*
X168770000Y-93390000D02*
X165050000Y-89670000D01*
X165050000Y-89670000D02*
X164930000Y-89670000D01*
X149317817Y-87237960D02*
X149800857Y-87721000D01*
X164930000Y-89670000D02*
X161280000Y-89670000D01*
X161280000Y-89670000D02*
X161250000Y-89700000D01*
X156211000Y-87721000D02*
X158160000Y-89670000D01*
%TO.N,Net-(J1-P9)*%
X155931000Y-93171000D02*
X145131000Y-93171000D01*
X157090000Y-94330000D02*
X155931000Y-93171000D01*
X143160000Y-91200000D02*
X143160000Y-81900000D01*
X145131000Y-93171000D02*
X143160000Y-91200000D01*
%TO.N,Net-(J1-P111)*%
X149730000Y-79690000D02*
X148700000Y-80720000D01*
X154461189Y-89670000D02*
X155261189Y-90470000D01*
X161890000Y-79690000D02*
X149730000Y-79690000D01*
X155261189Y-90470000D02*
X159330000Y-90470000D01*
X163180000Y-86620000D02*
X163180000Y-80980000D01*
X148700000Y-80720000D02*
X148700000Y-81900000D01*
X159330000Y-90470000D02*
X163180000Y-86620000D01*
X163180000Y-80980000D02*
X161890000Y-79690000D01*
%TD*%
%TA.AperFunction,Conductor*%
%TO.N,GND*%
G36*
X170512539Y-72120185D02*
G01*
X170558294Y-72172989D01*
X170569500Y-72224500D01*
X170569500Y-82100093D01*
X170549815Y-82167132D01*
X170497011Y-82212887D01*
X170427853Y-82222831D01*
X170364297Y-82193806D01*
X170333780Y-82153895D01*
X170311946Y-82108557D01*
X170245212Y-82002351D01*
X170162523Y-81870752D01*
X169987416Y-81651175D01*
X169788825Y-81452584D01*
X169569248Y-81277477D01*
X169360862Y-81146539D01*
X169331442Y-81128053D01*
X169078411Y-81006200D01*
X168813329Y-80913443D01*
X168813317Y-80913439D01*
X168539512Y-80850945D01*
X168539494Y-80850942D01*
X168260431Y-80819500D01*
X168260425Y-80819500D01*
X167979575Y-80819500D01*
X167979568Y-80819500D01*
X167700505Y-80850942D01*
X167700487Y-80850945D01*
X167426682Y-80913439D01*
X167426670Y-80913443D01*
X167161588Y-81006200D01*
X166908557Y-81128053D01*
X166670753Y-81277476D01*
X166451175Y-81452583D01*
X166252583Y-81651175D01*
X166077476Y-81870753D01*
X165928053Y-82108557D01*
X165806200Y-82361588D01*
X165713443Y-82626670D01*
X165713439Y-82626682D01*
X165650945Y-82900487D01*
X165650942Y-82900505D01*
X165619500Y-83179568D01*
X165619500Y-83460431D01*
X165650942Y-83739494D01*
X165650945Y-83739512D01*
X165713439Y-84013317D01*
X165713443Y-84013329D01*
X165806200Y-84278411D01*
X165928053Y-84531442D01*
X165928055Y-84531445D01*
X166077477Y-84769248D01*
X166135776Y-84842352D01*
X166242284Y-84975910D01*
X166252584Y-84988825D01*
X166451175Y-85187416D01*
X166670752Y-85362523D01*
X166908555Y-85511945D01*
X167161592Y-85633801D01*
X167360680Y-85703465D01*
X167426670Y-85726556D01*
X167426682Y-85726560D01*
X167700491Y-85789055D01*
X167700497Y-85789055D01*
X167700505Y-85789057D01*
X167886547Y-85810018D01*
X167979569Y-85820499D01*
X167979572Y-85820500D01*
X167979575Y-85820500D01*
X168260428Y-85820500D01*
X168260429Y-85820499D01*
X168403055Y-85804429D01*
X168539494Y-85789057D01*
X168539499Y-85789056D01*
X168539509Y-85789055D01*
X168813318Y-85726560D01*
X169078408Y-85633801D01*
X169331445Y-85511945D01*
X169569248Y-85362523D01*
X169788825Y-85187416D01*
X169987416Y-84988825D01*
X170162523Y-84769248D01*
X170311945Y-84531445D01*
X170325119Y-84504089D01*
X170333780Y-84486105D01*
X170380602Y-84434245D01*
X170448029Y-84415932D01*
X170514653Y-84436979D01*
X170559321Y-84490705D01*
X170569500Y-84539906D01*
X170569500Y-106675547D01*
X170549815Y-106742586D01*
X170497011Y-106788341D01*
X170427853Y-106798285D01*
X170364297Y-106769260D01*
X170357819Y-106763228D01*
X170146058Y-106551468D01*
X170135859Y-106541269D01*
X170135858Y-106541267D01*
X170048733Y-106454142D01*
X169989740Y-106414724D01*
X169946286Y-106385688D01*
X169946287Y-106385688D01*
X169946285Y-106385687D01*
X169887829Y-106361475D01*
X169865792Y-106352347D01*
X169832452Y-106338537D01*
X169772029Y-106326518D01*
X169767306Y-106325578D01*
X169767304Y-106325578D01*
X169711610Y-106314500D01*
X169711607Y-106314500D01*
X169711606Y-106314500D01*
X167357941Y-106314500D01*
X167290902Y-106294815D01*
X167275036Y-106282030D01*
X167274999Y-106282076D01*
X167270288Y-106278210D01*
X167139185Y-106190609D01*
X167139172Y-106190602D01*
X166993501Y-106130264D01*
X166993489Y-106130261D01*
X166838845Y-106099500D01*
X166838842Y-106099500D01*
X166681158Y-106099500D01*
X166681155Y-106099500D01*
X166526510Y-106130261D01*
X166526498Y-106130264D01*
X166380827Y-106190602D01*
X166380814Y-106190609D01*
X166249711Y-106278210D01*
X166249707Y-106278213D01*
X166138213Y-106389707D01*
X166138207Y-106389715D01*
X166126314Y-106407513D01*
X166072700Y-106452316D01*
X166003375Y-106461020D01*
X165940349Y-106430863D01*
X165935534Y-106426299D01*
X157966819Y-98457584D01*
X157952115Y-98430656D01*
X157935523Y-98404838D01*
X157934631Y-98398637D01*
X157933334Y-98396261D01*
X157930500Y-98369903D01*
X157930500Y-98221153D01*
X158789500Y-98221153D01*
X158789500Y-98378846D01*
X158820261Y-98533489D01*
X158820264Y-98533501D01*
X158880602Y-98679172D01*
X158880609Y-98679185D01*
X158968210Y-98810288D01*
X158968213Y-98810292D01*
X159079707Y-98921786D01*
X159079711Y-98921789D01*
X159210814Y-99009390D01*
X159210827Y-99009397D01*
X159356498Y-99069735D01*
X159356503Y-99069737D01*
X159511153Y-99100499D01*
X159511156Y-99100500D01*
X159511158Y-99100500D01*
X159668844Y-99100500D01*
X159668845Y-99100499D01*
X159823497Y-99069737D01*
X159969179Y-99009394D01*
X160100289Y-98921789D01*
X160211789Y-98810289D01*
X160299394Y-98679179D01*
X160359737Y-98533497D01*
X160390500Y-98378842D01*
X160390500Y-98221158D01*
X160390500Y-98221155D01*
X160390499Y-98221153D01*
X160382166Y-98179257D01*
X160378565Y-98161153D01*
X161339500Y-98161153D01*
X161339500Y-98318846D01*
X161370261Y-98473489D01*
X161370264Y-98473501D01*
X161430602Y-98619172D01*
X161430609Y-98619185D01*
X161518210Y-98750288D01*
X161518213Y-98750292D01*
X161629707Y-98861786D01*
X161629711Y-98861789D01*
X161760814Y-98949390D01*
X161760827Y-98949397D01*
X161905665Y-99009390D01*
X161906503Y-99009737D01*
X162052184Y-99038715D01*
X162061153Y-99040499D01*
X162061156Y-99040500D01*
X162061158Y-99040500D01*
X162218844Y-99040500D01*
X162218845Y-99040499D01*
X162373497Y-99009737D01*
X162519179Y-98949394D01*
X162650289Y-98861789D01*
X162761789Y-98750289D01*
X162849394Y-98619179D01*
X162909737Y-98473497D01*
X162940500Y-98318842D01*
X162940500Y-98161158D01*
X162940500Y-98161155D01*
X162940499Y-98161153D01*
X162930445Y-98110609D01*
X162909737Y-98006503D01*
X162878170Y-97930292D01*
X162849397Y-97860827D01*
X162849390Y-97860814D01*
X162761789Y-97729711D01*
X162761786Y-97729707D01*
X162650292Y-97618213D01*
X162650288Y-97618210D01*
X162519185Y-97530609D01*
X162519172Y-97530602D01*
X162373501Y-97470264D01*
X162373489Y-97470261D01*
X162218845Y-97439500D01*
X162218842Y-97439500D01*
X162061158Y-97439500D01*
X162061155Y-97439500D01*
X161906510Y-97470261D01*
X161906498Y-97470264D01*
X161760827Y-97530602D01*
X161760814Y-97530609D01*
X161629711Y-97618210D01*
X161629707Y-97618213D01*
X161518213Y-97729707D01*
X161518210Y-97729711D01*
X161430609Y-97860814D01*
X161430602Y-97860827D01*
X161370264Y-98006498D01*
X161370261Y-98006510D01*
X161339500Y-98161153D01*
X160378565Y-98161153D01*
X160359738Y-98066508D01*
X160359737Y-98066507D01*
X160359737Y-98066503D01*
X160353010Y-98050263D01*
X160299397Y-97920827D01*
X160299390Y-97920814D01*
X160211789Y-97789711D01*
X160211786Y-97789707D01*
X160100292Y-97678213D01*
X160100288Y-97678210D01*
X159969185Y-97590609D01*
X159969172Y-97590602D01*
X159823501Y-97530264D01*
X159823489Y-97530261D01*
X159668845Y-97499500D01*
X159668842Y-97499500D01*
X159511158Y-97499500D01*
X159511155Y-97499500D01*
X159356510Y-97530261D01*
X159356498Y-97530264D01*
X159210827Y-97590602D01*
X159210814Y-97590609D01*
X159079711Y-97678210D01*
X159079707Y-97678213D01*
X158968213Y-97789707D01*
X158968210Y-97789711D01*
X158880609Y-97920814D01*
X158880602Y-97920827D01*
X158820264Y-98066498D01*
X158820261Y-98066510D01*
X158789500Y-98221153D01*
X157930500Y-98221153D01*
X157930500Y-97809765D01*
X157950185Y-97742726D01*
X157951398Y-97740874D01*
X158039390Y-97609185D01*
X158039390Y-97609184D01*
X158039394Y-97609179D01*
X158099737Y-97463497D01*
X158130500Y-97308842D01*
X158130500Y-97151158D01*
X158130500Y-97151155D01*
X158130499Y-97151153D01*
X158099737Y-96996503D01*
X158097163Y-96990289D01*
X158039397Y-96850827D01*
X158039390Y-96850814D01*
X157951789Y-96719711D01*
X157951786Y-96719707D01*
X157840292Y-96608213D01*
X157840288Y-96608210D01*
X157709185Y-96520609D01*
X157709172Y-96520602D01*
X157563501Y-96460264D01*
X157563489Y-96460261D01*
X157408845Y-96429500D01*
X157408842Y-96429500D01*
X157251158Y-96429500D01*
X157251155Y-96429500D01*
X157096510Y-96460261D01*
X157096498Y-96460264D01*
X156950827Y-96520602D01*
X156950814Y-96520609D01*
X156819711Y-96608210D01*
X156819707Y-96608213D01*
X156708213Y-96719707D01*
X156708210Y-96719711D01*
X156620609Y-96850814D01*
X156620602Y-96850827D01*
X156560264Y-96996498D01*
X156560261Y-96996510D01*
X156529500Y-97151153D01*
X156529500Y-97308846D01*
X156560261Y-97463489D01*
X156560264Y-97463501D01*
X156620602Y-97609172D01*
X156620609Y-97609185D01*
X156708602Y-97740874D01*
X156729480Y-97807551D01*
X156729500Y-97809765D01*
X156729500Y-98583330D01*
X156729499Y-98583348D01*
X156729499Y-98749054D01*
X156729498Y-98749054D01*
X156729499Y-98749057D01*
X156770423Y-98901785D01*
X156784116Y-98925501D01*
X156815292Y-98979500D01*
X156849479Y-99038715D01*
X156968349Y-99157585D01*
X156968355Y-99157590D01*
X160397316Y-102586551D01*
X160398028Y-102587856D01*
X160399319Y-102588600D01*
X160414729Y-102618441D01*
X160430801Y-102647874D01*
X160430694Y-102649357D01*
X160431378Y-102650680D01*
X160428210Y-102684100D01*
X160425817Y-102717566D01*
X160424925Y-102718757D01*
X160424785Y-102720238D01*
X160404059Y-102746629D01*
X160383945Y-102773499D01*
X160382253Y-102774397D01*
X160381632Y-102775189D01*
X160376970Y-102777203D01*
X160350273Y-102791384D01*
X160342203Y-102794183D01*
X160286502Y-102805263D01*
X160164091Y-102855966D01*
X160160637Y-102857165D01*
X160129235Y-102858682D01*
X160097981Y-102862043D01*
X160092572Y-102860454D01*
X160090848Y-102860538D01*
X160088762Y-102859335D01*
X160072547Y-102854574D01*
X159953501Y-102805264D01*
X159953489Y-102805261D01*
X159798845Y-102774500D01*
X159798842Y-102774500D01*
X159641158Y-102774500D01*
X159641155Y-102774500D01*
X159486510Y-102805261D01*
X159486498Y-102805264D01*
X159340827Y-102865602D01*
X159340814Y-102865609D01*
X159209711Y-102953210D01*
X159209707Y-102953213D01*
X159098213Y-103064707D01*
X159098210Y-103064711D01*
X159010609Y-103195814D01*
X159010602Y-103195827D01*
X158950264Y-103341498D01*
X158950261Y-103341510D01*
X158919500Y-103496153D01*
X158919500Y-103653846D01*
X158950261Y-103808489D01*
X158950264Y-103808501D01*
X159010602Y-103954172D01*
X159010612Y-103954190D01*
X159085394Y-104066110D01*
X159106272Y-104132787D01*
X159087787Y-104200167D01*
X159085394Y-104203890D01*
X159010612Y-104315809D01*
X159010602Y-104315827D01*
X158950264Y-104461498D01*
X158950261Y-104461510D01*
X158919500Y-104616153D01*
X158919500Y-104773846D01*
X158950261Y-104928489D01*
X158950264Y-104928501D01*
X159010602Y-105074172D01*
X159010609Y-105074185D01*
X159098210Y-105205288D01*
X159098213Y-105205292D01*
X159209707Y-105316786D01*
X159209711Y-105316789D01*
X159340814Y-105404390D01*
X159340827Y-105404397D01*
X159418356Y-105436510D01*
X159486503Y-105464737D01*
X159641153Y-105495499D01*
X159641156Y-105495500D01*
X159641158Y-105495500D01*
X159798844Y-105495500D01*
X159798845Y-105495499D01*
X159953497Y-105464737D01*
X160072548Y-105415424D01*
X160142016Y-105407956D01*
X160167451Y-105415425D01*
X160218355Y-105436510D01*
X160286502Y-105464737D01*
X160441152Y-105495499D01*
X160441155Y-105495500D01*
X160441157Y-105495500D01*
X160598843Y-105495500D01*
X160598844Y-105495499D01*
X160753496Y-105464737D01*
X160890579Y-105407956D01*
X160899171Y-105404397D01*
X160899171Y-105404396D01*
X160899178Y-105404394D01*
X161030288Y-105316789D01*
X161141788Y-105205289D01*
X161229393Y-105074179D01*
X161289736Y-104928497D01*
X161320499Y-104773842D01*
X161320499Y-104616158D01*
X161320499Y-104616155D01*
X161320498Y-104616153D01*
X161289737Y-104461510D01*
X161289736Y-104461503D01*
X161289734Y-104461498D01*
X161229396Y-104315827D01*
X161229389Y-104315814D01*
X161154604Y-104203891D01*
X161133726Y-104137214D01*
X161152210Y-104069833D01*
X161154604Y-104066109D01*
X161229389Y-103954185D01*
X161229389Y-103954184D01*
X161229393Y-103954179D01*
X161289736Y-103808497D01*
X161299149Y-103761170D01*
X161331532Y-103699262D01*
X161392247Y-103664687D01*
X161462017Y-103668426D01*
X161508447Y-103697682D01*
X165065757Y-107254992D01*
X165099242Y-107316315D01*
X165094258Y-107386007D01*
X165052386Y-107441940D01*
X165025529Y-107457234D01*
X164920824Y-107500604D01*
X164920814Y-107500609D01*
X164789125Y-107588602D01*
X164722447Y-107609480D01*
X164720234Y-107609500D01*
X162341941Y-107609500D01*
X162274902Y-107589815D01*
X162229147Y-107537011D01*
X162219203Y-107467853D01*
X162248228Y-107404297D01*
X162250521Y-107401834D01*
X162251784Y-107400293D01*
X162251789Y-107400289D01*
X162339394Y-107269179D01*
X162399737Y-107123497D01*
X162430500Y-106968842D01*
X162430500Y-106811158D01*
X162430500Y-106811155D01*
X162430499Y-106811153D01*
X162416860Y-106742586D01*
X162399737Y-106656503D01*
X162380224Y-106609394D01*
X162339397Y-106510827D01*
X162339390Y-106510814D01*
X162251789Y-106379711D01*
X162251786Y-106379707D01*
X162140292Y-106268213D01*
X162140288Y-106268210D01*
X162009185Y-106180609D01*
X162009172Y-106180602D01*
X161863501Y-106120264D01*
X161863489Y-106120261D01*
X161708845Y-106089500D01*
X161708842Y-106089500D01*
X161551158Y-106089500D01*
X161551155Y-106089500D01*
X161396510Y-106120261D01*
X161396498Y-106120264D01*
X161250827Y-106180602D01*
X161250814Y-106180609D01*
X161119711Y-106268210D01*
X161119707Y-106268213D01*
X161008213Y-106379707D01*
X161008210Y-106379711D01*
X160920609Y-106510814D01*
X160920602Y-106510827D01*
X160860264Y-106656498D01*
X160860261Y-106656510D01*
X160829500Y-106811153D01*
X160829500Y-106968846D01*
X160860261Y-107123489D01*
X160860264Y-107123501D01*
X160920602Y-107269172D01*
X160920609Y-107269185D01*
X161008210Y-107400288D01*
X161012076Y-107404999D01*
X161010408Y-107406367D01*
X161039225Y-107459142D01*
X161034241Y-107528834D01*
X160992369Y-107584767D01*
X160926905Y-107609184D01*
X160918059Y-107609500D01*
X158540098Y-107609500D01*
X158473059Y-107589815D01*
X158452417Y-107573181D01*
X153816819Y-102937583D01*
X153783334Y-102876260D01*
X153780500Y-102849902D01*
X153780500Y-99399765D01*
X153800185Y-99332726D01*
X153801398Y-99330874D01*
X153889390Y-99199185D01*
X153889390Y-99199184D01*
X153889394Y-99199179D01*
X153949737Y-99053497D01*
X153980500Y-98898842D01*
X153980500Y-98741158D01*
X153980500Y-98741155D01*
X153980499Y-98741153D01*
X153968173Y-98679185D01*
X153949737Y-98586503D01*
X153927783Y-98533501D01*
X153889397Y-98440827D01*
X153889390Y-98440814D01*
X153801789Y-98309711D01*
X153801786Y-98309707D01*
X153690292Y-98198213D01*
X153690288Y-98198210D01*
X153559185Y-98110609D01*
X153559172Y-98110602D01*
X153413501Y-98050264D01*
X153413489Y-98050261D01*
X153258845Y-98019500D01*
X153258842Y-98019500D01*
X153101158Y-98019500D01*
X153101155Y-98019500D01*
X152946510Y-98050261D01*
X152946500Y-98050263D01*
X152941944Y-98052151D01*
X152872475Y-98059614D01*
X152809998Y-98028335D01*
X152774350Y-97968243D01*
X152770500Y-97937586D01*
X152770500Y-97044799D01*
X152790185Y-96977760D01*
X152791398Y-96975908D01*
X152869390Y-96859185D01*
X152869390Y-96859184D01*
X152869394Y-96859179D01*
X152872854Y-96850827D01*
X152894647Y-96798213D01*
X152929737Y-96713497D01*
X152960500Y-96558842D01*
X152960500Y-96401158D01*
X152960500Y-96401155D01*
X152960499Y-96401153D01*
X152955097Y-96373996D01*
X152929737Y-96246503D01*
X152922423Y-96228846D01*
X152869397Y-96100827D01*
X152869390Y-96100814D01*
X152781789Y-95969711D01*
X152781786Y-95969707D01*
X152708338Y-95896259D01*
X152694629Y-95871153D01*
X158629500Y-95871153D01*
X158629500Y-96028846D01*
X158660261Y-96183489D01*
X158660264Y-96183501D01*
X158720602Y-96329172D01*
X158720609Y-96329185D01*
X158808210Y-96460288D01*
X158808213Y-96460292D01*
X158919707Y-96571786D01*
X158919711Y-96571789D01*
X159050814Y-96659390D01*
X159050827Y-96659397D01*
X159196440Y-96719711D01*
X159196503Y-96719737D01*
X159351153Y-96750499D01*
X159351156Y-96750500D01*
X159351158Y-96750500D01*
X159508844Y-96750500D01*
X159508845Y-96750499D01*
X159663497Y-96719737D01*
X159809179Y-96659394D01*
X159940289Y-96571789D01*
X160051789Y-96460289D01*
X160139394Y-96329179D01*
X160199737Y-96183497D01*
X160230500Y-96028842D01*
X160230500Y-95871158D01*
X160230500Y-95871155D01*
X160230499Y-95871153D01*
X160222639Y-95831639D01*
X160199737Y-95716503D01*
X160197521Y-95711152D01*
X160139397Y-95570827D01*
X160139390Y-95570814D01*
X160051789Y-95439711D01*
X160051786Y-95439707D01*
X159940292Y-95328213D01*
X159940288Y-95328210D01*
X159809185Y-95240609D01*
X159809172Y-95240602D01*
X159663501Y-95180264D01*
X159663489Y-95180261D01*
X159508845Y-95149500D01*
X159508842Y-95149500D01*
X159351158Y-95149500D01*
X159351155Y-95149500D01*
X159196510Y-95180261D01*
X159196498Y-95180264D01*
X159050827Y-95240602D01*
X159050814Y-95240609D01*
X158919711Y-95328210D01*
X158919707Y-95328213D01*
X158808213Y-95439707D01*
X158808210Y-95439711D01*
X158720609Y-95570814D01*
X158720602Y-95570827D01*
X158660264Y-95716498D01*
X158660261Y-95716510D01*
X158629500Y-95871153D01*
X152694629Y-95871153D01*
X152674853Y-95834936D01*
X152679837Y-95765244D01*
X152708338Y-95720897D01*
X152858421Y-95570814D01*
X153084665Y-95344570D01*
X153145984Y-95311088D01*
X153148151Y-95310637D01*
X153148840Y-95310500D01*
X153148842Y-95310500D01*
X153303497Y-95279737D01*
X153439264Y-95223501D01*
X153449172Y-95219397D01*
X153449172Y-95219396D01*
X153449179Y-95219394D01*
X153580289Y-95131789D01*
X153691789Y-95020289D01*
X153779394Y-94889179D01*
X153839737Y-94743497D01*
X153870500Y-94588842D01*
X153870500Y-94431158D01*
X153870500Y-94431155D01*
X153870499Y-94431153D01*
X153865923Y-94408149D01*
X153839737Y-94276503D01*
X153836030Y-94267553D01*
X153779397Y-94130827D01*
X153779390Y-94130814D01*
X153691789Y-93999711D01*
X153691786Y-93999707D01*
X153675260Y-93983181D01*
X153641775Y-93921858D01*
X153646759Y-93852166D01*
X153688631Y-93796233D01*
X153754095Y-93771816D01*
X153762941Y-93771500D01*
X155630903Y-93771500D01*
X155697942Y-93791185D01*
X155718584Y-93807819D01*
X156255425Y-94344660D01*
X156288910Y-94405983D01*
X156289361Y-94408149D01*
X156320261Y-94563491D01*
X156320264Y-94563501D01*
X156380602Y-94709172D01*
X156380609Y-94709185D01*
X156468210Y-94840288D01*
X156468213Y-94840292D01*
X156579707Y-94951786D01*
X156579711Y-94951789D01*
X156710814Y-95039390D01*
X156710827Y-95039397D01*
X156856498Y-95099735D01*
X156856503Y-95099737D01*
X157011153Y-95130499D01*
X157011156Y-95130500D01*
X157011158Y-95130500D01*
X157168844Y-95130500D01*
X157168845Y-95130499D01*
X157323497Y-95099737D01*
X157469179Y-95039394D01*
X157600289Y-94951789D01*
X157711789Y-94840289D01*
X157799394Y-94709179D01*
X157859737Y-94563497D01*
X157890500Y-94408842D01*
X157890500Y-94251158D01*
X157890500Y-94251155D01*
X157890499Y-94251153D01*
X157884355Y-94220264D01*
X157859737Y-94096503D01*
X157859735Y-94096498D01*
X157799397Y-93950827D01*
X157799390Y-93950814D01*
X157711789Y-93819711D01*
X157711786Y-93819707D01*
X157600292Y-93708213D01*
X157600288Y-93708210D01*
X157469185Y-93620609D01*
X157469172Y-93620602D01*
X157323501Y-93560264D01*
X157323489Y-93560261D01*
X157168151Y-93529362D01*
X157151394Y-93520597D01*
X157132915Y-93516577D01*
X157107873Y-93497831D01*
X157106240Y-93496977D01*
X157104763Y-93495527D01*
X156991415Y-93382179D01*
X156957932Y-93320858D01*
X156962916Y-93251166D01*
X157004788Y-93195233D01*
X157070252Y-93170816D01*
X157079098Y-93170500D01*
X160294695Y-93170500D01*
X160361734Y-93190185D01*
X160407489Y-93242989D01*
X160417433Y-93312147D01*
X160409256Y-93341953D01*
X160374235Y-93426500D01*
X160374233Y-93426508D01*
X160343472Y-93581151D01*
X160343472Y-93738844D01*
X160374233Y-93893487D01*
X160374236Y-93893499D01*
X160434574Y-94039170D01*
X160434581Y-94039183D01*
X160522182Y-94170286D01*
X160522185Y-94170290D01*
X160633679Y-94281784D01*
X160633683Y-94281787D01*
X160764786Y-94369388D01*
X160764799Y-94369395D01*
X160858361Y-94408149D01*
X160910475Y-94429735D01*
X161065125Y-94460497D01*
X161065128Y-94460498D01*
X161065130Y-94460498D01*
X161169901Y-94460498D01*
X161236940Y-94480183D01*
X161257582Y-94496817D01*
X167392853Y-100632088D01*
X167426338Y-100693411D01*
X167426789Y-100743960D01*
X167399500Y-100881153D01*
X167399500Y-101038846D01*
X167430261Y-101193489D01*
X167430264Y-101193501D01*
X167490602Y-101339172D01*
X167490609Y-101339185D01*
X167578210Y-101470288D01*
X167578213Y-101470292D01*
X167689707Y-101581786D01*
X167689711Y-101581789D01*
X167820814Y-101669390D01*
X167820827Y-101669397D01*
X167966498Y-101729735D01*
X167966503Y-101729737D01*
X168121153Y-101760499D01*
X168121156Y-101760500D01*
X168121158Y-101760500D01*
X168278844Y-101760500D01*
X168278845Y-101760499D01*
X168433497Y-101729737D01*
X168579179Y-101669394D01*
X168710289Y-101581789D01*
X168821789Y-101470289D01*
X168909394Y-101339179D01*
X168969737Y-101193497D01*
X169000500Y-101038842D01*
X169000500Y-100881158D01*
X169000500Y-100881155D01*
X169000499Y-100881153D01*
X168970532Y-100730500D01*
X168969737Y-100726503D01*
X168958650Y-100699737D01*
X168909397Y-100580827D01*
X168909390Y-100580814D01*
X168821789Y-100449711D01*
X168821786Y-100449707D01*
X168793790Y-100421711D01*
X168770299Y-100388955D01*
X168764868Y-100377962D01*
X168759577Y-100358215D01*
X168730639Y-100308095D01*
X168680520Y-100221284D01*
X168568716Y-100109480D01*
X168568715Y-100109479D01*
X168564385Y-100105149D01*
X168564374Y-100105139D01*
X161947252Y-93488017D01*
X161916646Y-93431967D01*
X161915475Y-93432323D01*
X161913769Y-93426697D01*
X161913767Y-93426694D01*
X161913764Y-93426683D01*
X161913709Y-93426501D01*
X161853367Y-93280821D01*
X161853362Y-93280812D01*
X161765761Y-93149709D01*
X161765758Y-93149705D01*
X161654264Y-93038211D01*
X161654260Y-93038208D01*
X161523157Y-92950607D01*
X161523144Y-92950600D01*
X161377473Y-92890262D01*
X161377463Y-92890259D01*
X161230912Y-92861108D01*
X161169001Y-92828723D01*
X161134427Y-92768007D01*
X161138167Y-92698238D01*
X161167420Y-92651813D01*
X161954662Y-91864572D01*
X162015983Y-91831089D01*
X162018150Y-91830638D01*
X162076085Y-91819113D01*
X162173497Y-91799737D01*
X162286166Y-91753067D01*
X162319172Y-91739397D01*
X162319172Y-91739396D01*
X162319179Y-91739394D01*
X162450289Y-91651789D01*
X162561789Y-91540289D01*
X162649394Y-91409179D01*
X162709737Y-91263497D01*
X162740500Y-91108842D01*
X162740500Y-90951158D01*
X162740500Y-90951155D01*
X162740499Y-90951153D01*
X162718269Y-90839397D01*
X162709737Y-90796503D01*
X162691215Y-90751786D01*
X162649397Y-90650827D01*
X162649390Y-90650814D01*
X162561789Y-90519711D01*
X162561786Y-90519707D01*
X162524260Y-90482181D01*
X162490775Y-90420858D01*
X162495759Y-90351166D01*
X162537631Y-90295233D01*
X162603095Y-90270816D01*
X162611941Y-90270500D01*
X164749903Y-90270500D01*
X164816942Y-90290185D01*
X164837584Y-90306819D01*
X167327107Y-92796342D01*
X167356262Y-92842486D01*
X167652813Y-93676628D01*
X167656452Y-93686343D01*
X167658261Y-93691518D01*
X167703787Y-93831636D01*
X167703788Y-93831639D01*
X167749758Y-93921858D01*
X167777703Y-93976703D01*
X167786006Y-93992997D01*
X167892441Y-94139494D01*
X167892445Y-94139499D01*
X168020500Y-94267554D01*
X168050956Y-94289682D01*
X168066619Y-94309996D01*
X168085244Y-94327633D01*
X168087601Y-94337206D01*
X168093621Y-94345013D01*
X168095815Y-94370568D01*
X168101949Y-94395477D01*
X168098756Y-94404804D01*
X168099600Y-94414626D01*
X168087629Y-94437312D01*
X168079323Y-94461581D01*
X168069658Y-94471371D01*
X168066994Y-94476421D01*
X168055055Y-94487208D01*
X168053026Y-94488814D01*
X168020499Y-94512447D01*
X168010270Y-94522675D01*
X168004642Y-94527133D01*
X167978632Y-94537648D01*
X167954008Y-94551093D01*
X167946677Y-94550568D01*
X167939866Y-94553322D01*
X167912302Y-94548107D01*
X167884317Y-94546104D01*
X167878434Y-94541700D01*
X167871214Y-94540334D01*
X167850843Y-94521043D01*
X167828386Y-94504230D01*
X167824555Y-94498816D01*
X167811789Y-94479711D01*
X167811786Y-94479707D01*
X167700292Y-94368213D01*
X167700288Y-94368210D01*
X167569185Y-94280609D01*
X167569172Y-94280602D01*
X167423501Y-94220264D01*
X167423489Y-94220261D01*
X167268845Y-94189500D01*
X167268842Y-94189500D01*
X167111158Y-94189500D01*
X167111155Y-94189500D01*
X166956510Y-94220261D01*
X166956498Y-94220264D01*
X166810827Y-94280602D01*
X166810814Y-94280609D01*
X166679711Y-94368210D01*
X166679707Y-94368213D01*
X166568213Y-94479707D01*
X166568210Y-94479711D01*
X166480609Y-94610814D01*
X166480602Y-94610827D01*
X166420264Y-94756498D01*
X166420261Y-94756510D01*
X166389500Y-94911153D01*
X166389500Y-95068846D01*
X166420261Y-95223489D01*
X166420264Y-95223501D01*
X166469574Y-95342547D01*
X166477043Y-95412016D01*
X166469574Y-95437451D01*
X166420264Y-95556497D01*
X166420261Y-95556509D01*
X166389500Y-95711152D01*
X166389500Y-95868845D01*
X166420261Y-96023488D01*
X166420264Y-96023500D01*
X166480602Y-96169171D01*
X166480609Y-96169184D01*
X166568210Y-96300287D01*
X166568213Y-96300291D01*
X166679707Y-96411785D01*
X166679711Y-96411788D01*
X166810814Y-96499389D01*
X166810827Y-96499396D01*
X166954354Y-96558846D01*
X166956503Y-96559736D01*
X167111153Y-96590498D01*
X167111156Y-96590499D01*
X167111158Y-96590499D01*
X167268844Y-96590499D01*
X167268845Y-96590498D01*
X167423497Y-96559736D01*
X167569179Y-96499393D01*
X167700289Y-96411788D01*
X167811789Y-96300288D01*
X167824554Y-96281184D01*
X167878165Y-96236378D01*
X167947490Y-96227669D01*
X168010518Y-96257823D01*
X168015338Y-96262392D01*
X168020500Y-96267554D01*
X168020505Y-96267558D01*
X168118901Y-96339046D01*
X168167006Y-96373996D01*
X168241171Y-96411785D01*
X168328360Y-96456211D01*
X168328363Y-96456212D01*
X168414476Y-96484191D01*
X168500591Y-96512171D01*
X168583429Y-96525291D01*
X168679449Y-96540500D01*
X168679454Y-96540500D01*
X168860551Y-96540500D01*
X168947259Y-96526765D01*
X169039409Y-96512171D01*
X169211639Y-96456211D01*
X169372994Y-96373996D01*
X169519501Y-96267553D01*
X169647553Y-96139501D01*
X169753996Y-95992994D01*
X169836211Y-95831639D01*
X169892171Y-95659409D01*
X169911391Y-95538059D01*
X169920500Y-95480551D01*
X169920500Y-95299448D01*
X169901622Y-95180261D01*
X169892171Y-95120591D01*
X169836211Y-94948361D01*
X169836211Y-94948360D01*
X169806056Y-94889179D01*
X169753996Y-94787006D01*
X169740396Y-94768287D01*
X169647558Y-94640505D01*
X169647554Y-94640500D01*
X169519501Y-94512447D01*
X169489044Y-94490319D01*
X169446378Y-94434989D01*
X169440399Y-94365376D01*
X169473004Y-94303580D01*
X169489044Y-94289681D01*
X169499909Y-94281787D01*
X169519501Y-94267553D01*
X169647553Y-94139501D01*
X169753996Y-93992994D01*
X169836211Y-93831639D01*
X169892171Y-93659409D01*
X169907874Y-93560263D01*
X169920500Y-93480551D01*
X169920500Y-93299448D01*
X169900076Y-93170500D01*
X169892171Y-93120591D01*
X169836940Y-92950604D01*
X169836212Y-92948363D01*
X169836211Y-92948360D01*
X169791753Y-92861108D01*
X169753996Y-92787006D01*
X169655771Y-92651810D01*
X169647558Y-92640505D01*
X169647554Y-92640500D01*
X169519501Y-92512447D01*
X169489044Y-92490319D01*
X169446378Y-92434989D01*
X169440399Y-92365376D01*
X169473004Y-92303580D01*
X169489044Y-92289681D01*
X169519501Y-92267553D01*
X169647553Y-92139501D01*
X169753996Y-91992994D01*
X169836211Y-91831639D01*
X169892171Y-91659409D01*
X169914347Y-91519397D01*
X169920500Y-91480551D01*
X169920500Y-91299448D01*
X169899950Y-91169707D01*
X169892171Y-91120591D01*
X169843439Y-90970606D01*
X169836212Y-90948363D01*
X169836211Y-90948360D01*
X169801124Y-90879500D01*
X169753996Y-90787006D01*
X169740396Y-90768287D01*
X169647558Y-90640505D01*
X169647554Y-90640500D01*
X169519499Y-90512445D01*
X169519494Y-90512441D01*
X169372997Y-90406006D01*
X169372996Y-90406005D01*
X169372994Y-90406004D01*
X169289570Y-90363497D01*
X169211639Y-90323788D01*
X169211636Y-90323787D01*
X169039410Y-90267829D01*
X168860551Y-90239500D01*
X168860546Y-90239500D01*
X168679454Y-90239500D01*
X168679449Y-90239500D01*
X168500589Y-90267829D01*
X168328363Y-90323787D01*
X168328360Y-90323788D01*
X168167002Y-90406006D01*
X168020505Y-90512441D01*
X168020500Y-90512445D01*
X167892445Y-90640500D01*
X167892441Y-90640505D01*
X167786006Y-90787002D01*
X167703788Y-90948360D01*
X167703787Y-90948363D01*
X167647829Y-91120586D01*
X167645153Y-91137485D01*
X167615221Y-91200619D01*
X167555908Y-91237548D01*
X167486046Y-91236548D01*
X167434999Y-91205764D01*
X165537590Y-89308355D01*
X165537588Y-89308352D01*
X165418717Y-89189481D01*
X165418716Y-89189480D01*
X165304496Y-89123535D01*
X165304496Y-89123534D01*
X165304491Y-89123533D01*
X165296567Y-89118958D01*
X165281786Y-89110423D01*
X165243603Y-89100192D01*
X165129057Y-89069499D01*
X164970943Y-89069499D01*
X164963347Y-89069499D01*
X164963331Y-89069500D01*
X161879096Y-89069500D01*
X161812057Y-89049815D01*
X161766302Y-88997011D01*
X161756358Y-88927853D01*
X161785383Y-88864297D01*
X161791415Y-88857819D01*
X162626245Y-88022989D01*
X163538506Y-87110728D01*
X163538511Y-87110724D01*
X163548714Y-87100520D01*
X163548716Y-87100520D01*
X163660520Y-86988716D01*
X163729497Y-86869244D01*
X163739577Y-86851785D01*
X163780500Y-86699058D01*
X163780500Y-86540943D01*
X163780500Y-80900943D01*
X163780499Y-80900936D01*
X163780113Y-80899497D01*
X163780106Y-80899473D01*
X163758677Y-80819500D01*
X163758677Y-80819499D01*
X163739577Y-80748216D01*
X163739576Y-80748213D01*
X163660524Y-80611290D01*
X163660521Y-80611286D01*
X163660520Y-80611284D01*
X163548716Y-80499480D01*
X163548715Y-80499479D01*
X163544385Y-80495149D01*
X163544374Y-80495139D01*
X162377590Y-79328355D01*
X162377588Y-79328352D01*
X162258717Y-79209481D01*
X162258716Y-79209480D01*
X162171904Y-79159360D01*
X162171904Y-79159359D01*
X162171900Y-79159358D01*
X162121785Y-79130423D01*
X161969057Y-79089499D01*
X161810943Y-79089499D01*
X161803347Y-79089499D01*
X161803331Y-79089500D01*
X149816669Y-79089500D01*
X149816653Y-79089499D01*
X149809057Y-79089499D01*
X149650943Y-79089499D01*
X149543587Y-79118265D01*
X149498210Y-79130424D01*
X149498209Y-79130425D01*
X149448096Y-79159359D01*
X149448095Y-79159360D01*
X149404689Y-79184420D01*
X149361285Y-79209479D01*
X149361282Y-79209481D01*
X149249478Y-79321286D01*
X148530038Y-80040725D01*
X148528445Y-80042317D01*
X148513680Y-80056061D01*
X148509426Y-80061336D01*
X148504730Y-80066033D01*
X148331286Y-80239478D01*
X148219482Y-80351281D01*
X148219480Y-80351283D01*
X148204889Y-80376556D01*
X148204884Y-80376565D01*
X148203190Y-80379500D01*
X148140423Y-80488215D01*
X148131485Y-80521566D01*
X148125673Y-80533050D01*
X148119124Y-80540020D01*
X148111579Y-80554870D01*
X147723388Y-81036424D01*
X147714539Y-81046274D01*
X147708038Y-81052775D01*
X147708025Y-81052790D01*
X147690040Y-81077544D01*
X147686266Y-81082474D01*
X147649284Y-81128353D01*
X147635292Y-81146539D01*
X147634695Y-81147352D01*
X147634678Y-81147377D01*
X147608721Y-81188953D01*
X147603860Y-81196163D01*
X147587716Y-81218385D01*
X147494781Y-81400776D01*
X147471771Y-81471596D01*
X147432333Y-81529271D01*
X147367974Y-81556469D01*
X147299128Y-81544554D01*
X147253072Y-81505539D01*
X147215097Y-81452584D01*
X147012555Y-81170145D01*
X147012533Y-81170117D01*
X146984439Y-81134443D01*
X146980423Y-81130226D01*
X146980732Y-81129931D01*
X146967608Y-81115602D01*
X146939957Y-81077544D01*
X146921966Y-81052781D01*
X146777219Y-80908034D01*
X146777213Y-80908028D01*
X146611613Y-80787715D01*
X146611612Y-80787714D01*
X146611610Y-80787713D01*
X146534087Y-80748213D01*
X146429223Y-80694781D01*
X146234534Y-80631522D01*
X146059995Y-80603878D01*
X146032352Y-80599500D01*
X145827648Y-80599500D01*
X145803329Y-80603351D01*
X145625465Y-80631522D01*
X145430776Y-80694781D01*
X145248386Y-80787715D01*
X145082786Y-80908028D01*
X144938028Y-81052786D01*
X144817715Y-81218386D01*
X144724781Y-81400776D01*
X144662931Y-81591131D01*
X144623493Y-81648806D01*
X144559134Y-81676004D01*
X144490288Y-81664089D01*
X144438812Y-81616845D01*
X144427069Y-81591131D01*
X144365218Y-81400776D01*
X144302393Y-81277477D01*
X144272287Y-81218390D01*
X144250900Y-81188953D01*
X144151971Y-81052786D01*
X144007213Y-80908028D01*
X143841613Y-80787715D01*
X143841612Y-80787714D01*
X143841610Y-80787713D01*
X143764087Y-80748213D01*
X143659223Y-80694781D01*
X143464534Y-80631522D01*
X143289995Y-80603878D01*
X143262352Y-80599500D01*
X143057648Y-80599500D01*
X143033329Y-80603351D01*
X142855465Y-80631522D01*
X142660776Y-80694781D01*
X142478386Y-80787715D01*
X142312786Y-80908028D01*
X142168028Y-81052786D01*
X142047715Y-81218386D01*
X141954781Y-81400776D01*
X141891522Y-81595465D01*
X141859500Y-81797648D01*
X141859500Y-82002351D01*
X141891522Y-82204534D01*
X141954781Y-82399223D01*
X142048215Y-82582595D01*
X142052641Y-82590604D01*
X142384669Y-83260429D01*
X142396806Y-83329236D01*
X142369816Y-83393682D01*
X142312269Y-83433306D01*
X142273569Y-83439500D01*
X140927129Y-83439500D01*
X140927123Y-83439501D01*
X140867516Y-83445908D01*
X140732671Y-83496202D01*
X140732664Y-83496206D01*
X140617455Y-83582452D01*
X140617454Y-83582454D01*
X140531206Y-83697664D01*
X140531202Y-83697671D01*
X140480908Y-83832517D01*
X140474501Y-83892116D01*
X140474500Y-83892135D01*
X140474500Y-85587870D01*
X140474501Y-85587876D01*
X140480908Y-85647483D01*
X140531202Y-85782328D01*
X140531206Y-85782335D01*
X140617452Y-85897544D01*
X140617455Y-85897547D01*
X140732664Y-85983793D01*
X140732671Y-85983797D01*
X140867517Y-86034091D01*
X140867516Y-86034091D01*
X140874444Y-86034835D01*
X140927127Y-86040500D01*
X142435500Y-86040499D01*
X142444185Y-86043049D01*
X142453147Y-86041761D01*
X142477187Y-86052739D01*
X142502539Y-86060184D01*
X142508466Y-86067024D01*
X142516703Y-86070786D01*
X142530990Y-86093018D01*
X142548294Y-86112987D01*
X142550581Y-86123502D01*
X142554477Y-86129564D01*
X142559500Y-86164499D01*
X142559500Y-86225500D01*
X142539815Y-86292539D01*
X142487011Y-86338294D01*
X142435500Y-86349500D01*
X142401155Y-86349500D01*
X142246510Y-86380261D01*
X142246498Y-86380264D01*
X142100827Y-86440602D01*
X142100814Y-86440609D01*
X141969711Y-86528210D01*
X141969707Y-86528213D01*
X141858213Y-86639707D01*
X141858210Y-86639711D01*
X141770609Y-86770814D01*
X141770602Y-86770827D01*
X141710264Y-86916498D01*
X141710261Y-86916510D01*
X141679500Y-87071153D01*
X141679500Y-87228846D01*
X141710261Y-87383489D01*
X141710264Y-87383501D01*
X141770602Y-87529172D01*
X141770609Y-87529185D01*
X141858210Y-87660288D01*
X141858213Y-87660292D01*
X141969707Y-87771786D01*
X141969711Y-87771789D01*
X142100814Y-87859390D01*
X142100827Y-87859397D01*
X142246498Y-87919735D01*
X142246503Y-87919737D01*
X142400499Y-87950369D01*
X142401153Y-87950499D01*
X142401156Y-87950500D01*
X142435500Y-87950500D01*
X142502539Y-87970185D01*
X142548294Y-88022989D01*
X142559500Y-88074500D01*
X142559500Y-91113330D01*
X142559499Y-91113348D01*
X142559499Y-91279054D01*
X142559498Y-91279054D01*
X142600423Y-91431786D01*
X142600424Y-91431787D01*
X142608920Y-91446503D01*
X142628575Y-91480546D01*
X142679480Y-91568716D01*
X142679482Y-91568718D01*
X142798349Y-91687585D01*
X142798355Y-91687590D01*
X144646139Y-93535374D01*
X144646149Y-93535385D01*
X144650479Y-93539715D01*
X144650480Y-93539716D01*
X144762284Y-93651520D01*
X144849095Y-93701639D01*
X144849097Y-93701641D01*
X144887151Y-93723611D01*
X144899215Y-93730577D01*
X145051943Y-93771501D01*
X145051946Y-93771501D01*
X145217653Y-93771501D01*
X145217669Y-93771500D01*
X152377059Y-93771500D01*
X152444098Y-93791185D01*
X152489853Y-93843989D01*
X152499797Y-93913147D01*
X152470772Y-93976703D01*
X152464740Y-93983181D01*
X152448213Y-93999707D01*
X152448210Y-93999711D01*
X152360609Y-94130814D01*
X152360602Y-94130827D01*
X152300264Y-94276498D01*
X152300261Y-94276508D01*
X152269362Y-94431848D01*
X152236977Y-94493759D01*
X152235426Y-94495337D01*
X150964671Y-95766092D01*
X150964665Y-95766098D01*
X150961286Y-95769478D01*
X150961284Y-95769480D01*
X150849480Y-95881284D01*
X150821110Y-95930423D01*
X150815367Y-95940368D01*
X150815365Y-95940372D01*
X150770424Y-96018213D01*
X150770423Y-96018215D01*
X150729499Y-96170943D01*
X150729499Y-96170945D01*
X150729499Y-96339046D01*
X150729500Y-96339059D01*
X150729500Y-102039902D01*
X150709815Y-102106941D01*
X150693181Y-102127583D01*
X148434252Y-104386511D01*
X148372929Y-104419996D01*
X148303237Y-104415012D01*
X148247304Y-104373140D01*
X148240404Y-104362897D01*
X148235583Y-104354909D01*
X148219393Y-104315821D01*
X148143018Y-104201517D01*
X148141539Y-104199067D01*
X148133342Y-104167927D01*
X148123726Y-104137214D01*
X148124508Y-104134361D01*
X148123755Y-104131499D01*
X148133693Y-104100877D01*
X148142210Y-104069833D01*
X148144604Y-104066109D01*
X148219389Y-103954185D01*
X148219389Y-103954184D01*
X148219393Y-103954179D01*
X148279736Y-103808497D01*
X148310499Y-103653842D01*
X148310499Y-103496158D01*
X148310499Y-103496155D01*
X148310498Y-103496153D01*
X148279737Y-103341510D01*
X148279736Y-103341503D01*
X148237796Y-103240250D01*
X148219396Y-103195827D01*
X148219389Y-103195814D01*
X148131788Y-103064711D01*
X148131785Y-103064707D01*
X148020291Y-102953213D01*
X148020287Y-102953210D01*
X147889184Y-102865609D01*
X147889171Y-102865602D01*
X147743500Y-102805264D01*
X147743488Y-102805261D01*
X147588844Y-102774500D01*
X147588841Y-102774500D01*
X147431157Y-102774500D01*
X147431154Y-102774500D01*
X147276509Y-102805261D01*
X147276497Y-102805264D01*
X147157451Y-102854574D01*
X147087981Y-102862043D01*
X147062547Y-102854574D01*
X146943501Y-102805264D01*
X146943489Y-102805261D01*
X146788845Y-102774500D01*
X146788842Y-102774500D01*
X146631158Y-102774500D01*
X146631155Y-102774500D01*
X146476510Y-102805261D01*
X146476498Y-102805264D01*
X146330827Y-102865602D01*
X146330814Y-102865609D01*
X146199711Y-102953210D01*
X146199707Y-102953213D01*
X146088213Y-103064707D01*
X146088210Y-103064711D01*
X146000609Y-103195814D01*
X146000602Y-103195827D01*
X145940264Y-103341498D01*
X145940261Y-103341510D01*
X145909500Y-103496153D01*
X145909500Y-103653846D01*
X145940261Y-103808489D01*
X145940264Y-103808501D01*
X146000602Y-103954172D01*
X146000612Y-103954190D01*
X146075394Y-104066110D01*
X146096272Y-104132787D01*
X146077787Y-104200167D01*
X146075394Y-104203890D01*
X146000612Y-104315809D01*
X146000602Y-104315827D01*
X145940264Y-104461498D01*
X145940261Y-104461510D01*
X145909500Y-104616153D01*
X145909500Y-104773846D01*
X145940261Y-104928489D01*
X145940264Y-104928501D01*
X146000602Y-105074172D01*
X146000609Y-105074185D01*
X146088210Y-105205288D01*
X146088213Y-105205292D01*
X146199707Y-105316786D01*
X146199711Y-105316789D01*
X146330814Y-105404390D01*
X146330827Y-105404397D01*
X146408356Y-105436510D01*
X146476503Y-105464737D01*
X146631153Y-105495499D01*
X146631156Y-105495500D01*
X146631158Y-105495500D01*
X146788844Y-105495500D01*
X146788845Y-105495499D01*
X146943497Y-105464737D01*
X147062548Y-105415425D01*
X147093050Y-105412145D01*
X147123254Y-105406696D01*
X147129324Y-105408245D01*
X147132017Y-105407956D01*
X147157449Y-105415424D01*
X147161281Y-105417011D01*
X147215685Y-105460851D01*
X147237750Y-105527145D01*
X147220471Y-105594845D01*
X147201510Y-105619253D01*
X145915339Y-106905425D01*
X145854016Y-106938910D01*
X145851850Y-106939361D01*
X145696508Y-106970261D01*
X145696498Y-106970264D01*
X145550827Y-107030602D01*
X145550814Y-107030609D01*
X145419711Y-107118210D01*
X145313326Y-107224595D01*
X145252003Y-107258079D01*
X145182311Y-107253095D01*
X145126378Y-107211223D01*
X145122544Y-107205806D01*
X145111788Y-107189709D01*
X145000292Y-107078213D01*
X145000288Y-107078210D01*
X144869185Y-106990609D01*
X144869172Y-106990602D01*
X144723501Y-106930264D01*
X144723489Y-106930261D01*
X144568845Y-106899500D01*
X144568842Y-106899500D01*
X144411158Y-106899500D01*
X144411155Y-106899500D01*
X144256510Y-106930261D01*
X144256498Y-106930264D01*
X144110827Y-106990602D01*
X144110814Y-106990609D01*
X143979708Y-107078212D01*
X143977079Y-107080370D01*
X143975433Y-107081068D01*
X143974646Y-107081595D01*
X143974546Y-107081445D01*
X143912767Y-107107678D01*
X143843901Y-107095882D01*
X143829530Y-107087613D01*
X143759184Y-107040609D01*
X143759172Y-107040602D01*
X143613501Y-106980264D01*
X143613489Y-106980261D01*
X143458845Y-106949500D01*
X143458842Y-106949500D01*
X143301158Y-106949500D01*
X143301155Y-106949500D01*
X143146510Y-106980261D01*
X143146498Y-106980264D01*
X143000827Y-107040602D01*
X143000814Y-107040609D01*
X142869711Y-107128210D01*
X142869707Y-107128213D01*
X142758213Y-107239707D01*
X142758210Y-107239711D01*
X142670609Y-107370814D01*
X142670602Y-107370827D01*
X142610264Y-107516498D01*
X142610261Y-107516510D01*
X142579500Y-107671153D01*
X142579500Y-107828846D01*
X142610261Y-107983489D01*
X142610264Y-107983501D01*
X142670602Y-108129172D01*
X142670609Y-108129185D01*
X142758210Y-108260288D01*
X142758213Y-108260292D01*
X142869707Y-108371786D01*
X142869711Y-108371789D01*
X143000814Y-108459390D01*
X143000827Y-108459397D01*
X143135895Y-108515343D01*
X143146503Y-108519737D01*
X143294482Y-108549172D01*
X143301153Y-108550499D01*
X143301156Y-108550500D01*
X143301158Y-108550500D01*
X143458844Y-108550500D01*
X143458845Y-108550499D01*
X143613497Y-108519737D01*
X143755435Y-108460945D01*
X143759172Y-108459397D01*
X143759172Y-108459396D01*
X143759179Y-108459394D01*
X143890289Y-108371789D01*
X143890292Y-108371785D01*
X143892906Y-108369641D01*
X143894548Y-108368943D01*
X143895354Y-108368405D01*
X143895456Y-108368557D01*
X143957214Y-108342323D01*
X144026082Y-108354109D01*
X144040460Y-108362380D01*
X144110821Y-108409394D01*
X144110823Y-108409395D01*
X144110827Y-108409397D01*
X144235272Y-108460943D01*
X144256503Y-108469737D01*
X144314767Y-108481326D01*
X144417132Y-108501689D01*
X144416590Y-108504410D01*
X144470317Y-108526091D01*
X144481080Y-108535670D01*
X144748181Y-108802771D01*
X144781666Y-108864094D01*
X144784500Y-108890452D01*
X144784500Y-120700548D01*
X144778261Y-120721793D01*
X144776682Y-120743882D01*
X144768609Y-120754665D01*
X144764815Y-120767587D01*
X144748081Y-120782086D01*
X144734810Y-120799815D01*
X144722189Y-120804522D01*
X144712011Y-120813342D01*
X144690093Y-120816493D01*
X144669346Y-120824232D01*
X144656185Y-120821369D01*
X144642853Y-120823286D01*
X144622709Y-120814086D01*
X144601073Y-120809380D01*
X144583347Y-120796111D01*
X144579297Y-120794261D01*
X144572819Y-120788229D01*
X144431819Y-120647229D01*
X144398334Y-120585906D01*
X144395500Y-120559548D01*
X144395500Y-111367398D01*
X144395500Y-111367394D01*
X144395123Y-111365501D01*
X144371463Y-111246549D01*
X144368543Y-111239500D01*
X144357652Y-111213207D01*
X144324312Y-111132714D01*
X144290084Y-111081490D01*
X144255858Y-111030267D01*
X144255856Y-111030264D01*
X144165637Y-110940045D01*
X144165606Y-110940016D01*
X143925793Y-110700203D01*
X143892308Y-110638880D01*
X143891887Y-110636864D01*
X143869737Y-110525503D01*
X143842125Y-110458842D01*
X143809397Y-110379827D01*
X143809390Y-110379814D01*
X143721789Y-110248711D01*
X143721786Y-110248707D01*
X143610292Y-110137213D01*
X143610288Y-110137210D01*
X143479185Y-110049609D01*
X143479172Y-110049602D01*
X143333501Y-109989264D01*
X143333489Y-109989261D01*
X143178845Y-109958500D01*
X143178842Y-109958500D01*
X143021158Y-109958500D01*
X143021155Y-109958500D01*
X142866510Y-109989261D01*
X142866498Y-109989264D01*
X142720827Y-110049602D01*
X142720814Y-110049609D01*
X142589711Y-110137210D01*
X142589707Y-110137213D01*
X142478213Y-110248707D01*
X142478210Y-110248711D01*
X142390609Y-110379814D01*
X142390602Y-110379827D01*
X142330264Y-110525498D01*
X142330261Y-110525510D01*
X142299500Y-110680153D01*
X142299500Y-110837846D01*
X142330261Y-110992489D01*
X142330264Y-110992501D01*
X142390602Y-111138172D01*
X142390609Y-111138185D01*
X142478210Y-111269288D01*
X142478213Y-111269292D01*
X142589707Y-111380786D01*
X142589711Y-111380789D01*
X142720814Y-111468390D01*
X142720827Y-111468397D01*
X142764528Y-111486498D01*
X142866503Y-111528737D01*
X142977716Y-111550858D01*
X142994470Y-111559622D01*
X143012949Y-111563642D01*
X143037985Y-111582384D01*
X143039623Y-111583241D01*
X143041203Y-111584793D01*
X143108181Y-111651771D01*
X143141666Y-111713094D01*
X143144500Y-111739452D01*
X143144500Y-117655854D01*
X143124815Y-117722893D01*
X143072011Y-117768648D01*
X143002853Y-117778592D01*
X142951610Y-117758956D01*
X142909190Y-117730612D01*
X142909172Y-117730602D01*
X142763501Y-117670264D01*
X142763489Y-117670261D01*
X142608845Y-117639500D01*
X142608842Y-117639500D01*
X142451158Y-117639500D01*
X142451155Y-117639500D01*
X142296510Y-117670261D01*
X142296498Y-117670264D01*
X142150827Y-117730602D01*
X142150814Y-117730609D01*
X142019711Y-117818210D01*
X142019707Y-117818213D01*
X141908213Y-117929707D01*
X141908210Y-117929711D01*
X141820609Y-118060814D01*
X141820602Y-118060827D01*
X141760264Y-118206498D01*
X141760261Y-118206510D01*
X141729500Y-118361153D01*
X141729500Y-118518846D01*
X141760261Y-118673489D01*
X141760264Y-118673501D01*
X141820602Y-118819172D01*
X141820609Y-118819185D01*
X141908210Y-118950288D01*
X141908213Y-118950292D01*
X142019707Y-119061786D01*
X142019711Y-119061789D01*
X142150814Y-119149390D01*
X142150827Y-119149397D01*
X142202082Y-119170627D01*
X142296503Y-119209737D01*
X142451153Y-119240499D01*
X142451156Y-119240500D01*
X142451158Y-119240500D01*
X142608844Y-119240500D01*
X142608845Y-119240499D01*
X142763497Y-119209737D01*
X142909179Y-119149394D01*
X142909184Y-119149390D01*
X142909187Y-119149389D01*
X142951608Y-119121044D01*
X143018285Y-119100165D01*
X143085666Y-119118649D01*
X143132356Y-119170627D01*
X143144500Y-119224145D01*
X143144500Y-120931611D01*
X143168535Y-121052444D01*
X143168540Y-121052461D01*
X143215685Y-121166280D01*
X143215687Y-121166283D01*
X143215688Y-121166286D01*
X143249915Y-121217509D01*
X143284142Y-121268733D01*
X143371267Y-121355858D01*
X143371270Y-121355860D01*
X143378554Y-121363144D01*
X147246624Y-125231214D01*
X147280109Y-125292537D01*
X147275125Y-125362229D01*
X147233253Y-125418162D01*
X147167789Y-125442579D01*
X147134752Y-125440512D01*
X146978845Y-125409500D01*
X146978842Y-125409500D01*
X146821158Y-125409500D01*
X146821155Y-125409500D01*
X146666510Y-125440261D01*
X146666498Y-125440264D01*
X146543893Y-125491049D01*
X146474424Y-125498518D01*
X146411945Y-125467243D01*
X146408760Y-125464169D01*
X140881819Y-119937228D01*
X140848334Y-119875905D01*
X140845500Y-119849547D01*
X140845500Y-109008393D01*
X140845499Y-109008389D01*
X140836828Y-108964797D01*
X140821463Y-108887548D01*
X140774311Y-108773714D01*
X140774310Y-108773713D01*
X140774307Y-108773707D01*
X140705858Y-108671267D01*
X140705855Y-108671263D01*
X140615637Y-108581045D01*
X140615606Y-108581016D01*
X138895793Y-106861203D01*
X138862308Y-106799880D01*
X138861887Y-106797864D01*
X138839737Y-106686503D01*
X138807796Y-106609390D01*
X138779397Y-106540827D01*
X138779390Y-106540814D01*
X138691789Y-106409711D01*
X138691786Y-106409707D01*
X138580292Y-106298213D01*
X138580288Y-106298210D01*
X138449185Y-106210609D01*
X138449172Y-106210602D01*
X138303501Y-106150264D01*
X138303489Y-106150261D01*
X138148845Y-106119500D01*
X138148842Y-106119500D01*
X137991158Y-106119500D01*
X137991155Y-106119500D01*
X137836510Y-106150261D01*
X137836498Y-106150264D01*
X137690827Y-106210602D01*
X137690814Y-106210609D01*
X137559711Y-106298210D01*
X137559707Y-106298213D01*
X137448213Y-106409707D01*
X137448210Y-106409711D01*
X137360609Y-106540814D01*
X137360602Y-106540827D01*
X137300264Y-106686498D01*
X137300261Y-106686510D01*
X137269500Y-106841153D01*
X137269500Y-106998846D01*
X137300261Y-107153489D01*
X137300264Y-107153501D01*
X137360602Y-107299172D01*
X137360609Y-107299185D01*
X137448210Y-107430288D01*
X137448213Y-107430292D01*
X137559707Y-107541786D01*
X137559711Y-107541789D01*
X137690814Y-107629390D01*
X137690827Y-107629397D01*
X137731312Y-107646166D01*
X137836503Y-107689737D01*
X137947716Y-107711858D01*
X138009623Y-107744241D01*
X138011203Y-107745793D01*
X139558181Y-109292771D01*
X139591666Y-109354094D01*
X139594500Y-109380452D01*
X139594500Y-120221606D01*
X139613213Y-120315688D01*
X139613213Y-120315690D01*
X139618534Y-120342444D01*
X139665688Y-120456287D01*
X139668718Y-120460821D01*
X139688875Y-120490986D01*
X139734142Y-120558733D01*
X139821267Y-120645858D01*
X139821269Y-120645859D01*
X139831713Y-120656303D01*
X145831263Y-126655855D01*
X145831267Y-126655858D01*
X145878469Y-126687398D01*
X145923274Y-126741010D01*
X145931981Y-126810335D01*
X145901826Y-126873363D01*
X145842383Y-126910082D01*
X145809578Y-126914500D01*
X135940452Y-126914500D01*
X135873413Y-126894815D01*
X135852771Y-126878181D01*
X135351819Y-126377229D01*
X135318334Y-126315906D01*
X135315500Y-126289548D01*
X135315500Y-121752675D01*
X135335185Y-121685636D01*
X135387989Y-121639881D01*
X135457147Y-121629937D01*
X135463672Y-121631054D01*
X135498727Y-121638027D01*
X135511157Y-121640500D01*
X135511158Y-121640500D01*
X135668844Y-121640500D01*
X135668845Y-121640499D01*
X135823497Y-121609737D01*
X135969179Y-121549394D01*
X136100289Y-121461789D01*
X136211789Y-121350289D01*
X136299394Y-121219179D01*
X136359737Y-121073497D01*
X136390500Y-120918842D01*
X136390500Y-120761158D01*
X136390500Y-120761155D01*
X136390499Y-120761153D01*
X136376398Y-120690263D01*
X136359737Y-120606503D01*
X136309335Y-120484820D01*
X136299397Y-120460827D01*
X136299390Y-120460814D01*
X136211789Y-120329711D01*
X136211786Y-120329707D01*
X136100292Y-120218213D01*
X136100288Y-120218210D01*
X135969185Y-120130609D01*
X135969172Y-120130602D01*
X135823501Y-120070264D01*
X135823489Y-120070261D01*
X135668845Y-120039500D01*
X135668842Y-120039500D01*
X135511158Y-120039500D01*
X135511153Y-120039500D01*
X135463691Y-120048941D01*
X135394099Y-120042714D01*
X135338922Y-119999851D01*
X135315678Y-119933961D01*
X135315500Y-119927324D01*
X135315500Y-117541153D01*
X135869500Y-117541153D01*
X135869500Y-117698846D01*
X135900261Y-117853489D01*
X135900264Y-117853501D01*
X135960602Y-117999172D01*
X135960609Y-117999185D01*
X136048210Y-118130288D01*
X136048213Y-118130292D01*
X136159707Y-118241786D01*
X136159711Y-118241789D01*
X136290814Y-118329390D01*
X136290827Y-118329397D01*
X136436498Y-118389735D01*
X136436503Y-118389737D01*
X136591153Y-118420499D01*
X136591156Y-118420500D01*
X136591158Y-118420500D01*
X136748844Y-118420500D01*
X136748845Y-118420499D01*
X136903497Y-118389737D01*
X136953166Y-118369163D01*
X137022632Y-118361695D01*
X137085111Y-118392969D01*
X137115177Y-118436272D01*
X137135605Y-118485591D01*
X137135610Y-118485600D01*
X137223211Y-118616703D01*
X137223214Y-118616707D01*
X137334708Y-118728201D01*
X137334712Y-118728204D01*
X137465815Y-118815805D01*
X137465828Y-118815812D01*
X137611499Y-118876150D01*
X137611504Y-118876152D01*
X137766154Y-118906914D01*
X137766157Y-118906915D01*
X137766159Y-118906915D01*
X137923845Y-118906915D01*
X137923846Y-118906914D01*
X138078498Y-118876152D01*
X138224180Y-118815809D01*
X138355290Y-118728204D01*
X138466790Y-118616704D01*
X138554395Y-118485594D01*
X138614738Y-118339912D01*
X138645501Y-118185257D01*
X138645501Y-118027573D01*
X138645501Y-118027570D01*
X138645500Y-118027568D01*
X138639852Y-117999172D01*
X138614738Y-117872918D01*
X138606690Y-117853489D01*
X138554398Y-117727242D01*
X138554391Y-117727229D01*
X138466790Y-117596126D01*
X138466787Y-117596122D01*
X138355293Y-117484628D01*
X138355289Y-117484625D01*
X138224186Y-117397024D01*
X138224173Y-117397017D01*
X138078502Y-117336679D01*
X138078490Y-117336676D01*
X137923846Y-117305915D01*
X137923843Y-117305915D01*
X137766159Y-117305915D01*
X137766156Y-117305915D01*
X137611511Y-117336676D01*
X137611504Y-117336678D01*
X137561835Y-117357251D01*
X137492366Y-117364718D01*
X137429887Y-117333443D01*
X137399824Y-117290144D01*
X137379394Y-117240821D01*
X137379392Y-117240818D01*
X137379390Y-117240814D01*
X137291789Y-117109711D01*
X137291786Y-117109707D01*
X137180292Y-116998213D01*
X137180288Y-116998210D01*
X137049185Y-116910609D01*
X137049172Y-116910602D01*
X136903501Y-116850264D01*
X136903489Y-116850261D01*
X136748845Y-116819500D01*
X136748842Y-116819500D01*
X136591158Y-116819500D01*
X136591155Y-116819500D01*
X136436510Y-116850261D01*
X136436498Y-116850264D01*
X136290827Y-116910602D01*
X136290814Y-116910609D01*
X136159711Y-116998210D01*
X136159707Y-116998213D01*
X136048213Y-117109707D01*
X136048210Y-117109711D01*
X135960609Y-117240814D01*
X135960602Y-117240827D01*
X135900264Y-117386498D01*
X135900261Y-117386510D01*
X135869500Y-117541153D01*
X135315500Y-117541153D01*
X135315500Y-115211153D01*
X136899500Y-115211153D01*
X136899500Y-115368846D01*
X136930261Y-115523489D01*
X136930264Y-115523501D01*
X136990602Y-115669172D01*
X136990609Y-115669185D01*
X137078210Y-115800288D01*
X137078213Y-115800292D01*
X137189707Y-115911786D01*
X137189711Y-115911789D01*
X137320814Y-115999390D01*
X137320827Y-115999397D01*
X137466498Y-116059735D01*
X137466503Y-116059737D01*
X137621153Y-116090499D01*
X137621156Y-116090500D01*
X137621158Y-116090500D01*
X137778844Y-116090500D01*
X137778845Y-116090499D01*
X137933497Y-116059737D01*
X138079179Y-115999394D01*
X138210289Y-115911789D01*
X138321789Y-115800289D01*
X138409394Y-115669179D01*
X138469737Y-115523497D01*
X138500500Y-115368842D01*
X138500500Y-115211158D01*
X138500500Y-115211156D01*
X138500500Y-115211155D01*
X138500499Y-115211153D01*
X138483660Y-115126498D01*
X138469737Y-115056503D01*
X138469735Y-115056498D01*
X138409397Y-114910827D01*
X138409390Y-114910814D01*
X138321789Y-114779711D01*
X138321786Y-114779707D01*
X138210292Y-114668213D01*
X138210288Y-114668210D01*
X138079185Y-114580609D01*
X138079172Y-114580602D01*
X137933501Y-114520264D01*
X137933489Y-114520261D01*
X137778845Y-114489500D01*
X137778842Y-114489500D01*
X137621158Y-114489500D01*
X137621155Y-114489500D01*
X137466510Y-114520261D01*
X137466498Y-114520264D01*
X137320827Y-114580602D01*
X137320814Y-114580609D01*
X137189711Y-114668210D01*
X137189707Y-114668213D01*
X137078213Y-114779707D01*
X137078210Y-114779711D01*
X136990609Y-114910814D01*
X136990602Y-114910827D01*
X136930264Y-115056498D01*
X136930261Y-115056510D01*
X136899500Y-115211153D01*
X135315500Y-115211153D01*
X135315500Y-114430451D01*
X135335185Y-114363412D01*
X135351814Y-114342775D01*
X137251686Y-112442902D01*
X137313007Y-112409419D01*
X137382699Y-112414403D01*
X137438632Y-112456275D01*
X137442465Y-112461691D01*
X137448209Y-112470287D01*
X137448213Y-112470292D01*
X137559707Y-112581786D01*
X137559711Y-112581789D01*
X137690814Y-112669390D01*
X137690827Y-112669397D01*
X137836498Y-112729735D01*
X137836503Y-112729737D01*
X137991153Y-112760499D01*
X137991156Y-112760500D01*
X137991158Y-112760500D01*
X138148844Y-112760500D01*
X138148845Y-112760499D01*
X138303497Y-112729737D01*
X138449179Y-112669394D01*
X138580289Y-112581789D01*
X138691789Y-112470289D01*
X138779394Y-112339179D01*
X138839737Y-112193497D01*
X138870500Y-112038842D01*
X138870500Y-111881158D01*
X138870500Y-111881155D01*
X138870499Y-111881153D01*
X138854127Y-111798846D01*
X138839737Y-111726503D01*
X138823826Y-111688090D01*
X138779397Y-111580827D01*
X138779390Y-111580814D01*
X138691790Y-111449712D01*
X138691789Y-111449711D01*
X138679759Y-111437681D01*
X138646275Y-111376362D01*
X138651257Y-111306670D01*
X138679759Y-111262318D01*
X138691789Y-111250289D01*
X138779394Y-111119179D01*
X138839737Y-110973497D01*
X138870500Y-110818842D01*
X138870500Y-110661158D01*
X138870500Y-110661155D01*
X138870499Y-110661153D01*
X138861020Y-110613501D01*
X138839737Y-110506503D01*
X138820691Y-110460521D01*
X138779397Y-110360827D01*
X138779390Y-110360814D01*
X138691789Y-110229711D01*
X138691786Y-110229707D01*
X138580292Y-110118213D01*
X138580288Y-110118210D01*
X138449185Y-110030609D01*
X138449172Y-110030602D01*
X138303501Y-109970264D01*
X138303489Y-109970261D01*
X138148845Y-109939500D01*
X138148842Y-109939500D01*
X137991158Y-109939500D01*
X137991155Y-109939500D01*
X137836510Y-109970261D01*
X137836498Y-109970264D01*
X137690827Y-110030602D01*
X137690814Y-110030609D01*
X137559711Y-110118210D01*
X137559707Y-110118213D01*
X137448213Y-110229707D01*
X137448210Y-110229711D01*
X137360609Y-110360814D01*
X137360602Y-110360827D01*
X137300264Y-110506498D01*
X137300261Y-110506508D01*
X137278141Y-110617714D01*
X137245756Y-110679625D01*
X137244205Y-110681203D01*
X135731920Y-112193489D01*
X134291270Y-113634139D01*
X134291267Y-113634142D01*
X134254256Y-113671153D01*
X134204142Y-113721266D01*
X134173678Y-113766859D01*
X134170328Y-113771873D01*
X134135688Y-113823714D01*
X134112375Y-113879998D01*
X134110022Y-113885676D01*
X134110020Y-113885682D01*
X134088539Y-113937541D01*
X134088535Y-113937554D01*
X134078048Y-113990274D01*
X134078049Y-113990275D01*
X134065324Y-114054253D01*
X134065322Y-114054262D01*
X134064501Y-114058388D01*
X134064500Y-114058398D01*
X134064500Y-126661604D01*
X134088536Y-126782450D01*
X134088538Y-126782454D01*
X134090795Y-126787905D01*
X134090803Y-126787923D01*
X134091915Y-126790606D01*
X134135688Y-126896286D01*
X134151129Y-126919394D01*
X134156282Y-126927106D01*
X134156284Y-126927110D01*
X134204141Y-126998732D01*
X134204144Y-126998736D01*
X134295586Y-127090178D01*
X134295608Y-127090198D01*
X135144139Y-127938729D01*
X135144142Y-127938733D01*
X135231267Y-128025858D01*
X135292040Y-128066465D01*
X135333715Y-128094312D01*
X135387196Y-128116464D01*
X135387197Y-128116465D01*
X135387198Y-128116465D01*
X135447548Y-128141463D01*
X135471414Y-128146210D01*
X135492940Y-128150492D01*
X135492960Y-128150495D01*
X135492982Y-128150500D01*
X135568391Y-128165499D01*
X135568392Y-128165500D01*
X135568393Y-128165500D01*
X135568394Y-128165500D01*
X146525973Y-128165500D01*
X146593012Y-128185185D01*
X146638767Y-128237989D01*
X146648711Y-128307147D01*
X146619686Y-128370703D01*
X146560908Y-128408477D01*
X146550165Y-128411117D01*
X146519566Y-128417203D01*
X146519556Y-128417206D01*
X146373885Y-128477544D01*
X146373872Y-128477551D01*
X146242769Y-128565152D01*
X146242765Y-128565155D01*
X146131271Y-128676649D01*
X146131268Y-128676653D01*
X146043667Y-128807756D01*
X146043660Y-128807769D01*
X145983322Y-128953440D01*
X145983319Y-128953452D01*
X145952558Y-129108095D01*
X145952558Y-129265788D01*
X145983319Y-129420431D01*
X145983322Y-129420443D01*
X146043660Y-129566114D01*
X146043667Y-129566127D01*
X146131268Y-129697230D01*
X146131271Y-129697234D01*
X146242765Y-129808728D01*
X146242769Y-129808731D01*
X146373872Y-129896332D01*
X146373885Y-129896339D01*
X146478456Y-129939653D01*
X146519561Y-129956679D01*
X146674211Y-129987441D01*
X146674214Y-129987442D01*
X146674216Y-129987442D01*
X146831902Y-129987442D01*
X146831903Y-129987441D01*
X146986555Y-129956679D01*
X147132237Y-129896336D01*
X147263347Y-129808731D01*
X147374847Y-129697231D01*
X147462452Y-129566121D01*
X147522795Y-129420439D01*
X147553558Y-129265784D01*
X147553558Y-129108100D01*
X147553558Y-129108097D01*
X147553557Y-129108095D01*
X147536091Y-129020289D01*
X147522795Y-128953445D01*
X147471184Y-128828844D01*
X147462455Y-128807769D01*
X147462448Y-128807756D01*
X147374847Y-128676653D01*
X147374844Y-128676649D01*
X147263350Y-128565155D01*
X147263346Y-128565152D01*
X147132243Y-128477551D01*
X147132230Y-128477544D01*
X146986559Y-128417206D01*
X146986549Y-128417203D01*
X146955951Y-128411117D01*
X146894040Y-128378732D01*
X146859466Y-128318016D01*
X146863206Y-128248247D01*
X146904073Y-128191575D01*
X146969091Y-128165993D01*
X146980143Y-128165500D01*
X148067650Y-128165500D01*
X148134689Y-128185185D01*
X148136541Y-128186398D01*
X148230821Y-128249394D01*
X148230823Y-128249395D01*
X148230827Y-128249397D01*
X148370250Y-128307147D01*
X148376503Y-128309737D01*
X148531153Y-128340499D01*
X148531156Y-128340500D01*
X148531158Y-128340500D01*
X148688844Y-128340500D01*
X148688845Y-128340499D01*
X148843497Y-128309737D01*
X148989179Y-128249394D01*
X149120289Y-128161789D01*
X149231789Y-128050289D01*
X149319394Y-127919179D01*
X149379737Y-127773497D01*
X149410500Y-127618842D01*
X149410500Y-127461158D01*
X149410500Y-127461155D01*
X149410499Y-127461153D01*
X149379738Y-127306510D01*
X149379737Y-127306503D01*
X149379735Y-127306498D01*
X149319397Y-127160827D01*
X149319390Y-127160814D01*
X149231789Y-127029711D01*
X149231786Y-127029707D01*
X149120292Y-126918213D01*
X149120288Y-126918210D01*
X148989185Y-126830609D01*
X148989172Y-126830602D01*
X148843497Y-126770262D01*
X148841029Y-126769514D01*
X148839894Y-126768770D01*
X148837870Y-126767932D01*
X148838029Y-126767547D01*
X148782592Y-126731215D01*
X148754138Y-126667401D01*
X148764701Y-126598335D01*
X148767675Y-126592393D01*
X148769386Y-126589189D01*
X148769394Y-126589179D01*
X148829737Y-126443497D01*
X148860500Y-126288842D01*
X148860500Y-126131158D01*
X148860500Y-126131155D01*
X148860499Y-126131153D01*
X148829738Y-125976510D01*
X148829737Y-125976503D01*
X148823522Y-125961498D01*
X148769397Y-125830827D01*
X148769395Y-125830823D01*
X148769394Y-125830821D01*
X148714316Y-125748391D01*
X148693438Y-125681714D01*
X148711922Y-125614334D01*
X148763901Y-125567643D01*
X148817418Y-125555500D01*
X152562559Y-125555500D01*
X152629598Y-125575185D01*
X152675353Y-125627989D01*
X152685297Y-125697147D01*
X152665661Y-125748391D01*
X152620609Y-125815814D01*
X152620602Y-125815827D01*
X152560264Y-125961498D01*
X152560261Y-125961510D01*
X152529500Y-126116153D01*
X152529500Y-126273846D01*
X152560261Y-126428489D01*
X152560264Y-126428501D01*
X152620602Y-126574172D01*
X152620609Y-126574185D01*
X152708210Y-126705288D01*
X152708213Y-126705292D01*
X152819707Y-126816786D01*
X152819711Y-126816789D01*
X152950814Y-126904390D01*
X152950827Y-126904397D01*
X153096498Y-126964735D01*
X153096503Y-126964737D01*
X153222035Y-126989707D01*
X153251153Y-126995499D01*
X153251156Y-126995500D01*
X153251158Y-126995500D01*
X153408844Y-126995500D01*
X153408845Y-126995499D01*
X153563497Y-126964737D01*
X153709179Y-126904394D01*
X153840289Y-126816789D01*
X153951789Y-126705289D01*
X154039394Y-126574179D01*
X154099737Y-126428497D01*
X154130500Y-126273842D01*
X154130500Y-126116158D01*
X154130500Y-126116155D01*
X154130499Y-126116153D01*
X154106004Y-125993010D01*
X154099737Y-125961503D01*
X154090487Y-125939172D01*
X154039397Y-125815827D01*
X154039390Y-125815814D01*
X153994339Y-125748391D01*
X153973461Y-125681714D01*
X153991945Y-125614334D01*
X154043924Y-125567643D01*
X154097441Y-125555500D01*
X157173607Y-125555500D01*
X157240646Y-125575185D01*
X157286401Y-125627989D01*
X157296345Y-125697147D01*
X157276709Y-125748391D01*
X157210609Y-125847315D01*
X157210602Y-125847327D01*
X157150264Y-125992998D01*
X157150261Y-125993010D01*
X157119500Y-126147653D01*
X157119500Y-126305346D01*
X157150261Y-126459989D01*
X157150264Y-126460001D01*
X157210602Y-126605672D01*
X157210609Y-126605685D01*
X157298210Y-126736788D01*
X157298213Y-126736792D01*
X157409707Y-126848286D01*
X157409711Y-126848289D01*
X157540814Y-126935890D01*
X157540827Y-126935897D01*
X157684721Y-126995499D01*
X157686503Y-126996237D01*
X157841153Y-127026999D01*
X157841156Y-127027000D01*
X157841158Y-127027000D01*
X157998844Y-127027000D01*
X157998845Y-127026999D01*
X158153497Y-126996237D01*
X158299179Y-126935894D01*
X158430289Y-126848289D01*
X158541789Y-126736789D01*
X158629394Y-126605679D01*
X158636229Y-126589179D01*
X158689735Y-126460001D01*
X158689737Y-126459997D01*
X158720500Y-126305342D01*
X158720500Y-126147658D01*
X158720500Y-126147655D01*
X158720499Y-126147653D01*
X158689738Y-125993010D01*
X158689737Y-125993003D01*
X158689735Y-125992998D01*
X158629397Y-125847327D01*
X158629395Y-125847323D01*
X158629394Y-125847321D01*
X158563290Y-125748390D01*
X158542413Y-125681714D01*
X158560897Y-125614334D01*
X158612876Y-125567643D01*
X158666393Y-125555500D01*
X159291007Y-125555500D01*
X159358046Y-125575185D01*
X159359898Y-125576398D01*
X159485600Y-125660390D01*
X159485613Y-125660397D01*
X159620362Y-125716211D01*
X159631289Y-125720737D01*
X159770314Y-125748391D01*
X159785939Y-125751499D01*
X159785942Y-125751500D01*
X159785944Y-125751500D01*
X159943630Y-125751500D01*
X159943631Y-125751499D01*
X160098283Y-125720737D01*
X160243965Y-125660394D01*
X160375075Y-125572789D01*
X160419702Y-125528162D01*
X160472819Y-125475046D01*
X160534142Y-125441561D01*
X160603834Y-125446545D01*
X160659767Y-125488417D01*
X160684184Y-125553881D01*
X160684500Y-125562727D01*
X160684500Y-126109547D01*
X160664815Y-126176586D01*
X160648181Y-126197228D01*
X160171203Y-126674205D01*
X160109880Y-126707690D01*
X160107714Y-126708141D01*
X159996508Y-126730261D01*
X159996498Y-126730264D01*
X159850827Y-126790602D01*
X159850814Y-126790609D01*
X159719711Y-126878210D01*
X159719707Y-126878213D01*
X159608213Y-126989707D01*
X159608210Y-126989711D01*
X159520609Y-127120814D01*
X159520602Y-127120827D01*
X159460264Y-127266498D01*
X159460261Y-127266510D01*
X159429500Y-127421153D01*
X159429500Y-127578846D01*
X159460261Y-127733489D01*
X159460264Y-127733501D01*
X159520602Y-127879172D01*
X159520609Y-127879185D01*
X159608210Y-128010288D01*
X159608213Y-128010292D01*
X159719707Y-128121786D01*
X159719711Y-128121789D01*
X159850814Y-128209390D01*
X159850827Y-128209397D01*
X159996498Y-128269735D01*
X159996503Y-128269737D01*
X160151153Y-128300499D01*
X160151156Y-128300500D01*
X160151158Y-128300500D01*
X160308844Y-128300500D01*
X160308845Y-128300499D01*
X160463497Y-128269737D01*
X160608414Y-128209711D01*
X160609172Y-128209397D01*
X160609172Y-128209396D01*
X160609179Y-128209394D01*
X160740289Y-128121789D01*
X160851789Y-128010289D01*
X160939394Y-127879179D01*
X160999737Y-127733497D01*
X161021858Y-127622282D01*
X161054240Y-127560375D01*
X161055731Y-127558857D01*
X161795858Y-126818733D01*
X161864312Y-126716285D01*
X161902260Y-126624669D01*
X161911463Y-126602452D01*
X161924954Y-126534627D01*
X161935501Y-126481606D01*
X161935501Y-126358393D01*
X161935501Y-126353283D01*
X161935500Y-126353257D01*
X161935500Y-124988396D01*
X161935500Y-124988394D01*
X161911463Y-124867548D01*
X161897652Y-124834207D01*
X161864312Y-124753714D01*
X161816034Y-124681463D01*
X161795858Y-124651267D01*
X161795856Y-124651264D01*
X161705637Y-124561045D01*
X161705606Y-124561016D01*
X160830198Y-123685608D01*
X160830178Y-123685586D01*
X160753245Y-123608653D01*
X164109500Y-123608653D01*
X164109500Y-123766346D01*
X164140261Y-123920989D01*
X164140264Y-123921001D01*
X164200602Y-124066672D01*
X164200609Y-124066685D01*
X164288210Y-124197788D01*
X164288213Y-124197792D01*
X164399707Y-124309286D01*
X164399711Y-124309289D01*
X164530814Y-124396890D01*
X164530827Y-124396897D01*
X164602504Y-124426586D01*
X164676503Y-124457237D01*
X164831153Y-124487999D01*
X164831156Y-124488000D01*
X164831158Y-124488000D01*
X164988844Y-124488000D01*
X164988845Y-124487999D01*
X165143497Y-124457237D01*
X165289179Y-124396894D01*
X165420289Y-124309289D01*
X165531789Y-124197789D01*
X165619394Y-124066679D01*
X165679737Y-123920997D01*
X165710500Y-123766342D01*
X165710500Y-123608658D01*
X165710500Y-123608655D01*
X165710499Y-123608653D01*
X165687364Y-123492347D01*
X165679737Y-123454003D01*
X165664899Y-123418181D01*
X165619397Y-123308327D01*
X165619390Y-123308314D01*
X165531789Y-123177211D01*
X165531787Y-123177208D01*
X165516011Y-123161433D01*
X165482524Y-123100111D01*
X165487507Y-123030419D01*
X165516007Y-122986070D01*
X165611789Y-122890289D01*
X165699394Y-122759179D01*
X165759737Y-122613497D01*
X165790500Y-122458842D01*
X165790500Y-122301158D01*
X165790500Y-122301155D01*
X165790499Y-122301153D01*
X165784355Y-122270264D01*
X165759737Y-122146503D01*
X165703539Y-122010827D01*
X165699397Y-122000827D01*
X165699390Y-122000814D01*
X165611789Y-121869711D01*
X165611786Y-121869707D01*
X165500292Y-121758213D01*
X165500288Y-121758210D01*
X165369185Y-121670609D01*
X165369172Y-121670602D01*
X165223501Y-121610264D01*
X165223489Y-121610261D01*
X165068845Y-121579500D01*
X165068842Y-121579500D01*
X164911158Y-121579500D01*
X164911155Y-121579500D01*
X164756510Y-121610261D01*
X164756498Y-121610264D01*
X164610827Y-121670602D01*
X164610814Y-121670609D01*
X164479711Y-121758210D01*
X164479707Y-121758213D01*
X164368213Y-121869707D01*
X164368210Y-121869711D01*
X164280609Y-122000814D01*
X164280602Y-122000827D01*
X164220264Y-122146498D01*
X164220261Y-122146510D01*
X164189500Y-122301153D01*
X164189500Y-122458846D01*
X164220261Y-122613489D01*
X164220264Y-122613501D01*
X164280602Y-122759172D01*
X164280609Y-122759185D01*
X164368210Y-122890288D01*
X164368213Y-122890292D01*
X164383990Y-122906069D01*
X164417475Y-122967392D01*
X164412491Y-123037084D01*
X164383990Y-123081431D01*
X164288213Y-123177207D01*
X164288210Y-123177211D01*
X164200609Y-123308314D01*
X164200602Y-123308327D01*
X164140264Y-123453998D01*
X164140261Y-123454010D01*
X164109500Y-123608653D01*
X160753245Y-123608653D01*
X160738733Y-123594141D01*
X160693325Y-123563801D01*
X160693324Y-123563800D01*
X160687509Y-123559915D01*
X160636286Y-123525688D01*
X160555792Y-123492347D01*
X160540457Y-123485995D01*
X160522453Y-123478537D01*
X160512427Y-123476543D01*
X160462029Y-123466518D01*
X160401610Y-123454500D01*
X160401607Y-123454500D01*
X160401606Y-123454500D01*
X153090342Y-123454500D01*
X153023303Y-123434815D01*
X152977548Y-123382011D01*
X152967604Y-123312853D01*
X152975781Y-123283047D01*
X152979737Y-123273497D01*
X153010500Y-123118842D01*
X153010500Y-122961158D01*
X153010500Y-122961155D01*
X153010499Y-122961153D01*
X152979738Y-122806510D01*
X152979737Y-122806503D01*
X152979735Y-122806498D01*
X152919397Y-122660827D01*
X152919390Y-122660814D01*
X152831789Y-122529711D01*
X152831786Y-122529707D01*
X152720292Y-122418213D01*
X152720288Y-122418210D01*
X152589185Y-122330609D01*
X152589172Y-122330602D01*
X152443501Y-122270264D01*
X152443489Y-122270261D01*
X152288845Y-122239500D01*
X152288842Y-122239500D01*
X152131158Y-122239500D01*
X152131155Y-122239500D01*
X151976510Y-122270261D01*
X151976498Y-122270264D01*
X151830827Y-122330602D01*
X151830814Y-122330609D01*
X151699711Y-122418210D01*
X151699707Y-122418213D01*
X151588213Y-122529707D01*
X151588210Y-122529711D01*
X151500609Y-122660814D01*
X151500602Y-122660827D01*
X151440264Y-122806498D01*
X151440261Y-122806510D01*
X151409500Y-122961153D01*
X151409500Y-123118846D01*
X151440261Y-123273489D01*
X151440263Y-123273497D01*
X151444219Y-123283047D01*
X151451688Y-123352516D01*
X151420413Y-123414995D01*
X151360324Y-123450648D01*
X151329658Y-123454500D01*
X148755155Y-123454500D01*
X148688116Y-123434815D01*
X148667474Y-123418181D01*
X147686870Y-122437577D01*
X147653385Y-122376254D01*
X147658369Y-122306562D01*
X147700241Y-122250629D01*
X147738556Y-122231235D01*
X147743484Y-122229739D01*
X147743496Y-122229737D01*
X147889178Y-122169394D01*
X148020288Y-122081789D01*
X148131788Y-121970289D01*
X148219393Y-121839179D01*
X148279736Y-121693497D01*
X148310499Y-121538842D01*
X148310499Y-121381158D01*
X148310499Y-121381155D01*
X148310498Y-121381153D01*
X158919500Y-121381153D01*
X158919500Y-121538846D01*
X158950261Y-121693489D01*
X158950264Y-121693501D01*
X159010602Y-121839172D01*
X159010609Y-121839185D01*
X159098210Y-121970288D01*
X159098213Y-121970292D01*
X159209707Y-122081786D01*
X159209711Y-122081789D01*
X159340814Y-122169390D01*
X159340827Y-122169397D01*
X159486496Y-122229734D01*
X159486503Y-122229737D01*
X159641153Y-122260499D01*
X159641156Y-122260500D01*
X159641158Y-122260500D01*
X159798844Y-122260500D01*
X159798845Y-122260499D01*
X159953497Y-122229737D01*
X160072548Y-122180424D01*
X160142016Y-122172956D01*
X160167452Y-122180425D01*
X160286502Y-122229737D01*
X160441152Y-122260499D01*
X160441155Y-122260500D01*
X160441157Y-122260500D01*
X160598843Y-122260500D01*
X160598844Y-122260499D01*
X160753496Y-122229737D01*
X160899178Y-122169394D01*
X161030288Y-122081789D01*
X161141788Y-121970289D01*
X161229393Y-121839179D01*
X161289736Y-121693497D01*
X161320499Y-121538842D01*
X161320499Y-121381158D01*
X161320499Y-121381155D01*
X161320498Y-121381153D01*
X161314359Y-121350289D01*
X161289736Y-121226503D01*
X161286702Y-121219179D01*
X161229396Y-121080827D01*
X161229389Y-121080814D01*
X161141788Y-120949711D01*
X161141785Y-120949707D01*
X161030291Y-120838213D01*
X161030287Y-120838210D01*
X160899184Y-120750609D01*
X160899171Y-120750602D01*
X160753500Y-120690264D01*
X160753488Y-120690261D01*
X160598844Y-120659500D01*
X160598841Y-120659500D01*
X160441157Y-120659500D01*
X160441154Y-120659500D01*
X160286509Y-120690261D01*
X160286497Y-120690264D01*
X160167451Y-120739574D01*
X160097981Y-120747043D01*
X160072547Y-120739574D01*
X159953501Y-120690264D01*
X159953489Y-120690261D01*
X159798845Y-120659500D01*
X159798842Y-120659500D01*
X159641158Y-120659500D01*
X159641155Y-120659500D01*
X159486510Y-120690261D01*
X159486498Y-120690264D01*
X159340827Y-120750602D01*
X159340814Y-120750609D01*
X159209711Y-120838210D01*
X159209707Y-120838213D01*
X159098213Y-120949707D01*
X159098210Y-120949711D01*
X159010609Y-121080814D01*
X159010602Y-121080827D01*
X158950264Y-121226498D01*
X158950261Y-121226510D01*
X158919500Y-121381153D01*
X148310498Y-121381153D01*
X148304359Y-121350289D01*
X148279736Y-121226503D01*
X148276702Y-121219179D01*
X148219396Y-121080827D01*
X148219389Y-121080814D01*
X148144604Y-120968891D01*
X148123726Y-120902214D01*
X148142210Y-120834833D01*
X148144604Y-120831109D01*
X148219389Y-120719185D01*
X148219389Y-120719184D01*
X148219393Y-120719179D01*
X148279736Y-120573497D01*
X148310499Y-120418842D01*
X148310499Y-120261158D01*
X148310499Y-120261155D01*
X148310498Y-120261153D01*
X148279736Y-120106503D01*
X148271760Y-120087246D01*
X148219396Y-119960827D01*
X148219389Y-119960814D01*
X148131788Y-119829711D01*
X148131785Y-119829707D01*
X148020291Y-119718213D01*
X148020287Y-119718210D01*
X147889184Y-119630609D01*
X147889172Y-119630603D01*
X147882147Y-119627693D01*
X147827744Y-119583851D01*
X147805681Y-119517556D01*
X147822962Y-119449857D01*
X147874100Y-119402248D01*
X147910203Y-119390660D01*
X147964235Y-119382102D01*
X148001579Y-119376188D01*
X148001579Y-119376187D01*
X148001584Y-119376187D01*
X148194382Y-119313543D01*
X148375006Y-119221510D01*
X148513287Y-119121044D01*
X148539004Y-119102360D01*
X148539006Y-119102357D01*
X148539010Y-119102355D01*
X148682355Y-118959010D01*
X148682357Y-118959006D01*
X148682360Y-118959004D01*
X148742556Y-118876150D01*
X148801510Y-118795006D01*
X148859515Y-118681164D01*
X148907490Y-118630369D01*
X148975311Y-118613574D01*
X149041446Y-118636111D01*
X149080484Y-118681164D01*
X149107114Y-118733428D01*
X149138492Y-118795009D01*
X149257639Y-118959004D01*
X149400995Y-119102360D01*
X149548787Y-119209735D01*
X149564994Y-119221510D01*
X149745618Y-119313543D01*
X149938416Y-119376187D01*
X150138640Y-119407900D01*
X150138641Y-119407900D01*
X150341359Y-119407900D01*
X150341360Y-119407900D01*
X150541584Y-119376187D01*
X150734382Y-119313543D01*
X150915006Y-119221510D01*
X151053287Y-119121044D01*
X151079004Y-119102360D01*
X151079006Y-119102357D01*
X151079010Y-119102355D01*
X151222355Y-118959010D01*
X151222357Y-118959006D01*
X151222360Y-118959004D01*
X151282556Y-118876150D01*
X151341510Y-118795006D01*
X151399515Y-118681164D01*
X151447490Y-118630369D01*
X151515311Y-118613574D01*
X151581446Y-118636111D01*
X151620484Y-118681164D01*
X151647114Y-118733428D01*
X151678492Y-118795009D01*
X151797639Y-118959004D01*
X151940995Y-119102360D01*
X152088787Y-119209735D01*
X152104994Y-119221510D01*
X152285618Y-119313543D01*
X152478416Y-119376187D01*
X152678640Y-119407900D01*
X152678641Y-119407900D01*
X152881359Y-119407900D01*
X152881360Y-119407900D01*
X153081584Y-119376187D01*
X153274382Y-119313543D01*
X153455006Y-119221510D01*
X153593287Y-119121044D01*
X153619004Y-119102360D01*
X153619006Y-119102357D01*
X153619010Y-119102355D01*
X153762355Y-118959010D01*
X153762357Y-118959006D01*
X153762360Y-118959004D01*
X153822556Y-118876150D01*
X153881510Y-118795006D01*
X153939515Y-118681164D01*
X153987490Y-118630369D01*
X154055311Y-118613574D01*
X154121446Y-118636111D01*
X154160484Y-118681164D01*
X154187114Y-118733428D01*
X154218492Y-118795009D01*
X154337639Y-118959004D01*
X154480995Y-119102360D01*
X154628787Y-119209735D01*
X154644994Y-119221510D01*
X154825618Y-119313543D01*
X155018416Y-119376187D01*
X155218640Y-119407900D01*
X155218641Y-119407900D01*
X155421359Y-119407900D01*
X155421360Y-119407900D01*
X155621584Y-119376187D01*
X155814382Y-119313543D01*
X155995006Y-119221510D01*
X156133287Y-119121044D01*
X156159004Y-119102360D01*
X156159006Y-119102357D01*
X156159010Y-119102355D01*
X156302355Y-118959010D01*
X156302357Y-118959006D01*
X156302360Y-118959004D01*
X156362556Y-118876150D01*
X156421510Y-118795006D01*
X156513543Y-118614382D01*
X156576187Y-118421584D01*
X156607900Y-118221360D01*
X156607900Y-118018640D01*
X156576187Y-117818416D01*
X156525901Y-117663653D01*
X164339500Y-117663653D01*
X164339500Y-117821346D01*
X164370261Y-117975989D01*
X164370264Y-117976001D01*
X164419574Y-118095047D01*
X164427043Y-118164516D01*
X164419574Y-118189951D01*
X164370264Y-118308997D01*
X164370261Y-118309009D01*
X164339500Y-118463652D01*
X164339500Y-118621345D01*
X164370261Y-118775988D01*
X164370264Y-118776000D01*
X164430602Y-118921671D01*
X164430609Y-118921684D01*
X164518210Y-119052787D01*
X164518213Y-119052791D01*
X164629707Y-119164285D01*
X164629711Y-119164288D01*
X164760814Y-119251889D01*
X164760827Y-119251896D01*
X164906498Y-119312234D01*
X164906503Y-119312236D01*
X165023142Y-119335437D01*
X165061153Y-119342998D01*
X165061156Y-119342999D01*
X165061158Y-119342999D01*
X165218844Y-119342999D01*
X165218845Y-119342998D01*
X165373497Y-119312236D01*
X165519179Y-119251893D01*
X165650289Y-119164288D01*
X165761789Y-119052788D01*
X165849394Y-118921678D01*
X165909737Y-118775996D01*
X165940500Y-118621341D01*
X165940500Y-118463657D01*
X165940500Y-118463654D01*
X165940499Y-118463652D01*
X165920218Y-118361695D01*
X165909737Y-118309002D01*
X165881897Y-118241789D01*
X165860425Y-118189951D01*
X165852956Y-118120482D01*
X165860425Y-118095047D01*
X165909737Y-117975997D01*
X165940500Y-117821342D01*
X165940500Y-117663658D01*
X165940500Y-117663655D01*
X165940499Y-117663653D01*
X165909738Y-117509010D01*
X165909737Y-117509003D01*
X165899640Y-117484626D01*
X165849397Y-117363327D01*
X165849390Y-117363314D01*
X165761789Y-117232211D01*
X165761786Y-117232207D01*
X165650292Y-117120713D01*
X165650288Y-117120710D01*
X165519185Y-117033109D01*
X165519172Y-117033102D01*
X165373501Y-116972764D01*
X165373489Y-116972761D01*
X165218845Y-116942000D01*
X165218842Y-116942000D01*
X165061158Y-116942000D01*
X165061155Y-116942000D01*
X164906510Y-116972761D01*
X164906498Y-116972764D01*
X164760827Y-117033102D01*
X164760814Y-117033109D01*
X164629711Y-117120710D01*
X164629707Y-117120713D01*
X164518213Y-117232207D01*
X164518210Y-117232211D01*
X164430609Y-117363314D01*
X164430602Y-117363327D01*
X164370264Y-117508998D01*
X164370261Y-117509010D01*
X164339500Y-117663653D01*
X156525901Y-117663653D01*
X156513543Y-117625618D01*
X156513541Y-117625615D01*
X156513541Y-117625613D01*
X156454124Y-117509003D01*
X156421510Y-117444994D01*
X156413854Y-117434456D01*
X156302360Y-117280995D01*
X156159004Y-117137639D01*
X155995009Y-117018492D01*
X155995008Y-117018491D01*
X155995006Y-117018490D01*
X155814382Y-116926457D01*
X155621584Y-116863813D01*
X155621582Y-116863812D01*
X155621580Y-116863812D01*
X155481782Y-116841670D01*
X155421360Y-116832100D01*
X155218640Y-116832100D01*
X155172224Y-116839451D01*
X155018419Y-116863812D01*
X154825615Y-116926458D01*
X154644990Y-117018492D01*
X154480995Y-117137639D01*
X154337639Y-117280995D01*
X154218492Y-117444990D01*
X154160485Y-117558834D01*
X154112510Y-117609630D01*
X154044689Y-117626425D01*
X153978554Y-117603887D01*
X153939515Y-117558834D01*
X153914122Y-117508998D01*
X153881510Y-117444994D01*
X153873854Y-117434456D01*
X153762360Y-117280995D01*
X153619004Y-117137639D01*
X153455009Y-117018492D01*
X153455008Y-117018491D01*
X153455006Y-117018490D01*
X153274382Y-116926457D01*
X153081584Y-116863813D01*
X153081582Y-116863812D01*
X153081580Y-116863812D01*
X152941782Y-116841670D01*
X152881360Y-116832100D01*
X152678640Y-116832100D01*
X152632224Y-116839451D01*
X152478419Y-116863812D01*
X152285615Y-116926458D01*
X152104990Y-117018492D01*
X151940995Y-117137639D01*
X151797639Y-117280995D01*
X151678492Y-117444990D01*
X151620485Y-117558834D01*
X151572510Y-117609630D01*
X151504689Y-117626425D01*
X151438554Y-117603887D01*
X151399515Y-117558834D01*
X151374122Y-117508998D01*
X151341510Y-117444994D01*
X151333854Y-117434456D01*
X151222360Y-117280995D01*
X151079004Y-117137639D01*
X150915009Y-117018492D01*
X150915008Y-117018491D01*
X150915006Y-117018490D01*
X150734382Y-116926457D01*
X150541584Y-116863813D01*
X150541582Y-116863812D01*
X150541580Y-116863812D01*
X150401782Y-116841670D01*
X150341360Y-116832100D01*
X150138640Y-116832100D01*
X150092224Y-116839451D01*
X149938419Y-116863812D01*
X149745615Y-116926458D01*
X149564990Y-117018492D01*
X149400995Y-117137639D01*
X149257639Y-117280995D01*
X149138492Y-117444990D01*
X149080485Y-117558834D01*
X149032510Y-117609630D01*
X148964689Y-117626425D01*
X148898554Y-117603887D01*
X148859515Y-117558834D01*
X148834122Y-117508998D01*
X148801510Y-117444994D01*
X148793854Y-117434456D01*
X148682360Y-117280995D01*
X148539004Y-117137639D01*
X148375009Y-117018492D01*
X148375008Y-117018491D01*
X148375006Y-117018490D01*
X148194382Y-116926457D01*
X148001584Y-116863813D01*
X148001582Y-116863812D01*
X148001580Y-116863812D01*
X147861782Y-116841670D01*
X147801360Y-116832100D01*
X147598640Y-116832100D01*
X147552224Y-116839451D01*
X147398419Y-116863812D01*
X147205615Y-116926458D01*
X147024990Y-117018492D01*
X146860995Y-117137639D01*
X146717639Y-117280995D01*
X146598492Y-117444990D01*
X146506458Y-117625615D01*
X146506457Y-117625617D01*
X146506457Y-117625618D01*
X146494099Y-117663653D01*
X146443812Y-117818419D01*
X146426186Y-117929707D01*
X146412100Y-118018640D01*
X146412100Y-118221360D01*
X146421670Y-118281782D01*
X146439280Y-118392969D01*
X146443813Y-118421584D01*
X146506457Y-118614382D01*
X146567114Y-118733428D01*
X146598492Y-118795009D01*
X146717639Y-118959004D01*
X146860995Y-119102360D01*
X147008787Y-119209735D01*
X147024994Y-119221510D01*
X147205618Y-119313543D01*
X147273005Y-119335438D01*
X147295167Y-119350592D01*
X147319182Y-119362614D01*
X147323574Y-119370016D01*
X147330678Y-119374874D01*
X147341130Y-119399606D01*
X147354834Y-119422703D01*
X147354526Y-119431304D01*
X147357877Y-119439232D01*
X147353297Y-119465693D01*
X147352339Y-119492528D01*
X147347430Y-119499596D01*
X147345963Y-119508079D01*
X147327802Y-119527865D01*
X147312490Y-119549920D01*
X147302143Y-119555824D01*
X147298719Y-119559555D01*
X147282136Y-119567930D01*
X147276504Y-119570262D01*
X147276502Y-119570263D01*
X147215541Y-119595513D01*
X147157450Y-119619575D01*
X147087981Y-119627043D01*
X147062547Y-119619574D01*
X146943501Y-119570264D01*
X146943489Y-119570261D01*
X146788845Y-119539500D01*
X146788842Y-119539500D01*
X146631158Y-119539500D01*
X146631155Y-119539500D01*
X146476510Y-119570261D01*
X146476498Y-119570264D01*
X146330827Y-119630602D01*
X146330814Y-119630609D01*
X146228391Y-119699047D01*
X146161713Y-119719925D01*
X146094333Y-119701440D01*
X146047643Y-119649462D01*
X146035500Y-119595945D01*
X146035500Y-115211153D01*
X149449500Y-115211153D01*
X149449500Y-115368846D01*
X149480261Y-115523489D01*
X149480264Y-115523501D01*
X149540602Y-115669172D01*
X149540609Y-115669185D01*
X149628210Y-115800288D01*
X149628213Y-115800292D01*
X149739707Y-115911786D01*
X149739711Y-115911789D01*
X149870814Y-115999390D01*
X149870827Y-115999397D01*
X150016498Y-116059735D01*
X150016503Y-116059737D01*
X150171153Y-116090499D01*
X150171156Y-116090500D01*
X150171158Y-116090500D01*
X150328844Y-116090500D01*
X150328845Y-116090499D01*
X150483497Y-116059737D01*
X150629179Y-115999394D01*
X150760289Y-115911789D01*
X150871789Y-115800289D01*
X150959394Y-115669179D01*
X151019737Y-115523497D01*
X151050500Y-115368842D01*
X151050500Y-115211158D01*
X151050499Y-115211155D01*
X151046144Y-115189259D01*
X151046144Y-115189257D01*
X151042543Y-115171153D01*
X156979500Y-115171153D01*
X156979500Y-115328846D01*
X157010261Y-115483489D01*
X157010264Y-115483501D01*
X157070602Y-115629172D01*
X157070609Y-115629185D01*
X157158210Y-115760288D01*
X157158213Y-115760292D01*
X157269707Y-115871786D01*
X157269711Y-115871789D01*
X157400814Y-115959390D01*
X157400827Y-115959397D01*
X157546498Y-116019735D01*
X157546503Y-116019737D01*
X157694291Y-116049134D01*
X157701153Y-116050499D01*
X157701156Y-116050500D01*
X157701158Y-116050500D01*
X157858844Y-116050500D01*
X157858845Y-116050499D01*
X158013497Y-116019737D01*
X158159179Y-115959394D01*
X158290289Y-115871789D01*
X158401789Y-115760289D01*
X158489394Y-115629179D01*
X158549737Y-115483497D01*
X158572084Y-115371153D01*
X160199500Y-115371153D01*
X160199500Y-115528846D01*
X160230261Y-115683489D01*
X160230264Y-115683501D01*
X160290602Y-115829172D01*
X160290609Y-115829185D01*
X160378210Y-115960288D01*
X160378213Y-115960292D01*
X160489707Y-116071786D01*
X160489711Y-116071789D01*
X160620814Y-116159390D01*
X160620827Y-116159397D01*
X160764084Y-116218735D01*
X160766503Y-116219737D01*
X160916126Y-116249499D01*
X160921153Y-116250499D01*
X160921156Y-116250500D01*
X160921158Y-116250500D01*
X161078844Y-116250500D01*
X161078845Y-116250499D01*
X161233497Y-116219737D01*
X161379179Y-116159394D01*
X161510289Y-116071789D01*
X161621789Y-115960289D01*
X161709394Y-115829179D01*
X161769737Y-115683497D01*
X161787591Y-115593738D01*
X161791690Y-115573134D01*
X161824075Y-115511223D01*
X161884790Y-115476649D01*
X161954560Y-115480388D01*
X161982199Y-115494224D01*
X162040812Y-115533389D01*
X162040827Y-115533397D01*
X162185933Y-115593501D01*
X162186503Y-115593737D01*
X162341153Y-115624499D01*
X162341156Y-115624500D01*
X162341158Y-115624500D01*
X162498844Y-115624500D01*
X162498845Y-115624499D01*
X162653497Y-115593737D01*
X162799179Y-115533394D01*
X162930289Y-115445789D01*
X162974925Y-115401153D01*
X163032819Y-115343260D01*
X163094142Y-115309775D01*
X163163834Y-115314759D01*
X163219767Y-115356631D01*
X163244184Y-115422095D01*
X163244500Y-115430941D01*
X163244500Y-115527846D01*
X163275261Y-115682489D01*
X163275264Y-115682501D01*
X163335602Y-115828172D01*
X163335609Y-115828185D01*
X163423210Y-115959288D01*
X163423213Y-115959292D01*
X163534707Y-116070786D01*
X163534711Y-116070789D01*
X163665814Y-116158390D01*
X163665827Y-116158397D01*
X163740669Y-116189397D01*
X163811503Y-116218737D01*
X163966153Y-116249499D01*
X163966156Y-116249500D01*
X163966158Y-116249500D01*
X164123844Y-116249500D01*
X164123845Y-116249499D01*
X164278497Y-116218737D01*
X164421765Y-116159394D01*
X164424172Y-116158397D01*
X164424172Y-116158396D01*
X164424179Y-116158394D01*
X164555289Y-116070789D01*
X164650293Y-115975784D01*
X164711614Y-115942301D01*
X164781306Y-115947285D01*
X164833448Y-115986318D01*
X164834347Y-115985581D01*
X164838213Y-115990292D01*
X164949707Y-116101786D01*
X164949711Y-116101789D01*
X165080814Y-116189390D01*
X165080827Y-116189397D01*
X165154078Y-116219738D01*
X165226503Y-116249737D01*
X165381153Y-116280499D01*
X165381156Y-116280500D01*
X165381158Y-116280500D01*
X165538844Y-116280500D01*
X165538845Y-116280499D01*
X165693497Y-116249737D01*
X165839179Y-116189394D01*
X165970289Y-116101789D01*
X166081789Y-115990289D01*
X166169394Y-115859179D01*
X166229737Y-115713497D01*
X166260500Y-115558842D01*
X166260500Y-115401158D01*
X166260500Y-115401155D01*
X166260499Y-115401153D01*
X166243314Y-115314759D01*
X166229737Y-115246503D01*
X166217309Y-115216498D01*
X166169397Y-115100827D01*
X166169390Y-115100814D01*
X166081789Y-114969711D01*
X166081786Y-114969707D01*
X165970292Y-114858213D01*
X165970288Y-114858210D01*
X165839185Y-114770609D01*
X165839172Y-114770602D01*
X165693501Y-114710264D01*
X165693489Y-114710261D01*
X165538845Y-114679500D01*
X165538842Y-114679500D01*
X165381158Y-114679500D01*
X165381155Y-114679500D01*
X165226510Y-114710261D01*
X165226498Y-114710264D01*
X165080827Y-114770602D01*
X165080814Y-114770609D01*
X164949711Y-114858210D01*
X164854707Y-114953214D01*
X164793383Y-114986698D01*
X164723692Y-114981714D01*
X164671551Y-114942681D01*
X164670653Y-114943419D01*
X164666786Y-114938707D01*
X164555292Y-114827213D01*
X164555288Y-114827210D01*
X164424185Y-114739609D01*
X164424172Y-114739602D01*
X164278501Y-114679264D01*
X164278489Y-114679261D01*
X164123845Y-114648500D01*
X164123842Y-114648500D01*
X163966158Y-114648500D01*
X163966155Y-114648500D01*
X163811510Y-114679261D01*
X163811498Y-114679264D01*
X163665827Y-114739602D01*
X163665814Y-114739609D01*
X163534711Y-114827210D01*
X163534707Y-114827213D01*
X163432181Y-114929740D01*
X163370858Y-114963225D01*
X163301166Y-114958241D01*
X163245233Y-114916369D01*
X163220816Y-114850905D01*
X163220500Y-114842059D01*
X163220500Y-114745155D01*
X163220499Y-114745153D01*
X163219594Y-114740602D01*
X163189737Y-114590503D01*
X163177658Y-114561341D01*
X163129397Y-114444827D01*
X163129390Y-114444814D01*
X163041789Y-114313711D01*
X163041786Y-114313707D01*
X162930292Y-114202213D01*
X162930288Y-114202210D01*
X162799185Y-114114609D01*
X162799172Y-114114602D01*
X162653501Y-114054264D01*
X162653489Y-114054261D01*
X162498845Y-114023500D01*
X162498842Y-114023500D01*
X162341158Y-114023500D01*
X162341155Y-114023500D01*
X162186510Y-114054261D01*
X162186498Y-114054264D01*
X162040827Y-114114602D01*
X162040814Y-114114609D01*
X161909711Y-114202210D01*
X161909707Y-114202213D01*
X161798213Y-114313707D01*
X161798210Y-114313711D01*
X161710609Y-114444814D01*
X161710602Y-114444827D01*
X161650264Y-114590498D01*
X161650261Y-114590508D01*
X161628309Y-114700866D01*
X161595923Y-114762777D01*
X161535207Y-114797351D01*
X161465438Y-114793610D01*
X161437803Y-114779777D01*
X161379179Y-114740606D01*
X161379172Y-114740602D01*
X161233501Y-114680264D01*
X161233489Y-114680261D01*
X161078845Y-114649500D01*
X161078842Y-114649500D01*
X160921158Y-114649500D01*
X160921155Y-114649500D01*
X160766510Y-114680261D01*
X160766498Y-114680264D01*
X160620827Y-114740602D01*
X160620814Y-114740609D01*
X160489711Y-114828210D01*
X160489707Y-114828213D01*
X160378213Y-114939707D01*
X160378210Y-114939711D01*
X160290609Y-115070814D01*
X160290602Y-115070827D01*
X160230264Y-115216498D01*
X160230261Y-115216510D01*
X160199500Y-115371153D01*
X158572084Y-115371153D01*
X158572543Y-115368844D01*
X158578107Y-115340875D01*
X158578107Y-115340874D01*
X158580500Y-115328844D01*
X158580500Y-115171155D01*
X158580499Y-115171153D01*
X158571619Y-115126510D01*
X158549737Y-115016503D01*
X158538353Y-114989020D01*
X158489397Y-114870827D01*
X158489390Y-114870814D01*
X158401789Y-114739711D01*
X158401786Y-114739707D01*
X158290292Y-114628213D01*
X158290288Y-114628210D01*
X158159185Y-114540609D01*
X158159172Y-114540602D01*
X158013501Y-114480264D01*
X158013489Y-114480261D01*
X157858845Y-114449500D01*
X157858842Y-114449500D01*
X157701158Y-114449500D01*
X157701155Y-114449500D01*
X157546510Y-114480261D01*
X157546498Y-114480264D01*
X157400827Y-114540602D01*
X157400814Y-114540609D01*
X157269711Y-114628210D01*
X157269707Y-114628213D01*
X157158213Y-114739707D01*
X157158210Y-114739711D01*
X157070609Y-114870814D01*
X157070602Y-114870827D01*
X157010264Y-115016498D01*
X157010261Y-115016510D01*
X156979500Y-115171153D01*
X151042543Y-115171153D01*
X151028551Y-115100814D01*
X151019737Y-115056503D01*
X151019735Y-115056498D01*
X150959397Y-114910827D01*
X150959390Y-114910814D01*
X150871789Y-114779711D01*
X150871786Y-114779707D01*
X150760292Y-114668213D01*
X150760288Y-114668210D01*
X150629185Y-114580609D01*
X150629172Y-114580602D01*
X150483501Y-114520264D01*
X150483489Y-114520261D01*
X150328845Y-114489500D01*
X150328842Y-114489500D01*
X150171158Y-114489500D01*
X150171155Y-114489500D01*
X150016510Y-114520261D01*
X150016498Y-114520264D01*
X149870827Y-114580602D01*
X149870814Y-114580609D01*
X149739711Y-114668210D01*
X149739707Y-114668213D01*
X149628213Y-114779707D01*
X149628210Y-114779711D01*
X149540609Y-114910814D01*
X149540602Y-114910827D01*
X149480264Y-115056498D01*
X149480261Y-115056510D01*
X149449500Y-115211153D01*
X146035500Y-115211153D01*
X146035500Y-113406153D01*
X158159500Y-113406153D01*
X158159500Y-113563846D01*
X158190261Y-113718489D01*
X158190264Y-113718501D01*
X158250602Y-113864172D01*
X158250609Y-113864185D01*
X158338210Y-113995288D01*
X158338213Y-113995292D01*
X158449707Y-114106786D01*
X158449711Y-114106789D01*
X158580814Y-114194390D01*
X158580827Y-114194397D01*
X158726498Y-114254735D01*
X158726503Y-114254737D01*
X158881153Y-114285499D01*
X158881156Y-114285500D01*
X158881158Y-114285500D01*
X159038844Y-114285500D01*
X159038845Y-114285499D01*
X159193497Y-114254737D01*
X159339179Y-114194394D01*
X159470289Y-114106789D01*
X159581789Y-113995289D01*
X159669394Y-113864179D01*
X159729737Y-113718497D01*
X159737826Y-113677832D01*
X159739155Y-113671153D01*
X165679500Y-113671153D01*
X165679500Y-113828846D01*
X165710261Y-113983489D01*
X165710264Y-113983501D01*
X165770602Y-114129172D01*
X165770609Y-114129185D01*
X165858210Y-114260288D01*
X165858213Y-114260292D01*
X165969707Y-114371786D01*
X165969711Y-114371789D01*
X166100814Y-114459390D01*
X166100827Y-114459397D01*
X166218650Y-114508200D01*
X166246503Y-114519737D01*
X166401153Y-114550499D01*
X166401156Y-114550500D01*
X166401158Y-114550500D01*
X166558844Y-114550500D01*
X166558845Y-114550499D01*
X166713497Y-114519737D01*
X166723311Y-114515671D01*
X166792777Y-114508200D01*
X166855257Y-114539472D01*
X166873866Y-114561338D01*
X166877853Y-114567304D01*
X166893212Y-114590291D01*
X167004707Y-114701786D01*
X167004711Y-114701789D01*
X167135814Y-114789390D01*
X167135827Y-114789397D01*
X167269212Y-114844646D01*
X167281503Y-114849737D01*
X167403692Y-114874042D01*
X167436153Y-114880499D01*
X167436156Y-114880500D01*
X167436158Y-114880500D01*
X167593844Y-114880500D01*
X167593845Y-114880499D01*
X167748497Y-114849737D01*
X167894179Y-114789394D01*
X168025289Y-114701789D01*
X168136789Y-114590289D01*
X168224394Y-114459179D01*
X168284737Y-114313497D01*
X168315500Y-114158842D01*
X168315500Y-114001158D01*
X168315500Y-114001155D01*
X168315499Y-114001153D01*
X168306246Y-113954635D01*
X168284737Y-113846503D01*
X168269183Y-113808952D01*
X168224397Y-113700827D01*
X168224390Y-113700814D01*
X168136789Y-113569711D01*
X168136786Y-113569707D01*
X168025292Y-113458213D01*
X168025288Y-113458210D01*
X167894185Y-113370609D01*
X167894172Y-113370602D01*
X167748501Y-113310264D01*
X167748489Y-113310261D01*
X167593845Y-113279500D01*
X167593842Y-113279500D01*
X167436158Y-113279500D01*
X167436155Y-113279500D01*
X167281511Y-113310260D01*
X167281507Y-113310262D01*
X167281506Y-113310262D01*
X167281503Y-113310263D01*
X167271679Y-113314332D01*
X167202210Y-113321797D01*
X167139732Y-113290519D01*
X167121130Y-113268657D01*
X167101790Y-113239712D01*
X167101786Y-113239707D01*
X166990292Y-113128213D01*
X166990288Y-113128210D01*
X166859185Y-113040609D01*
X166859172Y-113040602D01*
X166713501Y-112980264D01*
X166713489Y-112980261D01*
X166558845Y-112949500D01*
X166558842Y-112949500D01*
X166401158Y-112949500D01*
X166401155Y-112949500D01*
X166246510Y-112980261D01*
X166246498Y-112980264D01*
X166100827Y-113040602D01*
X166100814Y-113040609D01*
X165969711Y-113128210D01*
X165969707Y-113128213D01*
X165858213Y-113239707D01*
X165858210Y-113239711D01*
X165770609Y-113370814D01*
X165770602Y-113370827D01*
X165710264Y-113516498D01*
X165710261Y-113516510D01*
X165679500Y-113671153D01*
X159739155Y-113671153D01*
X159745178Y-113640874D01*
X159745178Y-113640873D01*
X159756189Y-113585513D01*
X159760500Y-113563842D01*
X159760500Y-113406158D01*
X159760500Y-113406155D01*
X159760499Y-113406153D01*
X159758571Y-113396460D01*
X159729737Y-113251503D01*
X159678669Y-113128213D01*
X159669397Y-113105827D01*
X159669390Y-113105814D01*
X159581789Y-112974711D01*
X159581786Y-112974707D01*
X159470292Y-112863213D01*
X159470288Y-112863210D01*
X159339185Y-112775609D01*
X159339172Y-112775602D01*
X159193501Y-112715264D01*
X159193489Y-112715261D01*
X159038845Y-112684500D01*
X159038842Y-112684500D01*
X158881158Y-112684500D01*
X158881155Y-112684500D01*
X158726510Y-112715261D01*
X158726498Y-112715264D01*
X158580827Y-112775602D01*
X158580814Y-112775609D01*
X158449711Y-112863210D01*
X158449707Y-112863213D01*
X158338213Y-112974707D01*
X158338210Y-112974711D01*
X158250609Y-113105814D01*
X158250602Y-113105827D01*
X158190264Y-113251498D01*
X158190261Y-113251510D01*
X158159500Y-113406153D01*
X146035500Y-113406153D01*
X146035500Y-111961153D01*
X151139500Y-111961153D01*
X151139500Y-112118846D01*
X151170261Y-112273489D01*
X151170264Y-112273501D01*
X151230602Y-112419172D01*
X151230609Y-112419185D01*
X151318210Y-112550288D01*
X151318213Y-112550292D01*
X151429707Y-112661786D01*
X151429711Y-112661789D01*
X151560814Y-112749390D01*
X151560827Y-112749397D01*
X151706498Y-112809735D01*
X151706503Y-112809737D01*
X151861153Y-112840499D01*
X151861156Y-112840500D01*
X151861158Y-112840500D01*
X152018844Y-112840500D01*
X152018845Y-112840499D01*
X152173497Y-112809737D01*
X152319179Y-112749394D01*
X152450289Y-112661789D01*
X152561789Y-112550289D01*
X152649394Y-112419179D01*
X152709737Y-112273497D01*
X152740500Y-112118842D01*
X152740500Y-111961158D01*
X152740500Y-111961155D01*
X152740499Y-111961153D01*
X152709738Y-111806510D01*
X152709737Y-111806503D01*
X152671046Y-111713094D01*
X152649397Y-111660827D01*
X152649390Y-111660814D01*
X152561789Y-111529711D01*
X152561786Y-111529707D01*
X152450292Y-111418213D01*
X152450288Y-111418210D01*
X152319185Y-111330609D01*
X152319172Y-111330602D01*
X152173501Y-111270264D01*
X152173489Y-111270261D01*
X152018845Y-111239500D01*
X152018842Y-111239500D01*
X151861158Y-111239500D01*
X151861155Y-111239500D01*
X151706510Y-111270261D01*
X151706498Y-111270264D01*
X151560827Y-111330602D01*
X151560814Y-111330609D01*
X151429711Y-111418210D01*
X151429707Y-111418213D01*
X151318213Y-111529707D01*
X151318210Y-111529711D01*
X151230609Y-111660814D01*
X151230602Y-111660827D01*
X151170264Y-111806498D01*
X151170261Y-111806510D01*
X151139500Y-111961153D01*
X146035500Y-111961153D01*
X146035500Y-110095941D01*
X146055185Y-110028902D01*
X146107989Y-109983147D01*
X146177147Y-109973203D01*
X146240703Y-110002228D01*
X146247181Y-110008260D01*
X146329707Y-110090786D01*
X146329711Y-110090789D01*
X146460814Y-110178390D01*
X146460827Y-110178397D01*
X146555693Y-110217691D01*
X146606503Y-110238737D01*
X146761153Y-110269499D01*
X146761156Y-110269500D01*
X146761158Y-110269500D01*
X146918844Y-110269500D01*
X146918845Y-110269499D01*
X147073497Y-110238737D01*
X147219179Y-110178394D01*
X147232776Y-110169309D01*
X147350875Y-110090398D01*
X147417553Y-110069520D01*
X147419766Y-110069500D01*
X152090943Y-110069500D01*
X152249057Y-110069500D01*
X159056981Y-110069500D01*
X159124020Y-110089185D01*
X159169775Y-110141989D01*
X159178598Y-110169309D01*
X159210261Y-110328489D01*
X159210264Y-110328501D01*
X159270602Y-110474172D01*
X159270609Y-110474185D01*
X159358210Y-110605288D01*
X159358213Y-110605292D01*
X159469707Y-110716786D01*
X159469711Y-110716789D01*
X159600814Y-110804390D01*
X159600827Y-110804397D01*
X159736317Y-110860518D01*
X159746503Y-110864737D01*
X159874956Y-110890288D01*
X159901153Y-110895499D01*
X159901156Y-110895500D01*
X159901158Y-110895500D01*
X160058844Y-110895500D01*
X160058845Y-110895499D01*
X160213497Y-110864737D01*
X160359179Y-110804394D01*
X160490289Y-110716789D01*
X160601789Y-110605289D01*
X160689394Y-110474179D01*
X160749737Y-110328497D01*
X160779595Y-110178394D01*
X160781402Y-110169309D01*
X160813787Y-110107398D01*
X160874502Y-110072824D01*
X160903019Y-110069500D01*
X163954485Y-110069500D01*
X164021524Y-110089185D01*
X164067279Y-110141989D01*
X164077223Y-110211147D01*
X164076102Y-110217691D01*
X164059500Y-110301153D01*
X164059500Y-110458846D01*
X164090261Y-110613489D01*
X164090264Y-110613501D01*
X164150602Y-110759172D01*
X164150609Y-110759185D01*
X164238210Y-110890288D01*
X164238213Y-110890292D01*
X164349707Y-111001786D01*
X164349711Y-111001789D01*
X164480814Y-111089390D01*
X164480827Y-111089397D01*
X164626498Y-111149735D01*
X164626503Y-111149737D01*
X164781153Y-111180499D01*
X164781156Y-111180500D01*
X164781158Y-111180500D01*
X164938844Y-111180500D01*
X164938845Y-111180499D01*
X165093497Y-111149737D01*
X165239179Y-111089394D01*
X165327669Y-111030267D01*
X165370875Y-111001398D01*
X165437553Y-110980520D01*
X165439766Y-110980500D01*
X166713331Y-110980500D01*
X166713347Y-110980501D01*
X166720943Y-110980501D01*
X166879054Y-110980501D01*
X166879057Y-110980501D01*
X167031785Y-110939577D01*
X167108128Y-110895500D01*
X167168716Y-110860520D01*
X167280520Y-110748716D01*
X167280520Y-110748714D01*
X167290724Y-110738511D01*
X167290728Y-110738506D01*
X167558506Y-110470728D01*
X167558511Y-110470724D01*
X167568714Y-110460520D01*
X167568716Y-110460520D01*
X167680520Y-110348716D01*
X167759577Y-110211784D01*
X167791003Y-110094501D01*
X167800500Y-110059058D01*
X167800500Y-109900943D01*
X167800500Y-108629059D01*
X167800501Y-108629046D01*
X167800501Y-108460945D01*
X167800501Y-108460943D01*
X167759577Y-108308215D01*
X167723239Y-108245276D01*
X167680520Y-108171284D01*
X167568716Y-108059480D01*
X167568715Y-108059479D01*
X167564385Y-108055149D01*
X167564374Y-108055139D01*
X167286416Y-107777181D01*
X167252931Y-107715858D01*
X167257915Y-107646166D01*
X167299787Y-107590233D01*
X167365251Y-107565816D01*
X167374097Y-107565500D01*
X168949172Y-107565500D01*
X169016211Y-107585185D01*
X169061966Y-107637989D01*
X169071910Y-107707147D01*
X169052275Y-107758390D01*
X169030608Y-107790816D01*
X169030602Y-107790827D01*
X168970264Y-107936498D01*
X168970261Y-107936510D01*
X168939500Y-108091153D01*
X168939500Y-108248846D01*
X168970261Y-108403489D01*
X168970264Y-108403501D01*
X169030602Y-108549172D01*
X169030609Y-108549184D01*
X169093602Y-108643459D01*
X169114480Y-108710136D01*
X169114500Y-108712350D01*
X169114500Y-113338617D01*
X169094815Y-113405656D01*
X169059393Y-113441718D01*
X169034709Y-113458211D01*
X168923213Y-113569707D01*
X168923210Y-113569711D01*
X168835609Y-113700814D01*
X168835602Y-113700827D01*
X168775264Y-113846498D01*
X168775261Y-113846510D01*
X168744500Y-114001153D01*
X168744500Y-114158846D01*
X168775261Y-114313489D01*
X168775264Y-114313501D01*
X168835602Y-114459172D01*
X168835609Y-114459185D01*
X168923210Y-114590288D01*
X168923213Y-114590292D01*
X169034707Y-114701786D01*
X169034711Y-114701789D01*
X169165814Y-114789390D01*
X169165827Y-114789397D01*
X169299212Y-114844646D01*
X169311503Y-114849737D01*
X169433692Y-114874042D01*
X169466153Y-114880499D01*
X169466156Y-114880500D01*
X169466158Y-114880500D01*
X169623843Y-114880500D01*
X169637721Y-114877739D01*
X169656307Y-114874042D01*
X169725899Y-114880269D01*
X169781077Y-114923131D01*
X169804322Y-114989020D01*
X169804500Y-114995659D01*
X169804500Y-124359547D01*
X169784815Y-124426586D01*
X169768181Y-124447228D01*
X168650729Y-125564681D01*
X168589406Y-125598166D01*
X168563048Y-125601000D01*
X167494768Y-125601000D01*
X167427729Y-125581315D01*
X167381974Y-125528511D01*
X167372030Y-125459353D01*
X167391666Y-125408109D01*
X167422322Y-125362229D01*
X167439394Y-125336679D01*
X167499737Y-125190997D01*
X167530500Y-125036342D01*
X167530500Y-124878658D01*
X167530500Y-124878655D01*
X167530499Y-124878653D01*
X167524919Y-124850602D01*
X167499737Y-124724003D01*
X167493209Y-124708243D01*
X167439397Y-124578327D01*
X167439390Y-124578314D01*
X167351789Y-124447211D01*
X167351786Y-124447207D01*
X167240292Y-124335713D01*
X167240288Y-124335710D01*
X167109185Y-124248109D01*
X167109172Y-124248102D01*
X166963501Y-124187764D01*
X166963489Y-124187761D01*
X166808845Y-124157000D01*
X166808842Y-124157000D01*
X166651158Y-124157000D01*
X166651155Y-124157000D01*
X166496510Y-124187761D01*
X166496498Y-124187764D01*
X166350827Y-124248102D01*
X166350814Y-124248109D01*
X166219711Y-124335710D01*
X166219707Y-124335713D01*
X166108213Y-124447207D01*
X166108210Y-124447211D01*
X166020609Y-124578314D01*
X166020602Y-124578327D01*
X165960264Y-124723998D01*
X165960261Y-124724010D01*
X165929500Y-124878653D01*
X165929500Y-125036346D01*
X165958240Y-125180827D01*
X165960263Y-125190997D01*
X165979425Y-125237258D01*
X166001179Y-125289778D01*
X166008647Y-125359248D01*
X165977371Y-125421727D01*
X165917282Y-125457379D01*
X165859840Y-125456097D01*
X165859472Y-125457951D01*
X165698845Y-125426000D01*
X165698842Y-125426000D01*
X165541158Y-125426000D01*
X165541155Y-125426000D01*
X165386510Y-125456761D01*
X165386498Y-125456764D01*
X165240827Y-125517102D01*
X165240814Y-125517109D01*
X165109711Y-125604710D01*
X165109707Y-125604713D01*
X164998213Y-125716207D01*
X164998210Y-125716211D01*
X164910609Y-125847314D01*
X164910602Y-125847327D01*
X164850264Y-125992998D01*
X164850261Y-125993010D01*
X164819500Y-126147653D01*
X164819500Y-126305346D01*
X164850261Y-126459989D01*
X164850264Y-126460001D01*
X164910602Y-126605672D01*
X164910609Y-126605685D01*
X164998210Y-126736788D01*
X164998213Y-126736792D01*
X165031990Y-126770569D01*
X165065475Y-126831892D01*
X165060491Y-126901584D01*
X165031990Y-126945931D01*
X164998213Y-126979707D01*
X164998210Y-126979711D01*
X164910609Y-127110814D01*
X164910602Y-127110827D01*
X164850264Y-127256498D01*
X164850261Y-127256510D01*
X164819500Y-127411153D01*
X164819500Y-127568846D01*
X164850261Y-127723489D01*
X164850264Y-127723501D01*
X164910602Y-127869172D01*
X164910609Y-127869185D01*
X164998210Y-128000288D01*
X164998213Y-128000292D01*
X165030240Y-128032319D01*
X165063725Y-128093642D01*
X165058741Y-128163334D01*
X165030240Y-128207681D01*
X164998213Y-128239707D01*
X164998210Y-128239711D01*
X164910609Y-128370814D01*
X164910602Y-128370827D01*
X164850264Y-128516498D01*
X164850261Y-128516510D01*
X164819500Y-128671153D01*
X164819500Y-128828846D01*
X164850261Y-128983489D01*
X164850264Y-128983501D01*
X164910602Y-129129172D01*
X164910609Y-129129185D01*
X164998210Y-129260288D01*
X164998213Y-129260292D01*
X165109707Y-129371786D01*
X165109711Y-129371789D01*
X165240814Y-129459390D01*
X165240827Y-129459397D01*
X165386498Y-129519735D01*
X165386503Y-129519737D01*
X165414631Y-129525332D01*
X165482753Y-129538883D01*
X165544664Y-129571268D01*
X165579238Y-129631984D01*
X165575499Y-129701753D01*
X165534632Y-129758425D01*
X165469614Y-129784006D01*
X165458562Y-129784500D01*
X158392383Y-129784500D01*
X158325344Y-129764815D01*
X158279589Y-129712011D01*
X158277822Y-129707952D01*
X158249397Y-129639327D01*
X158249390Y-129639314D01*
X158161789Y-129508211D01*
X158161786Y-129508207D01*
X158050292Y-129396713D01*
X158050288Y-129396710D01*
X157919185Y-129309109D01*
X157919172Y-129309102D01*
X157773501Y-129248764D01*
X157773489Y-129248761D01*
X157618845Y-129218000D01*
X157618842Y-129218000D01*
X157461158Y-129218000D01*
X157461155Y-129218000D01*
X157306510Y-129248761D01*
X157306498Y-129248764D01*
X157160827Y-129309102D01*
X157160814Y-129309109D01*
X157029711Y-129396710D01*
X157029707Y-129396713D01*
X156918213Y-129508207D01*
X156918210Y-129508211D01*
X156830609Y-129639314D01*
X156830602Y-129639327D01*
X156770264Y-129784998D01*
X156770261Y-129785010D01*
X156739500Y-129939653D01*
X156739500Y-130097346D01*
X156770261Y-130251989D01*
X156770264Y-130252001D01*
X156830602Y-130397672D01*
X156830609Y-130397685D01*
X156918210Y-130528788D01*
X156918213Y-130528792D01*
X157029707Y-130640286D01*
X157029711Y-130640289D01*
X157160814Y-130727890D01*
X157160827Y-130727897D01*
X157270082Y-130773151D01*
X157306503Y-130788237D01*
X157417715Y-130810358D01*
X157434468Y-130819121D01*
X157452949Y-130823142D01*
X157477984Y-130841884D01*
X157479622Y-130842741D01*
X157481203Y-130844294D01*
X157524728Y-130887820D01*
X157558213Y-130949143D01*
X157553227Y-131018835D01*
X157511355Y-131074768D01*
X157445891Y-131099184D01*
X157437046Y-131099500D01*
X134873751Y-131099500D01*
X134866264Y-131099274D01*
X134576205Y-131081728D01*
X134561340Y-131079923D01*
X134279201Y-131028219D01*
X134264663Y-131024635D01*
X133990832Y-130939306D01*
X133976831Y-130933997D01*
X133715263Y-130816275D01*
X133702004Y-130809316D01*
X133689358Y-130801671D01*
X133456537Y-130660926D01*
X133444217Y-130652422D01*
X133428730Y-130640289D01*
X133218426Y-130475526D01*
X133207218Y-130465596D01*
X133004403Y-130262781D01*
X132994473Y-130251573D01*
X132817573Y-130025776D01*
X132809075Y-130013465D01*
X132660680Y-129767989D01*
X132653724Y-129754735D01*
X132627016Y-129695390D01*
X132617453Y-129626177D01*
X132646828Y-129562782D01*
X132705813Y-129525332D01*
X132740092Y-129520500D01*
X132858844Y-129520500D01*
X132858845Y-129520499D01*
X133013497Y-129489737D01*
X133159179Y-129429394D01*
X133290289Y-129341789D01*
X133401789Y-129230289D01*
X133489394Y-129099179D01*
X133549737Y-128953497D01*
X133580500Y-128798842D01*
X133580500Y-128641158D01*
X133580500Y-128641155D01*
X133580499Y-128641153D01*
X133565382Y-128565155D01*
X133549737Y-128486503D01*
X133529291Y-128437142D01*
X133489397Y-128340827D01*
X133489390Y-128340814D01*
X133401789Y-128209711D01*
X133401786Y-128209707D01*
X133290292Y-128098213D01*
X133290288Y-128098210D01*
X133159185Y-128010609D01*
X133159172Y-128010602D01*
X133013501Y-127950264D01*
X133013489Y-127950261D01*
X132858845Y-127919500D01*
X132858842Y-127919500D01*
X132701158Y-127919500D01*
X132701155Y-127919500D01*
X132546510Y-127950261D01*
X132546500Y-127950263D01*
X132541944Y-127952151D01*
X132472475Y-127959614D01*
X132409998Y-127928335D01*
X132374350Y-127868243D01*
X132370500Y-127837586D01*
X132370500Y-126442413D01*
X132390185Y-126375374D01*
X132442989Y-126329619D01*
X132512147Y-126319675D01*
X132541948Y-126327850D01*
X132546503Y-126329737D01*
X132701153Y-126360499D01*
X132701156Y-126360500D01*
X132701158Y-126360500D01*
X132858844Y-126360500D01*
X132858845Y-126360499D01*
X133013497Y-126329737D01*
X133148436Y-126273844D01*
X133159172Y-126269397D01*
X133159172Y-126269396D01*
X133159179Y-126269394D01*
X133290289Y-126181789D01*
X133401789Y-126070289D01*
X133489394Y-125939179D01*
X133549737Y-125793497D01*
X133580500Y-125638842D01*
X133580500Y-125481158D01*
X133580500Y-125481155D01*
X133580499Y-125481153D01*
X133575648Y-125456764D01*
X133549737Y-125326503D01*
X133512771Y-125237258D01*
X133489397Y-125180827D01*
X133489390Y-125180814D01*
X133401789Y-125049711D01*
X133401786Y-125049707D01*
X133290292Y-124938213D01*
X133290288Y-124938210D01*
X133159185Y-124850609D01*
X133159172Y-124850602D01*
X133013501Y-124790264D01*
X133013489Y-124790261D01*
X132858845Y-124759500D01*
X132858842Y-124759500D01*
X132701158Y-124759500D01*
X132701155Y-124759500D01*
X132546510Y-124790261D01*
X132546500Y-124790263D01*
X132541944Y-124792151D01*
X132472475Y-124799614D01*
X132409998Y-124768335D01*
X132374350Y-124708243D01*
X132370500Y-124677586D01*
X132370500Y-123272413D01*
X132390185Y-123205374D01*
X132442989Y-123159619D01*
X132512147Y-123149675D01*
X132541948Y-123157850D01*
X132546503Y-123159737D01*
X132701153Y-123190499D01*
X132701156Y-123190500D01*
X132701158Y-123190500D01*
X132858844Y-123190500D01*
X132858845Y-123190499D01*
X133013497Y-123159737D01*
X133159179Y-123099394D01*
X133290289Y-123011789D01*
X133401789Y-122900289D01*
X133489394Y-122769179D01*
X133549737Y-122623497D01*
X133580500Y-122468842D01*
X133580500Y-122311158D01*
X133580500Y-122311155D01*
X133580499Y-122311153D01*
X133564304Y-122229735D01*
X133549737Y-122156503D01*
X133518790Y-122081789D01*
X133489397Y-122010827D01*
X133489390Y-122010814D01*
X133401789Y-121879711D01*
X133401786Y-121879707D01*
X133290292Y-121768213D01*
X133290288Y-121768210D01*
X133159185Y-121680609D01*
X133159172Y-121680602D01*
X133013501Y-121620264D01*
X133013489Y-121620261D01*
X132858845Y-121589500D01*
X132858842Y-121589500D01*
X132701158Y-121589500D01*
X132701155Y-121589500D01*
X132546510Y-121620261D01*
X132546500Y-121620263D01*
X132541944Y-121622151D01*
X132472475Y-121629614D01*
X132409998Y-121598335D01*
X132374350Y-121538243D01*
X132370500Y-121507586D01*
X132370500Y-120041485D01*
X132390185Y-119974446D01*
X132442989Y-119928691D01*
X132512147Y-119918747D01*
X132541948Y-119926922D01*
X132546503Y-119928809D01*
X132701153Y-119959571D01*
X132701156Y-119959572D01*
X132701158Y-119959572D01*
X132858844Y-119959572D01*
X132858845Y-119959571D01*
X133013497Y-119928809D01*
X133159179Y-119868466D01*
X133290289Y-119780861D01*
X133401789Y-119669361D01*
X133489394Y-119538251D01*
X133549737Y-119392569D01*
X133580500Y-119237914D01*
X133580500Y-119080230D01*
X133580500Y-119080227D01*
X133580499Y-119080225D01*
X133575041Y-119052787D01*
X133549737Y-118925575D01*
X133542008Y-118906915D01*
X133489396Y-118779897D01*
X133489394Y-118779894D01*
X133489394Y-118779893D01*
X133458345Y-118733425D01*
X133437467Y-118666751D01*
X133455951Y-118599371D01*
X133458328Y-118595671D01*
X133489394Y-118549179D01*
X133549737Y-118403497D01*
X133580500Y-118248842D01*
X133580500Y-118091158D01*
X133580500Y-118091155D01*
X133580499Y-118091153D01*
X133574467Y-118060827D01*
X133549737Y-117936503D01*
X133543905Y-117922422D01*
X133489397Y-117790827D01*
X133489390Y-117790814D01*
X133401789Y-117659711D01*
X133401786Y-117659707D01*
X133290292Y-117548213D01*
X133290288Y-117548210D01*
X133159185Y-117460609D01*
X133159172Y-117460602D01*
X133013501Y-117400264D01*
X133013489Y-117400261D01*
X132858845Y-117369500D01*
X132858842Y-117369500D01*
X132701158Y-117369500D01*
X132701155Y-117369500D01*
X132546510Y-117400261D01*
X132546500Y-117400263D01*
X132541944Y-117402151D01*
X132472475Y-117409614D01*
X132409998Y-117378335D01*
X132374350Y-117318243D01*
X132370500Y-117287586D01*
X132370500Y-116242413D01*
X132390185Y-116175374D01*
X132442989Y-116129619D01*
X132512147Y-116119675D01*
X132541948Y-116127850D01*
X132546503Y-116129737D01*
X132690586Y-116158397D01*
X132701153Y-116160499D01*
X132701156Y-116160500D01*
X132701158Y-116160500D01*
X132858844Y-116160500D01*
X132858845Y-116160499D01*
X133013497Y-116129737D01*
X133155811Y-116070789D01*
X133159172Y-116069397D01*
X133159172Y-116069396D01*
X133159179Y-116069394D01*
X133290289Y-115981789D01*
X133401789Y-115870289D01*
X133489394Y-115739179D01*
X133549737Y-115593497D01*
X133580500Y-115438842D01*
X133580500Y-115281158D01*
X133580500Y-115281155D01*
X133580499Y-115281153D01*
X133573606Y-115246498D01*
X133549737Y-115126503D01*
X133532736Y-115085458D01*
X133489397Y-114980827D01*
X133489390Y-114980814D01*
X133398405Y-114844646D01*
X133400299Y-114843380D01*
X133376954Y-114788442D01*
X133388731Y-114719573D01*
X133398874Y-114703792D01*
X133398405Y-114703479D01*
X133489390Y-114567310D01*
X133489390Y-114567309D01*
X133489394Y-114567304D01*
X133549737Y-114421622D01*
X133580500Y-114266967D01*
X133580500Y-114109283D01*
X133580500Y-114109280D01*
X133580499Y-114109278D01*
X133569556Y-114054263D01*
X133549737Y-113954628D01*
X133542662Y-113937548D01*
X133489397Y-113808952D01*
X133489390Y-113808939D01*
X133401789Y-113677836D01*
X133401786Y-113677832D01*
X133290292Y-113566338D01*
X133290288Y-113566335D01*
X133159185Y-113478734D01*
X133159172Y-113478727D01*
X133013501Y-113418389D01*
X133013489Y-113418386D01*
X132858845Y-113387625D01*
X132858842Y-113387625D01*
X132701158Y-113387625D01*
X132701155Y-113387625D01*
X132546510Y-113418386D01*
X132546500Y-113418388D01*
X132541944Y-113420276D01*
X132472475Y-113427739D01*
X132409998Y-113396460D01*
X132374350Y-113336368D01*
X132370500Y-113305711D01*
X132370500Y-112602413D01*
X132390185Y-112535374D01*
X132442989Y-112489619D01*
X132512147Y-112479675D01*
X132541948Y-112487850D01*
X132546503Y-112489737D01*
X132701153Y-112520499D01*
X132701156Y-112520500D01*
X132701158Y-112520500D01*
X132858844Y-112520500D01*
X132858845Y-112520499D01*
X133013497Y-112489737D01*
X133159179Y-112429394D01*
X133290289Y-112341789D01*
X133401789Y-112230289D01*
X133489394Y-112099179D01*
X133549737Y-111953497D01*
X133580500Y-111798842D01*
X133580500Y-111641158D01*
X133580500Y-111641155D01*
X133580499Y-111641153D01*
X133569288Y-111584793D01*
X133549737Y-111486503D01*
X133542236Y-111468394D01*
X133489397Y-111340827D01*
X133489390Y-111340814D01*
X133401789Y-111209711D01*
X133401786Y-111209707D01*
X133290292Y-111098213D01*
X133290288Y-111098210D01*
X133159185Y-111010609D01*
X133159172Y-111010602D01*
X133013501Y-110950264D01*
X133013489Y-110950261D01*
X132858845Y-110919500D01*
X132858842Y-110919500D01*
X132701158Y-110919500D01*
X132701155Y-110919500D01*
X132546510Y-110950261D01*
X132546500Y-110950263D01*
X132541944Y-110952151D01*
X132472475Y-110959614D01*
X132409998Y-110928335D01*
X132374350Y-110868243D01*
X132370500Y-110837586D01*
X132370500Y-110134288D01*
X132390185Y-110067249D01*
X132442989Y-110021494D01*
X132512147Y-110011550D01*
X132541948Y-110019725D01*
X132546503Y-110021612D01*
X132701153Y-110052374D01*
X132701156Y-110052375D01*
X132701158Y-110052375D01*
X132858844Y-110052375D01*
X132858845Y-110052374D01*
X133013497Y-110021612D01*
X133159179Y-109961269D01*
X133290289Y-109873664D01*
X133401789Y-109762164D01*
X133489394Y-109631054D01*
X133549737Y-109485372D01*
X133580500Y-109330717D01*
X133580500Y-109173033D01*
X133580500Y-109173030D01*
X133580499Y-109173028D01*
X133549738Y-109018385D01*
X133549737Y-109018378D01*
X133545601Y-109008393D01*
X133489397Y-108872702D01*
X133489390Y-108872689D01*
X133401789Y-108741586D01*
X133401786Y-108741582D01*
X133290292Y-108630088D01*
X133290288Y-108630085D01*
X133159185Y-108542484D01*
X133159172Y-108542477D01*
X133013501Y-108482139D01*
X133013489Y-108482136D01*
X132858845Y-108451375D01*
X132858842Y-108451375D01*
X132701158Y-108451375D01*
X132701155Y-108451375D01*
X132546510Y-108482136D01*
X132546500Y-108482138D01*
X132541944Y-108484026D01*
X132472475Y-108491489D01*
X132409998Y-108460210D01*
X132374350Y-108400118D01*
X132370500Y-108369461D01*
X132370500Y-105821153D01*
X138859500Y-105821153D01*
X138859500Y-105978846D01*
X138890261Y-106133489D01*
X138890264Y-106133501D01*
X138950602Y-106279172D01*
X138950609Y-106279185D01*
X139038210Y-106410288D01*
X139038213Y-106410292D01*
X139149707Y-106521786D01*
X139149711Y-106521789D01*
X139280814Y-106609390D01*
X139280827Y-106609397D01*
X139394541Y-106656498D01*
X139426503Y-106669737D01*
X139561039Y-106696498D01*
X139581153Y-106700499D01*
X139581156Y-106700500D01*
X139581158Y-106700500D01*
X139738844Y-106700500D01*
X139738845Y-106700499D01*
X139893497Y-106669737D01*
X140039179Y-106609394D01*
X140170289Y-106521789D01*
X140281789Y-106410289D01*
X140369394Y-106279179D01*
X140373938Y-106268210D01*
X140393654Y-106220609D01*
X140429737Y-106133497D01*
X140460500Y-105978842D01*
X140460500Y-105821158D01*
X140460500Y-105821155D01*
X140460499Y-105821153D01*
X140429738Y-105666510D01*
X140429737Y-105666503D01*
X140400056Y-105594845D01*
X140369397Y-105520827D01*
X140369390Y-105520814D01*
X140281789Y-105389711D01*
X140281786Y-105389707D01*
X140170292Y-105278213D01*
X140170288Y-105278210D01*
X140039185Y-105190609D01*
X140039172Y-105190602D01*
X139893501Y-105130264D01*
X139893489Y-105130261D01*
X139738845Y-105099500D01*
X139738842Y-105099500D01*
X139581158Y-105099500D01*
X139581155Y-105099500D01*
X139426510Y-105130261D01*
X139426498Y-105130264D01*
X139280827Y-105190602D01*
X139280814Y-105190609D01*
X139149711Y-105278210D01*
X139149707Y-105278213D01*
X139038213Y-105389707D01*
X139038210Y-105389711D01*
X138950609Y-105520814D01*
X138950602Y-105520827D01*
X138890264Y-105666498D01*
X138890261Y-105666510D01*
X138859500Y-105821153D01*
X132370500Y-105821153D01*
X132370500Y-105306941D01*
X132390185Y-105239902D01*
X132442989Y-105194147D01*
X132512147Y-105184203D01*
X132575703Y-105213228D01*
X132582181Y-105219260D01*
X132679707Y-105316786D01*
X132679711Y-105316789D01*
X132810814Y-105404390D01*
X132810827Y-105404397D01*
X132888356Y-105436510D01*
X132956503Y-105464737D01*
X133111153Y-105495499D01*
X133111156Y-105495500D01*
X133111158Y-105495500D01*
X133268844Y-105495500D01*
X133268845Y-105495499D01*
X133423497Y-105464737D01*
X133542548Y-105415424D01*
X133612016Y-105407956D01*
X133637451Y-105415425D01*
X133688355Y-105436510D01*
X133756502Y-105464737D01*
X133911152Y-105495499D01*
X133911155Y-105495500D01*
X133911157Y-105495500D01*
X134068843Y-105495500D01*
X134068844Y-105495499D01*
X134223496Y-105464737D01*
X134360579Y-105407956D01*
X134369171Y-105404397D01*
X134369171Y-105404396D01*
X134369178Y-105404394D01*
X134500288Y-105316789D01*
X134611788Y-105205289D01*
X134699393Y-105074179D01*
X134759736Y-104928497D01*
X134790499Y-104773842D01*
X134790499Y-104616158D01*
X134790499Y-104616155D01*
X134790498Y-104616153D01*
X134759737Y-104461510D01*
X134759736Y-104461503D01*
X134759734Y-104461498D01*
X134699396Y-104315827D01*
X134699389Y-104315814D01*
X134624604Y-104203891D01*
X134603726Y-104137214D01*
X134622210Y-104069833D01*
X134624604Y-104066109D01*
X134699389Y-103954185D01*
X134699389Y-103954184D01*
X134699393Y-103954179D01*
X134759736Y-103808497D01*
X134790499Y-103653842D01*
X134790499Y-103496158D01*
X134790499Y-103496155D01*
X134790498Y-103496153D01*
X134759737Y-103341510D01*
X134759736Y-103341503D01*
X134717796Y-103240250D01*
X134699396Y-103195827D01*
X134699389Y-103195814D01*
X134611788Y-103064711D01*
X134611785Y-103064707D01*
X134500291Y-102953213D01*
X134500287Y-102953210D01*
X134369184Y-102865609D01*
X134369171Y-102865602D01*
X134223500Y-102805264D01*
X134223488Y-102805261D01*
X134068844Y-102774500D01*
X134068841Y-102774500D01*
X133911157Y-102774500D01*
X133911154Y-102774500D01*
X133756509Y-102805261D01*
X133756497Y-102805264D01*
X133637451Y-102854574D01*
X133567981Y-102862043D01*
X133542547Y-102854574D01*
X133423501Y-102805264D01*
X133423489Y-102805261D01*
X133268845Y-102774500D01*
X133268842Y-102774500D01*
X133111158Y-102774500D01*
X133111155Y-102774500D01*
X132956510Y-102805261D01*
X132956498Y-102805264D01*
X132810827Y-102865602D01*
X132810814Y-102865609D01*
X132679711Y-102953210D01*
X132679707Y-102953213D01*
X132582181Y-103050740D01*
X132520858Y-103084225D01*
X132451166Y-103079241D01*
X132395233Y-103037369D01*
X132370816Y-102971905D01*
X132370500Y-102963059D01*
X132370500Y-99701153D01*
X138609500Y-99701153D01*
X138609500Y-99858846D01*
X138640261Y-100013489D01*
X138640264Y-100013501D01*
X138700602Y-100159172D01*
X138700609Y-100159185D01*
X138788210Y-100290288D01*
X138788213Y-100290292D01*
X138899707Y-100401786D01*
X138899711Y-100401789D01*
X139030814Y-100489390D01*
X139030827Y-100489397D01*
X139176498Y-100549735D01*
X139176503Y-100549737D01*
X139331153Y-100580499D01*
X139331156Y-100580500D01*
X139331158Y-100580500D01*
X139488844Y-100580500D01*
X139488845Y-100580499D01*
X139643497Y-100549737D01*
X139789179Y-100489394D01*
X139920289Y-100401789D01*
X140031789Y-100290289D01*
X140119394Y-100159179D01*
X140179737Y-100013497D01*
X140210500Y-99858842D01*
X140210500Y-99851153D01*
X142619500Y-99851153D01*
X142619500Y-100008846D01*
X142650261Y-100163489D01*
X142650264Y-100163501D01*
X142710602Y-100309172D01*
X142710609Y-100309185D01*
X142798210Y-100440288D01*
X142798213Y-100440292D01*
X142909707Y-100551786D01*
X142909711Y-100551789D01*
X143040814Y-100639390D01*
X143040827Y-100639397D01*
X143186498Y-100699735D01*
X143186503Y-100699737D01*
X143321039Y-100726498D01*
X143341153Y-100730499D01*
X143341156Y-100730500D01*
X143341158Y-100730500D01*
X143498844Y-100730500D01*
X143498845Y-100730499D01*
X143653497Y-100699737D01*
X143799179Y-100639394D01*
X143930289Y-100551789D01*
X144041789Y-100440289D01*
X144129394Y-100309179D01*
X144189737Y-100163497D01*
X144220500Y-100008842D01*
X144220500Y-99851158D01*
X144220500Y-99851155D01*
X144220499Y-99851153D01*
X144189738Y-99696510D01*
X144189737Y-99696503D01*
X144189735Y-99696498D01*
X144129397Y-99550827D01*
X144129390Y-99550814D01*
X144041789Y-99419711D01*
X144041786Y-99419707D01*
X143930292Y-99308213D01*
X143930288Y-99308210D01*
X143799185Y-99220609D01*
X143799172Y-99220602D01*
X143653501Y-99160264D01*
X143653489Y-99160261D01*
X143498845Y-99129500D01*
X143498842Y-99129500D01*
X143341158Y-99129500D01*
X143341155Y-99129500D01*
X143186510Y-99160261D01*
X143186498Y-99160264D01*
X143040827Y-99220602D01*
X143040814Y-99220609D01*
X142909711Y-99308210D01*
X142909707Y-99308213D01*
X142798213Y-99419707D01*
X142798210Y-99419711D01*
X142710609Y-99550814D01*
X142710602Y-99550827D01*
X142650264Y-99696498D01*
X142650261Y-99696510D01*
X142619500Y-99851153D01*
X140210500Y-99851153D01*
X140210500Y-99701158D01*
X140210500Y-99701155D01*
X140210499Y-99701153D01*
X140180596Y-99550821D01*
X140179737Y-99546503D01*
X140179735Y-99546498D01*
X140119397Y-99400827D01*
X140119390Y-99400814D01*
X140031789Y-99269711D01*
X140031786Y-99269707D01*
X139920292Y-99158213D01*
X139920288Y-99158210D01*
X139789185Y-99070609D01*
X139789172Y-99070602D01*
X139643501Y-99010264D01*
X139643489Y-99010261D01*
X139488845Y-98979500D01*
X139488842Y-98979500D01*
X139331158Y-98979500D01*
X139331155Y-98979500D01*
X139176510Y-99010261D01*
X139176498Y-99010264D01*
X139030827Y-99070602D01*
X139030814Y-99070609D01*
X138899711Y-99158210D01*
X138899707Y-99158213D01*
X138788213Y-99269707D01*
X138788210Y-99269711D01*
X138700609Y-99400814D01*
X138700602Y-99400827D01*
X138640264Y-99546498D01*
X138640261Y-99546510D01*
X138609500Y-99701153D01*
X132370500Y-99701153D01*
X132370500Y-97341153D01*
X138539500Y-97341153D01*
X138539500Y-97498846D01*
X138570261Y-97653489D01*
X138570264Y-97653501D01*
X138630602Y-97799172D01*
X138630609Y-97799185D01*
X138718210Y-97930288D01*
X138718213Y-97930292D01*
X138829707Y-98041786D01*
X138829711Y-98041789D01*
X138960814Y-98129390D01*
X138960827Y-98129397D01*
X139106498Y-98189735D01*
X139106503Y-98189737D01*
X139261153Y-98220499D01*
X139261156Y-98220500D01*
X139261158Y-98220500D01*
X139418844Y-98220500D01*
X139418845Y-98220499D01*
X139573497Y-98189737D01*
X139719179Y-98129394D01*
X139850289Y-98041789D01*
X139961789Y-97930289D01*
X140049394Y-97799179D01*
X140109737Y-97653497D01*
X140140500Y-97498842D01*
X140140500Y-97341158D01*
X140140500Y-97341155D01*
X140140499Y-97341153D01*
X140109738Y-97186510D01*
X140109737Y-97186503D01*
X140095097Y-97151158D01*
X140049397Y-97040827D01*
X140049390Y-97040814D01*
X139961789Y-96909711D01*
X139961786Y-96909707D01*
X139850292Y-96798213D01*
X139850288Y-96798210D01*
X139719185Y-96710609D01*
X139719172Y-96710602D01*
X139573501Y-96650264D01*
X139573489Y-96650261D01*
X139418845Y-96619500D01*
X139418842Y-96619500D01*
X139261158Y-96619500D01*
X139261155Y-96619500D01*
X139106510Y-96650261D01*
X139106498Y-96650264D01*
X138960827Y-96710602D01*
X138960814Y-96710609D01*
X138829711Y-96798210D01*
X138829707Y-96798213D01*
X138718213Y-96909707D01*
X138718210Y-96909711D01*
X138630609Y-97040814D01*
X138630602Y-97040827D01*
X138570264Y-97186498D01*
X138570261Y-97186510D01*
X138539500Y-97341153D01*
X132370500Y-97341153D01*
X132370500Y-96761941D01*
X132390185Y-96694902D01*
X132442989Y-96649147D01*
X132512147Y-96639203D01*
X132575703Y-96668228D01*
X132582181Y-96674260D01*
X132679707Y-96771786D01*
X132679711Y-96771789D01*
X132810814Y-96859390D01*
X132810827Y-96859397D01*
X132932288Y-96909707D01*
X132956503Y-96919737D01*
X133111153Y-96950499D01*
X133111156Y-96950500D01*
X133111158Y-96950500D01*
X133268844Y-96950500D01*
X133268845Y-96950499D01*
X133423497Y-96919737D01*
X133542548Y-96870424D01*
X133612016Y-96862956D01*
X133637452Y-96870425D01*
X133756502Y-96919737D01*
X133911152Y-96950499D01*
X133911155Y-96950500D01*
X133911157Y-96950500D01*
X134068843Y-96950500D01*
X134068844Y-96950499D01*
X134223496Y-96919737D01*
X134369178Y-96859394D01*
X134500288Y-96771789D01*
X134611788Y-96660289D01*
X134699393Y-96529179D01*
X134759736Y-96383497D01*
X134790499Y-96228842D01*
X134790499Y-96071158D01*
X134790499Y-96071155D01*
X134790498Y-96071153D01*
X134759736Y-95916503D01*
X134740954Y-95871158D01*
X134699396Y-95770827D01*
X134699389Y-95770814D01*
X134611788Y-95639711D01*
X134611785Y-95639707D01*
X134500291Y-95528213D01*
X134500287Y-95528210D01*
X134369184Y-95440609D01*
X134369171Y-95440602D01*
X134223500Y-95380264D01*
X134223488Y-95380261D01*
X134068844Y-95349500D01*
X134068841Y-95349500D01*
X133911157Y-95349500D01*
X133911154Y-95349500D01*
X133756509Y-95380261D01*
X133756497Y-95380264D01*
X133637451Y-95429574D01*
X133567981Y-95437043D01*
X133542547Y-95429574D01*
X133423501Y-95380264D01*
X133423489Y-95380261D01*
X133268845Y-95349500D01*
X133268842Y-95349500D01*
X133111158Y-95349500D01*
X133111155Y-95349500D01*
X132956510Y-95380261D01*
X132956498Y-95380264D01*
X132810827Y-95440602D01*
X132810814Y-95440609D01*
X132679711Y-95528210D01*
X132679707Y-95528213D01*
X132582181Y-95625740D01*
X132520858Y-95659225D01*
X132451166Y-95654241D01*
X132395233Y-95612369D01*
X132370816Y-95546905D01*
X132370500Y-95538059D01*
X132370500Y-94251153D01*
X141679500Y-94251153D01*
X141679500Y-94408846D01*
X141710261Y-94563489D01*
X141710264Y-94563501D01*
X141770602Y-94709172D01*
X141770609Y-94709185D01*
X141858210Y-94840288D01*
X141858213Y-94840292D01*
X141969707Y-94951786D01*
X141969711Y-94951789D01*
X142100814Y-95039390D01*
X142100827Y-95039397D01*
X142246498Y-95099735D01*
X142246503Y-95099737D01*
X142401153Y-95130499D01*
X142401156Y-95130500D01*
X142401158Y-95130500D01*
X142558844Y-95130500D01*
X142558845Y-95130499D01*
X142713497Y-95099737D01*
X142859179Y-95039394D01*
X142990289Y-94951789D01*
X143101789Y-94840289D01*
X143189394Y-94709179D01*
X143249737Y-94563497D01*
X143280500Y-94408842D01*
X143280500Y-94251158D01*
X143280500Y-94251155D01*
X143280499Y-94251153D01*
X143274355Y-94220264D01*
X143249737Y-94096503D01*
X143249735Y-94096498D01*
X143189397Y-93950827D01*
X143189390Y-93950814D01*
X143101789Y-93819711D01*
X143101786Y-93819707D01*
X142990292Y-93708213D01*
X142990288Y-93708210D01*
X142859185Y-93620609D01*
X142859172Y-93620602D01*
X142713501Y-93560264D01*
X142713489Y-93560261D01*
X142558845Y-93529500D01*
X142558842Y-93529500D01*
X142401158Y-93529500D01*
X142401155Y-93529500D01*
X142246510Y-93560261D01*
X142246498Y-93560264D01*
X142100827Y-93620602D01*
X142100814Y-93620609D01*
X141969711Y-93708210D01*
X141969707Y-93708213D01*
X141858213Y-93819707D01*
X141858210Y-93819711D01*
X141770609Y-93950814D01*
X141770602Y-93950827D01*
X141710264Y-94096498D01*
X141710261Y-94096510D01*
X141679500Y-94251153D01*
X132370500Y-94251153D01*
X132370500Y-90731153D01*
X138539500Y-90731153D01*
X138539500Y-90888846D01*
X138570261Y-91043489D01*
X138570264Y-91043501D01*
X138630602Y-91189172D01*
X138630609Y-91189185D01*
X138718210Y-91320288D01*
X138718213Y-91320292D01*
X138829707Y-91431786D01*
X138829711Y-91431789D01*
X138960814Y-91519390D01*
X138960827Y-91519397D01*
X139106498Y-91579735D01*
X139106503Y-91579737D01*
X139261153Y-91610499D01*
X139261156Y-91610500D01*
X139261158Y-91610500D01*
X139418844Y-91610500D01*
X139418845Y-91610499D01*
X139573497Y-91579737D01*
X139719179Y-91519394D01*
X139850289Y-91431789D01*
X139961789Y-91320289D01*
X140049394Y-91189179D01*
X140109737Y-91043497D01*
X140140500Y-90888842D01*
X140140500Y-90731158D01*
X140140500Y-90731155D01*
X140140499Y-90731153D01*
X140122467Y-90640500D01*
X140109737Y-90576503D01*
X140109735Y-90576498D01*
X140049397Y-90430827D01*
X140049390Y-90430814D01*
X139961789Y-90299711D01*
X139961786Y-90299707D01*
X139850292Y-90188213D01*
X139850288Y-90188210D01*
X139719185Y-90100609D01*
X139719172Y-90100602D01*
X139573501Y-90040264D01*
X139573489Y-90040261D01*
X139418845Y-90009500D01*
X139418842Y-90009500D01*
X139261158Y-90009500D01*
X139261155Y-90009500D01*
X139106510Y-90040261D01*
X139106498Y-90040264D01*
X138960827Y-90100602D01*
X138960814Y-90100609D01*
X138829711Y-90188210D01*
X138829707Y-90188213D01*
X138718213Y-90299707D01*
X138718210Y-90299711D01*
X138630609Y-90430814D01*
X138630602Y-90430827D01*
X138570264Y-90576498D01*
X138570261Y-90576510D01*
X138539500Y-90731153D01*
X132370500Y-90731153D01*
X132370500Y-84539906D01*
X132390185Y-84472867D01*
X132442989Y-84427112D01*
X132512147Y-84417168D01*
X132575703Y-84446193D01*
X132606220Y-84486105D01*
X132628051Y-84531439D01*
X132628055Y-84531445D01*
X132777477Y-84769248D01*
X132835776Y-84842352D01*
X132942284Y-84975910D01*
X132952584Y-84988825D01*
X133151175Y-85187416D01*
X133370752Y-85362523D01*
X133608555Y-85511945D01*
X133861592Y-85633801D01*
X134060680Y-85703465D01*
X134126670Y-85726556D01*
X134126682Y-85726560D01*
X134400491Y-85789055D01*
X134400497Y-85789055D01*
X134400505Y-85789057D01*
X134586547Y-85810018D01*
X134679569Y-85820499D01*
X134679572Y-85820500D01*
X134679575Y-85820500D01*
X134960428Y-85820500D01*
X134960429Y-85820499D01*
X135103055Y-85804429D01*
X135239494Y-85789057D01*
X135239499Y-85789056D01*
X135239509Y-85789055D01*
X135513318Y-85726560D01*
X135778408Y-85633801D01*
X136031445Y-85511945D01*
X136269248Y-85362523D01*
X136488825Y-85187416D01*
X136687416Y-84988825D01*
X136862523Y-84769248D01*
X137011945Y-84531445D01*
X137133801Y-84278408D01*
X137226560Y-84013318D01*
X137289055Y-83739509D01*
X137293745Y-83697890D01*
X137304429Y-83603055D01*
X137320500Y-83460425D01*
X137320500Y-83179575D01*
X137289055Y-82900491D01*
X137226560Y-82626682D01*
X137133801Y-82361592D01*
X137011945Y-82108555D01*
X136862523Y-81870752D01*
X136687416Y-81651175D01*
X136488825Y-81452584D01*
X136269248Y-81277477D01*
X136060862Y-81146539D01*
X136031442Y-81128053D01*
X135778411Y-81006200D01*
X135513329Y-80913443D01*
X135513317Y-80913439D01*
X135239512Y-80850945D01*
X135239494Y-80850942D01*
X134960431Y-80819500D01*
X134960425Y-80819500D01*
X134679575Y-80819500D01*
X134679568Y-80819500D01*
X134400505Y-80850942D01*
X134400487Y-80850945D01*
X134126682Y-80913439D01*
X134126670Y-80913443D01*
X133861588Y-81006200D01*
X133608557Y-81128053D01*
X133370753Y-81277476D01*
X133151175Y-81452583D01*
X132952583Y-81651175D01*
X132777476Y-81870753D01*
X132628053Y-82108557D01*
X132606220Y-82153895D01*
X132559397Y-82205754D01*
X132491970Y-82224067D01*
X132425346Y-82203019D01*
X132380678Y-82149293D01*
X132370500Y-82100093D01*
X132370500Y-72224500D01*
X132390185Y-72157461D01*
X132442989Y-72111706D01*
X132494500Y-72100500D01*
X170445500Y-72100500D01*
X170512539Y-72120185D01*
G37*
%TD.AperFunction*%
%TD*%
%TA.AperFunction,Conductor*%
%TO.N,Net-(J1-P10)*%
G36*
X146601764Y-81464731D02*
G01*
X147345237Y-82501482D01*
X147347273Y-82510202D01*
X147344002Y-82516573D01*
X147212885Y-82647690D01*
X147204962Y-82651112D01*
X146095959Y-82684331D01*
X146087587Y-82681153D01*
X146084135Y-82674927D01*
X146079381Y-82651112D01*
X145930826Y-81906973D01*
X145932567Y-81898191D01*
X145935809Y-81894950D01*
X146585769Y-81461812D01*
X146594553Y-81460077D01*
X146601764Y-81464731D01*
G37*
%TD.AperFunction*%
%TD*%
%TA.AperFunction,Conductor*%
%TO.N,Net-(SW2-COM)*%
G36*
X167937268Y-92411358D02*
G01*
X168176505Y-92496410D01*
X168887293Y-92749106D01*
X168893939Y-92755106D01*
X168894851Y-92762398D01*
X168772226Y-93383016D01*
X168767261Y-93390468D01*
X168763016Y-93392226D01*
X168142398Y-93514851D01*
X168133617Y-93513093D01*
X168129107Y-93507293D01*
X167791358Y-92557268D01*
X167791816Y-92548325D01*
X167794106Y-92545079D01*
X167925077Y-92414108D01*
X167933349Y-92410682D01*
X167937268Y-92411358D01*
G37*
%TD.AperFunction*%
%TD*%
%TA.AperFunction,Conductor*%
%TO.N,Net-(J1-P9)*%
G36*
X143166507Y-81903357D02*
G01*
X143816641Y-82338740D01*
X143821609Y-82346190D01*
X143820614Y-82353657D01*
X143263224Y-83478124D01*
X143256479Y-83484015D01*
X143252741Y-83484628D01*
X143067259Y-83484628D01*
X143058986Y-83481201D01*
X143056776Y-83478124D01*
X142499385Y-82353657D01*
X142498781Y-82344723D01*
X142503356Y-82338741D01*
X143153491Y-81903358D01*
X143162271Y-81901602D01*
X143166507Y-81903357D01*
G37*
%TD.AperFunction*%
%TD*%
%TA.AperFunction,Conductor*%
%TO.N,Net-(J1-P111)*%
G36*
X148923682Y-80371547D02*
G01*
X148924612Y-80372383D01*
X149054917Y-80502688D01*
X149057704Y-80507143D01*
X149381933Y-81446425D01*
X149480255Y-81731259D01*
X149479715Y-81740198D01*
X149473013Y-81746137D01*
X149471486Y-81746551D01*
X148704058Y-81899755D01*
X148695274Y-81898014D01*
X148695255Y-81898001D01*
X148045441Y-81462657D01*
X148040475Y-81455206D01*
X148042233Y-81446425D01*
X148042834Y-81445606D01*
X148907232Y-80373311D01*
X148915090Y-80369023D01*
X148923682Y-80371547D01*
G37*
%TD.AperFunction*%
%TD*%
M02*
